<svg width="148" height="126" viewBox="0 0 148 126" fill="none" xmlns="http://www.w3.org/2000/svg">
<path d="M21.4529 123.4H20.4091L20.4019 122.853H21.3716C21.5173 122.853 21.6467 122.82 21.7599 122.755C21.8724 122.689 21.9609 122.595 22.0241 122.472C22.0897 122.348 22.1228 122.2 22.1228 122.028C22.1228 121.84 22.0945 121.687 22.0385 121.57C21.9844 121.45 21.9007 121.362 21.7881 121.308C21.6774 121.252 21.5365 121.224 21.3644 121.224H20.5463V125.802H19.8975V120.667H21.3644C21.5859 120.667 21.7833 120.694 21.9573 120.748C22.1312 120.799 22.2781 120.882 22.3979 120.995C22.5201 121.105 22.6134 121.246 22.6766 121.418C22.7404 121.589 22.7717 121.795 22.7717 122.035C22.7717 122.247 22.7235 122.438 22.6272 122.61C22.5333 122.779 22.4015 122.918 22.2324 123.026C22.0632 123.134 21.8676 123.204 21.6467 123.234L21.4529 123.4ZM21.4282 125.802H20.1406L20.5181 125.248H21.4282C21.5973 125.248 21.7406 125.211 21.8586 125.135C21.9759 125.06 22.065 124.954 22.1264 124.818C22.1902 124.679 22.2215 124.515 22.2215 124.328C22.2215 124.137 22.1956 123.972 22.1439 123.833C22.0921 123.695 22.0103 123.588 21.8971 123.513C21.7845 123.437 21.6365 123.4 21.4529 123.4H20.6168L20.624 122.853H21.7526L21.8971 123.051C22.109 123.072 22.2865 123.142 22.4298 123.262C22.5755 123.38 22.685 123.531 22.7579 123.714C22.8331 123.897 22.8704 124.099 22.8704 124.32C22.8704 124.64 22.8108 124.911 22.691 125.132C22.5731 125.35 22.4063 125.517 22.1902 125.633C21.9735 125.745 21.7195 125.802 21.4282 125.802ZM25.5051 121.122L24.1014 125.802H23.4386L25.0928 120.667H25.5087L25.5051 121.122ZM26.6409 125.802L25.2372 121.122L25.23 120.667H25.6502L27.3043 125.802H26.6409ZM26.6409 123.901V124.458H24.1652V123.901H26.6409ZM28.041 120.667H28.6935V125.248H30.0834V120.667H30.7287V125.248H32.1077V120.667H32.7566V125.802H28.041V120.667ZM35.6278 121.122L34.2241 125.802H33.5608L35.2149 120.667H35.6314L35.6278 121.122ZM36.7631 125.802L35.3594 121.122L35.3528 120.667H35.7723L37.4264 125.802H36.7631ZM36.7631 123.901V124.458H34.2873V123.901H36.7631ZM43.1261 120.667V125.802H42.4773V121.224H40.4704V125.802H39.8215V120.667H43.1261ZM44.953 124.624L46.9526 120.667H47.6015V125.802H46.9526V121.841L44.953 125.802H44.3077V120.667H44.953V124.624ZM50.3102 123.4H49.2665L49.2593 122.853H50.2296C50.3752 122.853 50.5047 122.82 50.6172 122.755C50.7304 122.689 50.8183 122.595 50.8821 122.472C50.9477 122.348 50.9808 122.2 50.9808 122.028C50.9808 121.84 50.9525 121.687 50.8959 121.57C50.8417 121.45 50.7581 121.362 50.6455 121.308C50.5348 121.252 50.3939 121.224 50.2224 121.224H49.4037V125.802H48.7548V120.667H50.2224C50.4433 120.667 50.6407 120.694 50.8147 120.748C50.9886 120.799 51.1355 120.882 51.2559 120.995C51.3781 121.105 51.4708 121.246 51.5346 121.418C51.5978 121.589 51.6297 121.795 51.6297 122.035C51.6297 122.247 51.5815 122.438 51.4846 122.61C51.3907 122.779 51.2589 122.918 51.0897 123.026C50.9206 123.134 50.7256 123.204 50.5047 123.234L50.3102 123.4ZM50.2856 125.802H48.9986L49.376 125.248H50.2856C50.4553 125.248 50.5986 125.211 50.7159 125.135C50.8333 125.06 50.923 124.954 50.9838 124.818C51.0476 124.679 51.0795 124.515 51.0795 124.328C51.0795 124.137 51.0536 123.972 51.0019 123.833C50.9501 123.695 50.8676 123.588 50.7551 123.513C50.6419 123.437 50.4938 123.4 50.3102 123.4H49.4748L49.4814 122.853H50.61L50.7551 123.051C50.9663 123.072 51.1439 123.142 51.2872 123.262C51.4334 123.38 51.5424 123.531 51.6152 123.714C51.6905 123.897 51.7284 124.099 51.7284 124.32C51.7284 124.64 51.6682 124.911 51.5484 125.132C51.431 125.35 51.2637 125.517 51.0476 125.633C50.8315 125.745 50.5775 125.802 50.2856 125.802ZM56.0382 122.79V123.682C56.0382 124.044 55.9985 124.363 55.9185 124.638C55.8408 124.911 55.7264 125.138 55.576 125.322C55.4255 125.506 55.2449 125.643 55.033 125.735C54.8211 125.826 54.5828 125.872 54.3173 125.872C54.0609 125.872 53.8267 125.826 53.6155 125.735C53.4036 125.643 53.2212 125.506 53.0683 125.322C52.9154 125.138 52.7968 124.911 52.7126 124.638C52.6301 124.363 52.5886 124.044 52.5886 123.682V122.79C52.5886 122.428 52.6301 122.11 52.7126 121.837C52.7944 121.562 52.9124 121.333 53.0647 121.149C53.2176 120.966 53.4 120.829 53.6118 120.737C53.8231 120.643 54.0573 120.596 54.3137 120.596C54.5792 120.596 54.8181 120.643 55.0294 120.737C55.2437 120.829 55.4243 120.966 55.5729 121.149C55.7234 121.333 55.8384 121.562 55.9185 121.837C55.9985 122.11 56.0382 122.428 56.0382 122.79ZM55.3966 123.682V122.782C55.3966 122.501 55.3725 122.258 55.3256 122.056C55.2786 121.852 55.2094 121.685 55.1179 121.555C55.0258 121.426 54.9132 121.331 54.779 121.27C54.6448 121.206 54.4901 121.174 54.3137 121.174C54.1464 121.174 53.9959 121.206 53.8623 121.27C53.7304 121.331 53.6173 121.426 53.5234 121.555C53.4295 121.685 53.3566 121.852 53.3049 122.056C53.2555 122.258 53.2308 122.501 53.2308 122.782V123.682C53.2308 123.966 53.2555 124.211 53.3049 124.415C53.3566 124.618 53.4295 124.785 53.5234 124.916C53.6197 125.046 53.7352 125.142 53.8689 125.206C54.0031 125.267 54.1524 125.297 54.3173 125.297C54.4937 125.297 54.6484 125.267 54.7826 125.206C54.9193 125.142 55.0318 125.046 55.1215 124.916C55.213 124.785 55.281 124.618 55.3256 124.415C55.3725 124.211 55.3966 123.966 55.3966 123.682ZM58.5989 123.4H57.5545L57.5479 122.853H58.5176C58.6633 122.853 58.7927 122.82 58.9059 122.755C59.0184 122.689 59.1069 122.595 59.1701 122.472C59.2357 122.348 59.2688 122.2 59.2688 122.028C59.2688 121.84 59.2405 121.687 59.1846 121.57C59.1304 121.45 59.0467 121.362 58.9336 121.308C58.8234 121.252 58.6825 121.224 58.5104 121.224H57.6924V125.802H57.0435V120.667H58.5104C58.7319 120.667 58.9294 120.694 59.1033 120.748C59.2773 120.799 59.4241 120.882 59.5439 120.995C59.6661 121.105 59.7594 121.246 59.8226 121.418C59.8864 121.589 59.9177 121.795 59.9177 122.035C59.9177 122.247 59.8696 122.438 59.7733 122.61C59.6793 122.779 59.5475 122.918 59.3784 123.026C59.2093 123.134 59.0136 123.204 58.7927 123.234L58.5989 123.4ZM58.5742 125.802H57.2867L57.6641 125.248H58.5742C58.7434 125.248 58.8866 125.211 59.0046 125.135C59.122 125.06 59.2111 124.954 59.2725 124.818C59.3357 124.679 59.3676 124.515 59.3676 124.328C59.3676 124.137 59.3417 123.972 59.2899 123.833C59.2381 123.695 59.1563 123.588 59.0431 123.513C58.9305 123.437 58.7825 123.4 58.5989 123.4H57.7628L57.77 122.853H58.8987L59.0431 123.051C59.255 123.072 59.4326 123.142 59.5758 123.262C59.7215 123.38 59.831 123.531 59.9039 123.714C59.9791 123.897 60.0164 124.099 60.0164 124.32C60.0164 124.64 59.9568 124.911 59.8365 125.132C59.7191 125.35 59.5523 125.517 59.3356 125.633C59.1196 125.745 58.8655 125.802 58.5742 125.802ZM62.6511 121.122L61.2474 125.802H60.5847L62.2388 120.667H62.6547L62.6511 121.122ZM63.787 125.802L62.3833 121.122L62.376 120.667H62.7962L64.4503 125.802H63.787ZM63.787 123.901V124.458H61.3112V123.901H63.787ZM66.7918 123.788H65.6704V123.234H66.7918C67.0037 123.234 67.174 123.192 67.3035 123.107C67.4353 123.023 67.5304 122.905 67.5888 122.755C67.6502 122.604 67.6809 122.432 67.6809 122.239C67.6809 122.063 67.6502 121.898 67.5888 121.742C67.5304 121.587 67.4353 121.462 67.3035 121.368C67.174 121.272 67.0037 121.224 66.7918 121.224H65.8046V125.802H65.1552V120.667H66.7918C67.1235 120.667 67.4034 120.733 67.6315 120.868C67.8597 121.001 68.0324 121.187 68.1498 121.425C68.2696 121.66 68.3298 121.929 68.3298 122.232C68.3298 122.562 68.2696 122.843 68.1498 123.076C68.0324 123.308 67.8597 123.485 67.6315 123.608C67.4034 123.728 67.1235 123.788 66.7918 123.788ZM71.9239 125.248V125.802H69.6944V125.248H71.9239ZM69.8111 120.667V125.802H69.1622V120.667H69.8111ZM71.6242 122.875V123.428H69.6944V122.875H71.6242ZM71.8884 120.667V121.224H69.6944V120.667H71.8884ZM75.5385 122.875V123.428H73.3132V122.875H75.5385ZM73.4017 120.667V125.802H72.7528V120.667H73.4017ZM76.1134 120.667V125.802H75.4645V120.667H76.1134ZM80.0182 122.875V123.428H77.7928V122.875H80.0182ZM77.8807 120.667V125.802H77.2318V120.667H77.8807ZM80.593 120.667V125.802H79.9441V120.667H80.593ZM83.4389 121.122L82.0352 125.802H81.3725L83.0266 120.667H83.4426L83.4389 121.122ZM84.5748 125.802L83.1711 121.122L83.1639 120.667H83.584L85.2381 125.802H84.5748ZM84.5748 123.901V124.458H82.099V123.901H84.5748ZM88.3242 123.802H87.2095L86.8814 123.664C86.5618 123.547 86.3162 123.367 86.1446 123.125C85.9749 122.88 85.8906 122.577 85.8906 122.215C85.8906 121.883 85.9526 121.602 86.0772 121.372C86.2018 121.142 86.3794 120.966 86.6099 120.847C86.8429 120.726 87.1168 120.667 87.4316 120.667H88.8353V125.802H88.1864V121.224H87.4316C87.133 121.224 86.9097 121.313 86.7616 121.492C86.6136 121.671 86.5395 121.911 86.5395 122.215C86.5395 122.412 86.5726 122.589 86.6382 122.744C86.7062 122.899 86.8074 123.021 86.9416 123.11C87.0752 123.2 87.2438 123.245 87.446 123.245H88.3279L88.3242 123.802ZM87.4563 123.449L86.4125 125.802H85.7209L86.8001 123.449H87.4563ZM92.3446 120.667V125.802H91.6957V120.667H92.3446ZM94.9865 120.667L93.1313 123.491H92.0875L91.978 122.927H92.74L94.1823 120.667H94.9865ZM94.3165 125.802L92.7713 123.404L93.1349 122.807L95.1062 125.802H94.3165ZM98.94 122.79V123.682C98.94 124.044 98.9002 124.363 98.8202 124.638C98.7425 124.911 98.6288 125.138 98.4783 125.322C98.3278 125.506 98.1466 125.643 97.9347 125.735C97.7235 125.826 97.4845 125.872 97.219 125.872C96.9626 125.872 96.7291 125.826 96.5172 125.735C96.3053 125.643 96.1235 125.506 95.9706 125.322C95.8177 125.138 95.6992 124.911 95.6143 124.638C95.5318 124.363 95.4909 124.044 95.4909 123.682V122.79C95.4909 122.428 95.5318 122.11 95.6143 121.837C95.6968 121.562 95.8141 121.333 95.967 121.149C96.1199 120.966 96.3023 120.829 96.5136 120.737C96.7255 120.643 96.959 120.596 97.2154 120.596C97.4815 120.596 97.7198 120.643 97.9317 120.737C98.1454 120.829 98.3266 120.966 98.4747 121.149C98.6252 121.333 98.7401 121.562 98.8202 121.837C98.9002 122.11 98.94 122.428 98.94 122.79ZM98.2983 123.682V122.782C98.2983 122.501 98.2748 122.258 98.2279 122.056C98.1809 121.852 98.1111 121.685 98.0196 121.555C97.9281 121.426 97.815 121.331 97.6813 121.27C97.5471 121.206 97.3918 121.174 97.2154 121.174C97.0487 121.174 96.8982 121.206 96.764 121.27C96.6321 121.331 96.5196 121.426 96.4257 121.555C96.3312 121.685 96.2583 121.852 96.2066 122.056C96.1572 122.258 96.1326 122.501 96.1326 122.782V123.682C96.1326 123.966 96.1572 124.211 96.2066 124.415C96.2583 124.618 96.3312 124.785 96.4257 124.916C96.522 125.046 96.637 125.142 96.7712 125.206C96.9054 125.267 97.0547 125.297 97.219 125.297C97.3954 125.297 97.5507 125.267 97.6843 125.206C97.821 125.142 97.9335 125.046 98.0232 124.916C98.1147 124.785 98.1833 124.618 98.2279 124.415C98.2748 124.211 98.2983 123.966 98.2983 123.682ZM100.15 120.667H100.778L102.122 124.853L103.462 120.667H104.09L102.365 125.802H101.871L100.15 120.667ZM99.9452 120.667H100.495L100.591 123.798V125.802H99.9452V120.667ZM103.74 120.667H104.291V125.802H103.645V123.798L103.74 120.667ZM108.742 120.667V125.802H108.092V121.224H106.086V125.802H105.437V120.667H108.742ZM111.556 121.122L110.152 125.802H109.489L111.144 120.667H111.56L111.556 121.122ZM112.692 125.802L111.288 121.122L111.281 120.667H111.701L113.355 125.802H112.692ZM112.692 123.901V124.458H110.216V123.901H112.692ZM116.846 122.875V123.428H114.621V122.875H116.846ZM114.709 120.667V125.802H114.061V120.667H114.709ZM117.422 120.667V125.802H116.772V120.667H117.422ZM119.217 124.624L121.216 120.667H121.865V125.802H121.216V121.841L119.217 125.802H118.571V120.667H119.217V124.624ZM125.399 123.802H124.285L123.957 123.664C123.637 123.547 123.391 123.367 123.22 123.125C123.05 122.88 122.966 122.577 122.966 122.215C122.966 121.883 123.028 121.602 123.153 121.372C123.277 121.142 123.455 120.966 123.686 120.847C123.918 120.726 124.192 120.667 124.507 120.667H125.911V125.802H125.262V121.224H124.507C124.209 121.224 123.985 121.313 123.837 121.492C123.689 121.671 123.615 121.911 123.615 122.215C123.615 122.412 123.648 122.589 123.714 122.744C123.782 122.899 123.883 123.021 124.017 123.11C124.151 123.2 124.319 123.245 124.521 123.245H125.403L125.399 123.802ZM124.532 123.449L123.488 125.802H122.796L123.876 123.449H124.532Z" fill="white"/>
<path d="M77.7941 28.8526V28.7666C77.7459 27.523 77.3854 26.3119 76.7467 25.244C76.1075 24.1762 75.2106 23.2859 74.1379 22.6551L73.6847 5.21826H66.8557L66.4025 22.6551C65.3388 23.2781 64.448 24.157 63.8099 25.2115C63.1725 26.2667 62.8083 27.464 62.7511 28.6949C62.7457 28.7202 62.7457 28.7461 62.7511 28.7714V62.7187H77.8043V29.2499C77.8043 29.1891 77.8043 29.1229 77.8043 29.0567C77.8043 28.9905 77.7995 28.914 77.7941 28.8526Z" fill="white"/>
<path d="M58.6721 12.2666L58.6263 9.771H52.0057C52.0057 10.1839 51.9395 12.2666 51.9395 12.2666H58.6721Z" fill="white"/>
<path d="M62.8383 38.0245V37.9378C62.7895 36.6948 62.4296 35.4831 61.7903 34.4153C61.1517 33.3475 60.2542 32.4578 59.1815 31.827L58.7283 14.3901H51.8993L51.4611 31.8372C50.3975 32.4596 49.5054 33.3379 48.868 34.393C48.2299 35.4476 47.8663 36.6455 47.8098 37.877C47.8049 37.9023 47.8049 37.9282 47.8098 37.9535V62.7285H62.8636V38.417C62.8636 38.3556 62.8636 38.2894 62.8636 38.2232C62.8636 38.1569 62.8431 38.0859 62.8383 38.0245Z" fill="white"/>
<path d="M92.8132 38.0245V37.9378C92.7663 36.6942 92.4069 35.4819 91.7676 34.4141C91.129 33.3457 90.2309 32.456 89.1564 31.827L88.7086 14.3901H81.8742L81.421 31.827C80.358 32.45 79.4677 33.3294 78.8315 34.384C78.1946 35.4386 77.831 36.6359 77.7751 37.8668C77.7696 37.8921 77.7696 37.918 77.7751 37.9433V62.7189H92.8132V38.417C92.8132 38.3556 92.8132 38.2894 92.8132 38.2232C92.8132 38.1569 92.818 38.0859 92.8132 38.0245Z" fill="white"/>
<path d="M47.9828 45.1183L37.6602 40.0566V62.7285H47.9828V45.1183Z" fill="#DEBE98"/>
<path d="M38.0931 45.1183L27.7705 40.0566V62.7285H38.0931V45.1183Z" fill="#DEBE98"/>
<path d="M92.5789 45.022L103.202 40.0566L118.663 54.1528V62.7285H92.0396L92.5789 45.022Z" fill="#DEBE98"/>
<path d="M73.6344 3.09474L73.5838 0.599121H66.9631C66.9631 1.01145 66.9023 3.09474 66.9023 3.09474H73.6344Z" fill="white"/>
<path d="M88.636 12.2666L88.5903 9.771H82.0159C82.0159 10.1839 81.9497 12.2666 81.9497 12.2666H88.636Z" fill="white"/>
<path d="M103.141 41.5947V61.4556H117.558V54.7338L103.141 41.5947Z" fill="#501A00"/>
<path d="M112.623 59.6375H107.699V54.5752C107.699 53.9233 107.958 53.2973 108.419 52.8363C108.88 52.3746 109.506 52.1157 110.159 52.1157C110.811 52.1157 111.437 52.3746 111.9 52.8356C112.362 53.2967 112.622 53.9227 112.623 54.5752V59.6375Z" fill="#DEBE98"/>
<path d="M32.9341 44.0747V61.4556H36.6468V45.898L32.9341 44.0747Z" fill="#501A00"/>
<path d="M43.4409 44.1968V61.4555H46.9141V45.8979L43.4409 44.1968Z" fill="#501A00"/>
<path d="M61.5907 39.0021C61.5907 38.9413 61.5907 38.875 61.5907 38.8136V38.7276C61.5438 37.484 61.185 36.2729 60.547 35.2044C59.9089 34.1366 59.012 33.2463 57.9394 32.6161L57.4861 15.5151H55.77V35.4476C56.452 36.5305 56.8354 37.7747 56.88 39.0532V39.1447C56.88 39.2061 56.88 39.2723 56.88 39.3331C56.88 39.3945 56.88 39.4655 56.88 39.5215V61.4452H61.5907V39.1959C61.5907 39.1345 61.5907 39.0683 61.5907 39.0021Z" fill="#501A00"/>
<path d="M76.5073 29.6978C76.5073 29.6371 76.5073 29.5708 76.5073 29.5094V29.4234C76.4585 28.1798 76.0986 26.9687 75.4593 25.9008C74.8207 24.833 73.9232 23.9427 72.8505 23.3119L72.3973 6.21094H70.6812V26.398C71.265 27.4219 71.5949 28.571 71.6436 29.749V29.8405C71.6436 29.9019 71.6436 29.9627 71.6436 30.0289C71.6436 30.0951 71.6436 30.1613 71.6436 30.2173V61.4451H76.5019V29.8712C76.5073 29.8303 76.5073 29.7592 76.5073 29.6978Z" fill="#501A00"/>
<path d="M91.5092 39.0021C91.5092 38.9413 91.5092 38.875 91.5092 38.8136V38.7276C91.4623 37.4834 91.1029 36.2717 90.4637 35.2032C89.8244 34.1354 88.9263 33.2451 87.8525 32.6161L87.4046 15.5151H85.6831V35.4476C86.3609 36.5323 86.7437 37.7753 86.7931 39.0532V39.1447C86.7931 39.2061 86.7931 39.2723 86.7931 39.3331C86.7931 39.3945 86.7931 39.4655 86.7931 39.5215V61.4452H91.5092V39.1959C91.5092 39.1345 91.5092 39.0683 91.5092 39.0021Z" fill="#501A00"/>
<path d="M0.539062 83.0882V107.358L0.924301 107.743H3.77507L4.16031 107.358V87.0947L5.31602 85.939H14.7158L15.8716 87.0947V107.358L16.2568 107.743H19.1076L19.4928 107.358V83.0882L19.1076 82.703H0.924301L0.539062 83.0882ZM26.4223 83.0882V107.358L26.8075 107.743H29.6583L30.0435 107.358V100.809L31.1992 99.6535H34.859C40.5605 99.6535 44.49 96.3404 44.49 91.1782C44.49 85.9775 40.7917 82.703 35.2828 82.703H26.8075L26.4223 83.0882ZM30.0435 87.0562L31.1992 85.9004H35.0516C38.904 85.9004 40.8687 87.634 40.8687 91.1782C40.8687 94.6068 38.7499 96.456 34.8205 96.456H31.1992L30.0435 95.3003V87.0562ZM49.8978 83.0882V107.358L50.283 107.743H53.1723L53.4805 107.551L63.4196 92.1798L65.5384 92.8347V107.358L65.9237 107.743H68.7359L69.1212 107.358V83.0882L68.7359 82.703H66.0392L65.731 82.8956L55.5993 98.7289L53.4805 98.074V83.0882L53.0952 82.703H50.283L49.8978 83.0882ZM76.0446 83.0882V107.358L76.4299 107.743H79.1265L79.5118 107.358V92.4495L81.6691 91.8716L86.2534 100.039L86.6001 100.231H87.91L88.2567 100.039L92.9951 91.7946L95.1524 92.3724V107.358L95.5377 107.743H98.2729L98.6581 107.358V83.0882L98.2729 82.703H94.8442L94.4975 82.8956L88.3722 93.7593H86.369L80.2822 82.8956L79.9355 82.703H76.4299L76.0446 83.0882ZM104.305 83.2423L112.973 101.117V102.196L112.781 102.697C112.241 104.084 111.278 104.893 109.968 104.893C109.275 104.893 108.582 104.777 108.004 104.546L107.503 104.777L106.732 107.281L106.964 107.782C107.888 108.09 108.851 108.244 110.123 108.244C112.742 108.244 114.784 106.742 116.209 103.39L124.839 83.2423L124.492 82.703H121.256L120.871 82.9341L116.055 95.4158H113.936L108.466 82.9341L108.081 82.703H104.652L104.305 83.2423ZM147.499 85.6308L147.461 85.0914C145.226 83.1267 142.645 82.2021 139.486 82.2021C132.475 82.2021 127.775 87.9807 127.775 95.2232C127.775 102.967 132.244 108.244 139.101 108.244C142.684 108.244 145.573 107.127 147.961 104.816L148 104.276L146.266 102.312L145.727 102.273C143.839 104.084 141.682 105.008 139.294 105.008C134.362 105.008 131.396 100.848 131.396 95.2232C131.396 89.3676 134.555 85.4382 139.255 85.4382C141.528 85.4382 143.454 86.2472 145.149 87.7496L145.689 87.7111L147.499 85.6308Z" fill="white"/>
</svg>
