<svg width="75" height="46" viewBox="0 0 75 46" fill="none" xmlns="http://www.w3.org/2000/svg">
<path d="M33.0073 12.071V12.0342C32.9867 11.5029 32.8327 10.9855 32.5598 10.5293C32.2867 10.0731 31.9035 9.69273 31.4453 9.42322L31.2516 1.97363H28.3341L28.1404 9.42322C27.686 9.68938 27.3054 10.0648 27.0328 10.5154C26.7605 10.9662 26.6049 11.4777 26.5805 12.0036C26.5782 12.0144 26.5782 12.0255 26.5805 12.0363V26.5397H33.0117V12.2407C33.0117 12.2148 33.0117 12.1865 33.0117 12.1582C33.0117 12.1299 33.0096 12.0972 33.0073 12.071Z" fill="white"/>
<path d="M24.8365 4.98418L24.8169 3.91797H21.9884C21.9884 4.09438 21.9601 4.98418 21.9601 4.98418H24.8365Z" fill="white"/>
<path d="M26.617 15.989V15.9519C26.5962 15.4209 26.4424 14.9032 26.1693 14.447C25.8965 13.9908 25.513 13.6107 25.0548 13.3412L24.8611 5.8916H21.9436L21.7563 13.3456C21.3019 13.6115 20.9208 13.9867 20.6485 14.4375C20.3759 14.888 20.2205 15.3998 20.1964 15.926C20.1943 15.9368 20.1943 15.9478 20.1964 15.9586V26.5433H26.6278V16.1566C26.6278 16.1304 26.6278 16.1021 26.6278 16.0738C26.6278 16.0455 26.6191 16.0152 26.617 15.989Z" fill="white"/>
<path d="M39.4213 15.989V15.9519C39.4012 15.4206 39.2477 14.9027 38.9746 14.4465C38.7017 13.99 38.318 13.6099 37.859 13.3412L37.6676 5.8916H34.7478L34.5541 13.3412C34.1 13.6074 33.7196 13.9831 33.4478 14.4336C33.1757 14.8842 33.0204 15.3957 32.9965 15.9216C32.9942 15.9324 32.9942 15.9434 32.9965 15.9543V26.5392H39.4213V16.1566C39.4213 16.1304 39.4213 16.1021 39.4213 16.0738C39.4213 16.0455 39.4233 16.0152 39.4213 15.989Z" fill="white"/>
<path d="M20.2688 19.0199L15.8586 16.8574V26.5436H20.2688V19.0199Z" fill="#DEBE98"/>
<path d="M16.0449 19.0199L11.6348 16.8574V26.5436H16.0449V19.0199Z" fill="#DEBE98"/>
<path d="M39.3234 18.9788L43.8622 16.8574L50.4675 22.8797V26.5436H39.093L39.3234 18.9788Z" fill="#DEBE98"/>
<path d="M31.2298 1.06621L31.2082 0H28.3796C28.3796 0.176159 28.3536 1.06621 28.3536 1.06621H31.2298Z" fill="white"/>
<path d="M37.6359 4.98418L37.6164 3.91797H34.8076C34.8076 4.09438 34.7793 4.98418 34.7793 4.98418H37.6359Z" fill="white"/>
<path d="M43.8336 17.5146V25.9998H49.993V23.1281L43.8336 17.5146Z" fill="#D79643"/>
<path d="M47.8857 25.2233H45.7819V23.0605C45.7819 22.782 45.8927 22.5146 46.0897 22.3176C46.2867 22.1204 46.5541 22.0098 46.8329 22.0098C47.1117 22.0098 47.3791 22.1204 47.5766 22.3173C47.7741 22.5143 47.8852 22.7818 47.8857 23.0605V25.2233Z" fill="#DEBE98"/>
<path d="M13.8398 18.5742V25.9999H15.426V19.3532L13.8398 18.5742Z" fill="#D79643"/>
<path d="M18.3301 18.626V25.9994H19.8139V19.3527L18.3301 18.626Z" fill="#D79643"/>
<path d="M26.0838 16.4074C26.0838 16.3814 26.0838 16.3531 26.0838 16.3269V16.2901C26.0638 15.7588 25.9105 15.2414 25.6379 14.7849C25.3653 14.3287 24.9821 13.9484 24.5239 13.6791L24.3302 6.37305H23.597V14.8888C23.8884 15.3515 24.0522 15.883 24.0713 16.4293V16.4684C24.0713 16.4946 24.0713 16.5229 24.0713 16.5488C24.0713 16.5751 24.0713 16.6054 24.0713 16.6293V25.9958H26.0838V16.4902C26.0838 16.464 26.0838 16.4357 26.0838 16.4074Z" fill="#D79643"/>
<path d="M32.4573 12.4318C32.4573 12.4058 32.4573 12.3776 32.4573 12.3513V12.3145C32.4364 11.7832 32.2826 11.2658 32.0095 10.8096C31.7367 10.3534 31.3532 9.97306 30.895 9.70355L30.7013 2.39746H29.9681V11.022C30.2176 11.4595 30.3585 11.9504 30.3793 12.4537V12.4928C30.3793 12.519 30.3793 12.545 30.3793 12.5733C30.3793 12.6015 30.3793 12.6298 30.3793 12.6538V25.9953H32.4549V12.5059C32.4573 12.4884 32.4573 12.4581 32.4573 12.4318Z" fill="#D79643"/>
<path d="M38.8636 16.4074C38.8636 16.3814 38.8636 16.3531 38.8636 16.3269V16.2901C38.8436 15.7586 38.69 15.2409 38.4169 14.7844C38.1438 14.3282 37.7601 13.9479 37.3013 13.6791L37.11 6.37305H36.3745V14.8888C36.6641 15.3523 36.8276 15.8833 36.8487 16.4293V16.4684C36.8487 16.4946 36.8487 16.5229 36.8487 16.5488C36.8487 16.5751 36.8487 16.6054 36.8487 16.6293V25.9958H38.8636V16.4902C38.8636 16.464 38.8636 16.4357 38.8636 16.4074Z" fill="#D79643"/>
<path d="M0 35.2418V45.6108L0.164586 45.7753H1.38253L1.54711 45.6108V36.9535L2.04087 36.4598H6.05677L6.55053 36.9535V45.6108L6.71512 45.7753H7.93306L8.09764 45.6108V35.2418L7.93306 35.0772H0.164586L0 35.2418ZM11.0581 35.2418V45.6108L11.2227 45.7753H12.4407L12.6052 45.6108V42.8128L13.099 42.319H14.6626C17.0984 42.319 18.7772 40.9036 18.7772 38.6981C18.7772 36.4762 17.1972 35.0772 14.8436 35.0772H11.2227L11.0581 35.2418ZM12.6052 36.9371L13.099 36.4433H14.7449C16.3907 36.4433 17.2301 37.184 17.2301 38.6981C17.2301 40.163 16.3249 40.953 14.6461 40.953H13.099L12.6052 40.4592V36.9371ZM21.0876 35.2418V45.6108L21.2522 45.7753H22.4866L22.6183 45.6931L26.8646 39.1261L27.7698 39.4059V45.6108L27.9344 45.7753H29.1359L29.3005 45.6108V35.2418L29.1359 35.0772H27.9838L27.8521 35.1595L23.5235 41.924L22.6183 41.6442V35.2418L22.4537 35.0772H21.2522L21.0876 35.2418ZM32.2584 35.2418V45.6108L32.423 45.7753H33.5751L33.7397 45.6108V39.2413L34.6613 38.9944L36.6199 42.4836L36.768 42.5659H37.3276L37.4758 42.4836L39.5002 38.9615L40.4219 39.2084V45.6108L40.5864 45.7753H41.755L41.9196 45.6108V35.2418L41.755 35.0772H40.2902L40.1421 35.1595L37.5251 39.8009H36.6693L34.0688 35.1595L33.9207 35.0772H32.423L32.2584 35.2418ZM44.3323 35.3077L48.0355 42.9445V43.4053L47.9532 43.6193C47.7228 44.2118 47.3113 44.5574 46.7517 44.5574C46.4555 44.5574 46.1592 44.508 45.9123 44.4093L45.6984 44.508L45.3692 45.5778L45.468 45.7918C45.863 45.9235 46.2744 45.9893 46.8176 45.9893C47.9368 45.9893 48.8091 45.3474 49.418 43.9155L53.1048 35.3077L52.9566 35.0772H51.5741L51.4095 35.176L49.3522 40.5086H48.447L46.1099 35.176L45.9453 35.0772H44.4804L44.3323 35.3077ZM62.786 36.3281L62.7696 36.0977C61.815 35.2583 60.7122 34.8633 59.3626 34.8633C56.3672 34.8633 54.3592 37.3321 54.3592 40.4263C54.3592 43.7345 56.2684 45.9893 59.1981 45.9893C60.7287 45.9893 61.9631 45.512 62.9835 44.5245L63 44.2941L62.2594 43.4547L62.0289 43.4382C61.2225 44.2118 60.3008 44.6068 59.2803 44.6068C57.1736 44.6068 55.9063 42.8293 55.9063 40.4263C55.9063 37.9246 57.2559 36.2458 59.2639 36.2458C60.2349 36.2458 61.0579 36.5914 61.7821 37.2333L62.0125 37.2169L62.786 36.3281Z" fill="white"/>
<path d="M61.3168 6.85789H60V5.40526C60.5775 5.37368 60.9818 5.26842 61.2128 5.08947C61.4554 4.91053 61.6229 4.58421 61.7153 4.11053H63.292V15.8579H61.3168V6.85789Z" fill="#DEBE98"/>
<path d="M67.1148 13.6947V11.2C67.1148 10.7474 66.9357 10.5211 66.5776 10.5211C66.3813 10.5211 66.2427 10.5737 66.1618 10.6789C66.0925 10.7737 66.0579 10.9474 66.0579 11.2V13.6947C66.0579 14.0842 66.2369 14.2789 66.595 14.2789C66.9415 14.2789 67.1148 14.0842 67.1148 13.6947ZM67.0801 8.12105V6.22632C67.0801 6.08947 67.0686 5.98421 67.0455 5.91053C67.0339 5.82632 66.9877 5.75263 66.9068 5.68947C66.8375 5.61579 66.7278 5.57895 66.5776 5.57895C66.4275 5.57895 66.312 5.61579 66.2311 5.68947C66.1618 5.75263 66.1214 5.82632 66.1098 5.91053C66.0983 5.98421 66.0925 6.08947 66.0925 6.22632V8.10526C66.0925 8.50526 66.26 8.70526 66.595 8.70526C66.9184 8.70526 67.0801 8.51053 67.0801 8.12105ZM69.0207 6.06842V7.83684C69.0207 8.52105 68.7434 9.02632 68.189 9.35263C68.8358 9.68947 69.1593 10.2368 69.1593 10.9947V13.8211C69.1593 14.4632 68.9571 14.9895 68.5528 15.4C68.1601 15.8 67.5595 16 66.7509 16H66.3871C65.5785 16 64.9778 15.7947 64.5851 15.3842C64.2039 14.9737 64.0133 14.4421 64.0133 13.7895V10.9947C64.0133 10.2789 64.3137 9.73158 64.9143 9.35263C64.3945 8.97368 64.1346 8.46842 64.1346 7.83684V6.00526C64.1346 5.44737 64.3079 4.97368 64.6544 4.58421C65.0009 4.19474 65.5727 4 66.3697 4H66.7163C67.4902 4 68.0677 4.18947 68.4489 4.56842C68.8301 4.93684 69.0207 5.43684 69.0207 6.06842Z" fill="#DEBE98"/>
<path d="M71.5694 13.7263V11.7526H69.7155V10.4105H71.5694V8.42105H73.1461V10.4105H75V11.7526H73.1461V13.7263H71.5694Z" fill="#DEBE98"/>
</svg>
