<svg width="650" height="184" viewBox="0 0 650 184" fill="none" xmlns="http://www.w3.org/2000/svg">
<mask id="path-1-inside-1_1960_5267" fill="white">
<path d="M18.535 44.2H0.295V22.12C8.295 21.64 13.895 20.04 17.095 17.32C20.455 14.6 22.775 9.63999 24.055 2.44H45.895V181H18.535V44.2ZM128.847 41.32V145.96C128.847 157 125.887 165.96 119.967 172.84C114.207 179.72 106.047 183.16 95.4869 183.16H89.4869C67.8869 183.16 57.0869 170.76 57.0869 145.96V41.8C57.0869 28.36 59.7269 18.2 65.0069 11.32C70.2869 4.27999 78.9269 0.759989 90.9269 0.759989H95.9669C107.967 0.759989 116.447 4.27999 121.407 11.32C126.367 18.36 128.847 28.36 128.847 41.32ZM101.247 144.04V40.36C101.247 35.56 100.607 32.2 99.3269 30.28C98.2069 28.2 96.0469 27.16 92.8469 27.16C89.8069 27.16 87.6469 28.2 86.3669 30.28C85.2469 32.36 84.6869 35.72 84.6869 40.36V144.04C84.6869 152.04 87.3269 156.04 92.6069 156.04C98.3669 156.04 101.247 152.04 101.247 144.04ZM161.712 150.28V181H136.512V150.28H161.712ZM241.113 41.32V145.96C241.113 157 238.153 165.96 232.233 172.84C226.473 179.72 218.313 183.16 207.753 183.16H201.753C180.153 183.16 169.353 170.76 169.353 145.96V41.8C169.353 28.36 171.993 18.2 177.273 11.32C182.553 4.27999 191.193 0.759989 203.193 0.759989H208.233C220.233 0.759989 228.713 4.27999 233.673 11.32C238.633 18.36 241.113 28.36 241.113 41.32ZM213.513 144.04V40.36C213.513 35.56 212.873 32.2 211.593 30.28C210.473 28.2 208.313 27.16 205.113 27.16C202.073 27.16 199.913 28.2 198.633 30.28C197.513 32.36 196.953 35.72 196.953 40.36V144.04C196.953 152.04 199.593 156.04 204.873 156.04C210.633 156.04 213.513 152.04 213.513 144.04ZM266.269 44.2H248.029V22.12C256.029 21.64 261.629 20.04 264.829 17.32C268.189 14.6 270.509 9.63999 271.789 2.44H293.629V181H266.269V44.2ZM328.821 150.28V181H303.621V150.28H328.821ZM374.058 26.68C371.498 26.68 369.738 27.4 368.778 28.84C367.818 30.28 367.338 32.68 367.338 36.04V66.52H341.418V33.88C341.418 24.28 343.738 16.36 348.378 10.12C353.018 3.87999 360.538 0.759989 370.938 0.759989H376.458C398.538 0.759989 409.578 11.8 409.578 33.88V42.76C409.578 54.12 408.698 62.92 406.938 69.16C405.178 75.24 400.778 83.64 393.738 94.36C391.818 97.24 386.058 105.4 376.458 118.84C369.098 129.4 364.378 137.08 362.298 141.88C360.378 146.68 359.418 151.24 359.418 155.56H383.418V121.24H410.778V181H336.858V167.56C336.858 155.88 338.138 145.88 340.698 137.56C343.418 129.08 349.098 117.4 357.738 102.52L373.338 74.92C375.738 70.6 377.498 66.84 378.618 63.64C379.898 60.28 380.618 57.72 380.778 55.96C380.938 54.04 381.018 51.24 381.018 47.56V36.04C381.018 29.8 378.698 26.68 374.058 26.68ZM490.956 41.32V145.96C490.956 157 487.996 165.96 482.076 172.84C476.316 179.72 468.156 183.16 457.596 183.16H451.596C429.996 183.16 419.196 170.76 419.196 145.96V41.8C419.196 28.36 421.836 18.2 427.116 11.32C432.396 4.27999 441.036 0.759989 453.036 0.759989H458.076C470.076 0.759989 478.556 4.27999 483.516 11.32C488.476 18.36 490.956 28.36 490.956 41.32ZM463.356 144.04V40.36C463.356 35.56 462.716 32.2 461.436 30.28C460.316 28.2 458.156 27.16 454.956 27.16C451.916 27.16 449.756 28.2 448.476 30.28C447.356 32.36 446.796 35.72 446.796 40.36V144.04C446.796 152.04 449.436 156.04 454.716 156.04C460.476 156.04 463.356 152.04 463.356 144.04ZM534.37 26.68C531.81 26.68 530.05 27.4 529.09 28.84C528.13 30.28 527.65 32.68 527.65 36.04V66.52H501.73V33.88C501.73 24.28 504.05 16.36 508.69 10.12C513.33 3.87999 520.85 0.759989 531.25 0.759989H536.77C558.85 0.759989 569.89 11.8 569.89 33.88V42.76C569.89 54.12 569.01 62.92 567.25 69.16C565.49 75.24 561.09 83.64 554.05 94.36C552.13 97.24 546.37 105.4 536.77 118.84C529.41 129.4 524.69 137.08 522.61 141.88C520.69 146.68 519.73 151.24 519.73 155.56H543.73V121.24H571.09V181H497.17V167.56C497.17 155.88 498.45 145.88 501.01 137.56C503.73 129.08 509.41 117.4 518.05 102.52L533.65 74.92C536.05 70.6 537.81 66.84 538.93 63.64C540.21 60.28 540.93 57.72 541.09 55.96C541.25 54.04 541.33 51.24 541.33 47.56V36.04C541.33 29.8 539.01 26.68 534.37 26.68ZM607.349 101.08H580.709V2.44H647.429V29.32H607.349V69.4C613.109 57.72 620.389 51.88 629.189 51.88H630.149C636.709 51.88 641.509 53.96 644.549 58.12C647.589 62.12 649.109 67.08 649.109 73V149.56C649.109 159 646.389 167 640.949 173.56C635.509 179.96 627.349 183.16 616.469 183.16H611.429C599.109 183.16 590.469 180.12 585.509 174.04C580.709 167.8 578.309 160.6 578.309 152.44V115.72H606.149V147.16C606.149 154.04 608.549 157.48 613.349 157.48C617.829 157.48 620.069 154.04 620.069 147.16V90.28C620.069 83.24 617.989 79.72 613.829 79.72C609.509 79.72 607.349 83.24 607.349 90.28V101.08Z"/>
</mask>
<path d="M18.535 44.2H20.535V42.2H18.535V44.2ZM0.295 44.2H-1.705V46.2H0.295V44.2ZM0.295 22.12L0.175217 20.1236L-1.705 20.2364V22.12H0.295ZM17.095 17.32L15.8366 15.7655L15.818 15.7806L15.7997 15.7961L17.095 17.32ZM24.055 2.44V0.439996H22.3792L22.0859 2.08993L24.055 2.44ZM45.895 2.44H47.895V0.439996H45.895V2.44ZM45.895 181V183H47.895V181H45.895ZM18.535 181H16.535V183H18.535V181ZM18.535 44.2V42.2H0.295V44.2V46.2H18.535V44.2ZM0.295 44.2H2.295V22.12H0.295H-1.705V44.2H0.295ZM0.295 22.12L0.414783 24.1164C8.51105 23.6306 14.6724 22.0041 18.3903 18.8439L17.095 17.32L15.7997 15.7961C13.1176 18.0759 8.07895 19.6494 0.175217 20.1236L0.295 22.12ZM17.095 17.32L18.3534 18.8745C22.2716 15.7026 24.7135 10.1622 26.0241 2.79006L24.055 2.44L22.0859 2.08993C20.8365 9.11778 18.6384 13.4974 15.8366 15.7655L17.095 17.32ZM24.055 2.44V4.44H45.895V2.44V0.439996H24.055V2.44ZM45.895 2.44H43.895V181H45.895H47.895V2.44H45.895ZM45.895 181V179H18.535V181V183H45.895V181ZM18.535 181H20.535V44.2H18.535H16.535V181H18.535ZM119.967 172.84L118.451 171.536L118.442 171.546L118.433 171.556L119.967 172.84ZM65.0069 11.32L66.5935 12.5376L66.6002 12.5289L66.6069 12.52L65.0069 11.32ZM121.407 11.32L119.772 12.4719L119.772 12.4719L121.407 11.32ZM99.3269 30.28L97.5659 31.2282L97.6106 31.3111L97.6628 31.3894L99.3269 30.28ZM86.3669 30.28L84.6636 29.2318L84.6333 29.281L84.6059 29.3318L86.3669 30.28ZM128.847 41.32H126.847V145.96H128.847H130.847V41.32H128.847ZM128.847 145.96H126.847C126.847 156.629 123.995 165.093 118.451 171.536L119.967 172.84L121.483 174.144C127.779 166.827 130.847 157.371 130.847 145.96H128.847ZM119.967 172.84L118.433 171.556C113.122 177.9 105.571 181.16 95.4869 181.16V183.16V185.16C106.523 185.16 115.292 181.54 121.5 174.124L119.967 172.84ZM95.4869 183.16V181.16H89.4869V183.16V185.16H95.4869V183.16ZM89.4869 183.16V181.16C79.0726 181.16 71.6047 178.184 66.695 172.546C61.7393 166.857 59.0869 158.114 59.0869 145.96H57.0869H55.0869C55.0869 158.606 57.8344 168.463 63.6787 175.174C69.569 181.936 78.3012 185.16 89.4869 185.16V183.16ZM57.0869 145.96H59.0869V41.8H57.0869H55.0869V145.96H57.0869ZM57.0869 41.8H59.0869C59.0869 28.5726 61.6933 18.9228 66.5935 12.5376L65.0069 11.32L63.4203 10.1024C57.7605 17.4772 55.0869 28.1474 55.0869 41.8H57.0869ZM65.0069 11.32L66.6069 12.52C71.3825 6.15248 79.3102 2.75999 90.9269 2.75999V0.759989V-1.24001C78.5436 -1.24001 69.1912 2.4075 63.4069 10.12L65.0069 11.32ZM90.9269 0.759989V2.75999H95.9669V0.759989V-1.24001H90.9269V0.759989ZM95.9669 0.759989V2.75999C107.593 2.75999 115.321 6.15518 119.772 12.4719L121.407 11.32L123.042 10.1681C117.572 2.4048 108.341 -1.24001 95.9669 -1.24001V0.759989ZM121.407 11.32L119.772 12.4719C124.402 19.0437 126.847 28.5761 126.847 41.32H128.847H130.847C130.847 28.1438 128.332 17.6763 123.042 10.1681L121.407 11.32ZM101.247 144.04H103.247V40.36H101.247H99.2469V144.04H101.247ZM101.247 40.36H103.247C103.247 35.5108 102.625 31.6211 100.991 29.1706L99.3269 30.28L97.6628 31.3894C98.5891 32.7789 99.2469 35.6092 99.2469 40.36H101.247ZM99.3269 30.28L101.088 29.3318C99.497 26.3774 96.4835 25.16 92.8469 25.16V27.16V29.16C95.6103 29.16 96.9168 30.0226 97.5659 31.2282L99.3269 30.28ZM92.8469 27.16V25.16C89.3082 25.16 86.3996 26.4107 84.6636 29.2318L86.3669 30.28L88.0702 31.3282C88.8941 29.9893 90.3055 29.16 92.8469 29.16V27.16ZM86.3669 30.28L84.6059 29.3318C83.2398 31.869 82.6869 35.6503 82.6869 40.36H84.6869H86.6869C86.6869 35.7897 87.254 32.851 88.1278 31.2282L86.3669 30.28ZM84.6869 40.36H82.6869V144.04H84.6869H86.6869V40.36H84.6869ZM84.6869 144.04H82.6869C82.6869 148.197 83.3612 151.662 84.9977 154.142C86.7302 156.767 89.3756 158.04 92.6069 158.04V156.04V154.04C90.5581 154.04 89.2436 153.313 88.3361 151.938C87.3326 150.418 86.6869 147.883 86.6869 144.04H84.6869ZM92.6069 156.04V158.04C96.0063 158.04 98.8271 156.824 100.71 154.209C102.505 151.715 103.247 148.22 103.247 144.04H101.247H99.2469C99.2469 147.86 98.5485 150.365 97.4638 151.871C96.4666 153.256 94.9675 154.04 92.6069 154.04V156.04ZM161.712 150.28H163.712V148.28H161.712V150.28ZM161.712 181V183H163.712V181H161.712ZM136.512 181H134.512V183H136.512V181ZM136.512 150.28V148.28H134.512V150.28H136.512ZM161.712 150.28H159.712V181H161.712H163.712V150.28H161.712ZM161.712 181V179H136.512V181V183H161.712V181ZM136.512 181H138.512V150.28H136.512H134.512V181H136.512ZM136.512 150.28V152.28H161.712V150.28V148.28H136.512V150.28ZM232.233 172.84L230.716 171.536L230.708 171.546L230.699 171.556L232.233 172.84ZM177.273 11.32L178.859 12.5376L178.866 12.5289L178.873 12.52L177.273 11.32ZM233.673 11.32L232.038 12.4719L232.038 12.4719L233.673 11.32ZM211.593 30.28L209.832 31.2282L209.876 31.3111L209.928 31.3894L211.593 30.28ZM198.633 30.28L196.929 29.2318L196.899 29.281L196.872 29.3318L198.633 30.28ZM241.113 41.32H239.113V145.96H241.113H243.113V41.32H241.113ZM241.113 145.96H239.113C239.113 156.629 236.26 165.093 230.716 171.536L232.233 172.84L233.749 174.144C240.045 166.827 243.113 157.371 243.113 145.96H241.113ZM232.233 172.84L230.699 171.556C225.388 177.9 217.837 181.16 207.753 181.16V183.16V185.16C218.788 185.16 227.557 181.54 233.766 174.124L232.233 172.84ZM207.753 183.16V181.16H201.753V183.16V185.16H207.753V183.16ZM201.753 183.16V181.16C191.338 181.16 183.87 178.184 178.961 172.546C174.005 166.857 171.353 158.114 171.353 145.96H169.353H167.353C167.353 158.606 170.1 168.463 175.944 175.174C181.835 181.936 190.567 185.16 201.753 185.16V183.16ZM169.353 145.96H171.353V41.8H169.353H167.353V145.96H169.353ZM169.353 41.8H171.353C171.353 28.5726 173.959 18.9228 178.859 12.5376L177.273 11.32L175.686 10.1024C170.026 17.4772 167.353 28.1474 167.353 41.8H169.353ZM177.273 11.32L178.873 12.52C183.648 6.15248 191.576 2.75999 203.193 2.75999V0.759989V-1.24001C190.809 -1.24001 181.457 2.4075 175.673 10.12L177.273 11.32ZM203.193 0.759989V2.75999H208.233V0.759989V-1.24001H203.193V0.759989ZM208.233 0.759989V2.75999C219.858 2.75999 227.587 6.15518 232.038 12.4719L233.673 11.32L235.307 10.1681C229.838 2.4048 220.607 -1.24001 208.233 -1.24001V0.759989ZM233.673 11.32L232.038 12.4719C236.668 19.0437 239.113 28.5761 239.113 41.32H241.113H243.113C243.113 28.1438 240.597 17.6763 235.307 10.1681L233.673 11.32ZM213.513 144.04H215.513V40.36H213.513H211.513V144.04H213.513ZM213.513 40.36H215.513C215.513 35.5108 214.89 31.6211 213.257 29.1706L211.593 30.28L209.928 31.3894C210.855 32.7789 211.513 35.6092 211.513 40.36H213.513ZM211.593 30.28L213.353 29.3318C211.763 26.3774 208.749 25.16 205.113 25.16V27.16V29.16C207.876 29.16 209.182 30.0226 209.832 31.2282L211.593 30.28ZM205.113 27.16V25.16C201.574 25.16 198.665 26.4107 196.929 29.2318L198.633 30.28L200.336 31.3282C201.16 29.9893 202.571 29.16 205.113 29.16V27.16ZM198.633 30.28L196.872 29.3318C195.505 31.869 194.953 35.6503 194.953 40.36H196.953H198.953C198.953 35.7897 199.52 32.851 200.393 31.2282L198.633 30.28ZM196.953 40.36H194.953V144.04H196.953H198.953V40.36H196.953ZM196.953 144.04H194.953C194.953 148.197 195.627 151.662 197.263 154.142C198.996 156.767 201.641 158.04 204.873 158.04V156.04V154.04C202.824 154.04 201.509 153.313 200.602 151.938C199.598 150.418 198.953 147.883 198.953 144.04H196.953ZM204.873 156.04V158.04C208.272 158.04 211.093 156.824 212.976 154.209C214.771 151.715 215.513 148.22 215.513 144.04H213.513H211.513C211.513 147.86 210.814 150.365 209.729 151.871C208.732 153.256 207.233 154.04 204.873 154.04V156.04ZM266.269 44.2H268.269V42.2H266.269V44.2ZM248.029 44.2H246.029V46.2H248.029V44.2ZM248.029 22.12L247.91 20.1236L246.029 20.2364V22.12H248.029ZM264.829 17.32L263.571 15.7655L263.552 15.7806L263.534 15.7961L264.829 17.32ZM271.789 2.44V0.439996H270.114L269.82 2.08993L271.789 2.44ZM293.629 2.44H295.629V0.439996H293.629V2.44ZM293.629 181V183H295.629V181H293.629ZM266.269 181H264.269V183H266.269V181ZM266.269 44.2V42.2H248.029V44.2V46.2H266.269V44.2ZM248.029 44.2H250.029V22.12H248.029H246.029V44.2H248.029ZM248.029 22.12L248.149 24.1164C256.245 23.6306 262.407 22.0041 266.125 18.8439L264.829 17.32L263.534 15.7961C260.852 18.0759 255.813 19.6494 247.91 20.1236L248.029 22.12ZM264.829 17.32L266.088 18.8745C270.006 15.7026 272.448 10.1622 273.759 2.79006L271.789 2.44L269.82 2.08993C268.571 9.11778 266.373 13.4974 263.571 15.7655L264.829 17.32ZM271.789 2.44V4.44H293.629V2.44V0.439996H271.789V2.44ZM293.629 2.44H291.629V181H293.629H295.629V2.44H293.629ZM293.629 181V179H266.269V181V183H293.629V181ZM266.269 181H268.269V44.2H266.269H264.269V181H266.269ZM328.821 150.28H330.821V148.28H328.821V150.28ZM328.821 181V183H330.821V181H328.821ZM303.621 181H301.621V183H303.621V181ZM303.621 150.28V148.28H301.621V150.28H303.621ZM328.821 150.28H326.821V181H328.821H330.821V150.28H328.821ZM328.821 181V179H303.621V181V183H328.821V181ZM303.621 181H305.621V150.28H303.621H301.621V181H303.621ZM303.621 150.28V152.28H328.821V150.28V148.28H303.621V150.28ZM367.338 66.52V68.52H369.338V66.52H367.338ZM341.418 66.52H339.418V68.52H341.418V66.52ZM348.378 10.12L349.982 11.3134L349.982 11.3134L348.378 10.12ZM406.938 69.16L408.859 69.7161L408.862 69.7029L406.938 69.16ZM393.738 94.36L395.402 95.4694L395.409 95.4579L393.738 94.36ZM376.458 118.84L374.83 117.678L374.823 117.687L374.817 117.696L376.458 118.84ZM362.298 141.88L360.462 141.085L360.451 141.111L360.441 141.137L362.298 141.88ZM359.418 155.56H357.418V157.56H359.418V155.56ZM383.418 155.56V157.56H385.418V155.56H383.418ZM383.418 121.24V119.24H381.418V121.24H383.418ZM410.778 121.24H412.778V119.24H410.778V121.24ZM410.778 181V183H412.778V181H410.778ZM336.858 181H334.858V183H336.858V181ZM340.698 137.56L338.793 136.949L338.789 136.96L338.786 136.972L340.698 137.56ZM357.738 102.52L359.467 103.524L359.473 103.514L359.479 103.504L357.738 102.52ZM373.338 74.92L375.079 75.9041L375.082 75.8977L375.086 75.8913L373.338 74.92ZM378.618 63.64L376.749 62.928L376.739 62.9535L376.73 62.9793L378.618 63.64ZM380.778 55.96L382.769 56.1411L382.77 56.1336L382.771 56.1261L380.778 55.96ZM374.058 26.68V24.68C371.17 24.68 368.6 25.5002 367.113 27.7306L368.778 28.84L370.442 29.9494C370.875 29.2998 371.825 28.68 374.058 28.68V26.68ZM368.778 28.84L367.113 27.7306C365.809 29.687 365.338 32.5968 365.338 36.04H367.338H369.338C369.338 32.7632 369.826 30.873 370.442 29.9494L368.778 28.84ZM367.338 36.04H365.338V66.52H367.338H369.338V36.04H367.338ZM367.338 66.52V64.52H341.418V66.52V68.52H367.338V66.52ZM341.418 66.52H343.418V33.88H341.418H339.418V66.52H341.418ZM341.418 33.88H343.418C343.418 24.6072 345.654 17.1342 349.982 11.3134L348.378 10.12L346.773 8.92659C341.821 15.5858 339.418 23.9527 339.418 33.88H341.418ZM348.378 10.12L349.982 11.3134C354.125 5.74169 360.938 2.75999 370.938 2.75999V0.759989V-1.24001C360.137 -1.24001 351.91 2.01829 346.773 8.92659L348.378 10.12ZM370.938 0.759989V2.75999H376.458V0.759989V-1.24001H370.938V0.759989ZM376.458 0.759989V2.75999C387.189 2.75999 394.871 5.44156 399.883 10.4542C404.896 15.4668 407.578 23.1483 407.578 33.88H409.578H411.578C411.578 22.5317 408.739 13.6531 402.712 7.62578C396.684 1.59842 387.806 -1.24001 376.458 -1.24001V0.759989ZM409.578 33.88H407.578V42.76H409.578H411.578V33.88H409.578ZM409.578 42.76H407.578C407.578 54.052 406.699 62.6383 405.013 68.6171L406.938 69.16L408.862 69.7029C410.696 63.2017 411.578 54.188 411.578 42.76H409.578ZM406.938 69.16L405.016 68.6039C403.344 74.382 399.084 82.5746 392.066 93.2621L393.738 94.36L395.409 95.4579C402.471 84.7054 407.011 76.098 408.859 69.7161L406.938 69.16ZM393.738 94.36L392.073 93.2506C390.176 96.097 384.439 104.225 374.83 117.678L376.458 118.84L378.085 120.002C387.676 106.575 393.459 98.383 395.402 95.4694L393.738 94.36ZM376.458 118.84L374.817 117.696C367.459 128.253 362.631 136.08 360.462 141.085L362.298 141.88L364.133 142.675C366.124 138.08 370.736 130.547 378.098 119.984L376.458 118.84ZM362.298 141.88L360.441 141.137C358.444 146.128 357.418 150.941 357.418 155.56H359.418H361.418C361.418 151.539 362.311 147.232 364.154 142.623L362.298 141.88ZM359.418 155.56V157.56H383.418V155.56V153.56H359.418V155.56ZM383.418 155.56H385.418V121.24H383.418H381.418V155.56H383.418ZM383.418 121.24V123.24H410.778V121.24V119.24H383.418V121.24ZM410.778 121.24H408.778V181H410.778H412.778V121.24H410.778ZM410.778 181V179H336.858V181V183H410.778V181ZM336.858 181H338.858V167.56H336.858H334.858V181H336.858ZM336.858 167.56H338.858C338.858 156.016 340.124 146.225 342.609 138.148L340.698 137.56L338.786 136.972C336.151 145.535 334.858 155.744 334.858 167.56H336.858ZM340.698 137.56L342.602 138.171C345.254 129.902 350.846 118.372 359.467 103.524L357.738 102.52L356.008 101.516C347.349 116.428 341.581 128.258 338.793 136.949L340.698 137.56ZM357.738 102.52L359.479 103.504L375.079 75.9041L373.338 74.92L371.596 73.9359L355.996 101.536L357.738 102.52ZM373.338 74.92L375.086 75.8913C377.518 71.5126 379.335 67.6444 380.505 64.3007L378.618 63.64L376.73 62.9793C375.66 66.0356 373.957 69.6874 371.589 73.9487L373.338 74.92ZM378.618 63.64L380.486 64.352C381.779 60.9593 382.583 58.187 382.769 56.1411L380.778 55.96L378.786 55.7789C378.652 57.253 378.016 59.6007 376.749 62.928L378.618 63.64ZM380.778 55.96L382.771 56.1261C382.938 54.1217 383.018 51.2553 383.018 47.56H381.018H379.018C379.018 51.2247 378.937 53.9583 378.784 55.7939L380.778 55.96ZM381.018 47.56H383.018V36.04H381.018H379.018V47.56H381.018ZM381.018 36.04H383.018C383.018 32.7303 382.413 29.8843 380.882 27.8266C379.27 25.6577 376.872 24.68 374.058 24.68V26.68V28.68C375.883 28.68 376.965 29.2622 377.673 30.2134C378.462 31.2757 379.018 33.1096 379.018 36.04H381.018ZM482.076 172.84L480.56 171.536L480.551 171.546L480.543 171.556L482.076 172.84ZM427.116 11.32L428.703 12.5376L428.71 12.5289L428.716 12.52L427.116 11.32ZM483.516 11.32L481.881 12.4719L481.881 12.4719L483.516 11.32ZM461.436 30.28L459.675 31.2282L459.72 31.3111L459.772 31.3894L461.436 30.28ZM448.476 30.28L446.773 29.2318L446.743 29.281L446.715 29.3318L448.476 30.28ZM490.956 41.32H488.956V145.96H490.956H492.956V41.32H490.956ZM490.956 145.96H488.956C488.956 156.629 486.104 165.093 480.56 171.536L482.076 172.84L483.592 174.144C489.888 166.827 492.956 157.371 492.956 145.96H490.956ZM482.076 172.84L480.543 171.556C475.231 177.9 467.68 181.16 457.596 181.16V183.16V185.16C468.632 185.16 477.401 181.54 483.61 174.124L482.076 172.84ZM457.596 183.16V181.16H451.596V183.16V185.16H457.596V183.16ZM451.596 183.16V181.16C441.182 181.16 433.714 178.184 428.804 172.546C423.849 166.857 421.196 158.114 421.196 145.96H419.196H417.196C417.196 158.606 419.944 168.463 425.788 175.174C431.678 181.936 440.411 185.16 451.596 185.16V183.16ZM419.196 145.96H421.196V41.8H419.196H417.196V145.96H419.196ZM419.196 41.8H421.196C421.196 28.5726 423.803 18.9228 428.703 12.5376L427.116 11.32L425.53 10.1024C419.87 17.4772 417.196 28.1474 417.196 41.8H419.196ZM427.116 11.32L428.716 12.52C433.492 6.15248 441.42 2.75999 453.036 2.75999V0.759989V-1.24001C440.653 -1.24001 431.301 2.4075 425.516 10.12L427.116 11.32ZM453.036 0.759989V2.75999H458.076V0.759989V-1.24001H453.036V0.759989ZM458.076 0.759989V2.75999C469.702 2.75999 477.431 6.15518 481.881 12.4719L483.516 11.32L485.151 10.1681C479.682 2.4048 470.451 -1.24001 458.076 -1.24001V0.759989ZM483.516 11.32L481.881 12.4719C486.511 19.0437 488.956 28.5761 488.956 41.32H490.956H492.956C492.956 28.1438 490.441 17.6763 485.151 10.1681L483.516 11.32ZM463.356 144.04H465.356V40.36H463.356H461.356V144.04H463.356ZM463.356 40.36H465.356C465.356 35.5108 464.734 31.6211 463.1 29.1706L461.436 30.28L459.772 31.3894C460.698 32.7789 461.356 35.6092 461.356 40.36H463.356ZM461.436 30.28L463.197 29.3318C461.606 26.3774 458.593 25.16 454.956 25.16V27.16V29.16C457.72 29.16 459.026 30.0226 459.675 31.2282L461.436 30.28ZM454.956 27.16V25.16C451.418 25.16 448.509 26.4107 446.773 29.2318L448.476 30.28L450.18 31.3282C451.004 29.9893 452.415 29.16 454.956 29.16V27.16ZM448.476 30.28L446.715 29.3318C445.349 31.869 444.796 35.6503 444.796 40.36H446.796H448.796C448.796 35.7897 449.363 32.851 450.237 31.2282L448.476 30.28ZM446.796 40.36H444.796V144.04H446.796H448.796V40.36H446.796ZM446.796 144.04H444.796C444.796 148.197 445.471 151.662 447.107 154.142C448.84 156.767 451.485 158.04 454.716 158.04V156.04V154.04C452.668 154.04 451.353 153.313 450.445 151.938C449.442 150.418 448.796 147.883 448.796 144.04H446.796ZM454.716 156.04V158.04C458.116 158.04 460.937 156.824 462.819 154.209C464.615 151.715 465.356 148.22 465.356 144.04H463.356H461.356C461.356 147.86 460.658 150.365 459.573 151.871C458.576 153.256 457.077 154.04 454.716 154.04V156.04ZM527.65 66.52V68.52H529.65V66.52H527.65ZM501.73 66.52H499.73V68.52H501.73V66.52ZM508.69 10.12L510.295 11.3134L510.295 11.3134L508.69 10.12ZM567.25 69.16L569.171 69.7161L569.175 69.7029L567.25 69.16ZM554.05 94.36L555.714 95.4694L555.722 95.4579L554.05 94.36ZM536.77 118.84L535.143 117.678L535.136 117.687L535.129 117.696L536.77 118.84ZM522.61 141.88L520.775 141.085L520.764 141.111L520.753 141.137L522.61 141.88ZM519.73 155.56H517.73V157.56H519.73V155.56ZM543.73 155.56V157.56H545.73V155.56H543.73ZM543.73 121.24V119.24H541.73V121.24H543.73ZM571.09 121.24H573.09V119.24H571.09V121.24ZM571.09 181V183H573.09V181H571.09ZM497.17 181H495.17V183H497.17V181ZM501.01 137.56L499.106 136.949L499.102 136.96L499.098 136.972L501.01 137.56ZM518.05 102.52L519.78 103.524L519.785 103.514L519.791 103.504L518.05 102.52ZM533.65 74.92L535.391 75.9041L535.395 75.8977L535.398 75.8913L533.65 74.92ZM538.93 63.64L537.061 62.928L537.051 62.9535L537.042 62.9793L538.93 63.64ZM541.09 55.96L543.082 56.1411L543.082 56.1336L543.083 56.1261L541.09 55.96ZM534.37 26.68V24.68C531.483 24.68 528.913 25.5002 527.426 27.7306L529.09 28.84L530.754 29.9494C531.187 29.2998 532.137 28.68 534.37 28.68V26.68ZM529.09 28.84L527.426 27.7306C526.122 29.687 525.65 32.5968 525.65 36.04H527.65H529.65C529.65 32.7632 530.138 30.873 530.754 29.9494L529.09 28.84ZM527.65 36.04H525.65V66.52H527.65H529.65V36.04H527.65ZM527.65 66.52V64.52H501.73V66.52V68.52H527.65V66.52ZM501.73 66.52H503.73V33.88H501.73H499.73V66.52H501.73ZM501.73 33.88H503.73C503.73 24.6072 505.967 17.1342 510.295 11.3134L508.69 10.12L507.085 8.92659C502.133 15.5858 499.73 23.9527 499.73 33.88H501.73ZM508.69 10.12L510.295 11.3134C514.438 5.74169 521.251 2.75999 531.25 2.75999V0.759989V-1.24001C520.449 -1.24001 512.222 2.01829 507.085 8.92659L508.69 10.12ZM531.25 0.759989V2.75999H536.77V0.759989V-1.24001H531.25V0.759989ZM536.77 0.759989V2.75999C547.502 2.75999 555.183 5.44156 560.196 10.4542C565.208 15.4668 567.89 23.1483 567.89 33.88H569.89H571.89C571.89 22.5317 569.052 13.6531 563.024 7.62578C556.997 1.59842 548.118 -1.24001 536.77 -1.24001V0.759989ZM569.89 33.88H567.89V42.76H569.89H571.89V33.88H569.89ZM569.89 42.76H567.89C567.89 54.052 567.011 62.6383 565.325 68.6171L567.25 69.16L569.175 69.7029C571.009 63.2017 571.89 54.188 571.89 42.76H569.89ZM567.25 69.16L565.329 68.6039C563.656 74.382 559.397 82.5746 552.378 93.2621L554.05 94.36L555.722 95.4579C562.783 84.7054 567.324 76.098 569.171 69.7161L567.25 69.16ZM554.05 94.36L552.386 93.2506C550.488 96.097 544.752 104.225 535.143 117.678L536.77 118.84L538.397 120.002C547.988 106.575 553.772 98.383 555.714 95.4694L554.05 94.36ZM536.77 118.84L535.129 117.696C527.771 128.253 522.943 136.08 520.775 141.085L522.61 141.88L524.445 142.675C526.437 138.08 531.049 130.547 538.411 119.984L536.77 118.84ZM522.61 141.88L520.753 141.137C518.757 146.128 517.73 150.941 517.73 155.56H519.73H521.73C521.73 151.539 522.623 147.232 524.467 142.623L522.61 141.88ZM519.73 155.56V157.56H543.73V155.56V153.56H519.73V155.56ZM543.73 155.56H545.73V121.24H543.73H541.73V155.56H543.73ZM543.73 121.24V123.24H571.09V121.24V119.24H543.73V121.24ZM571.09 121.24H569.09V181H571.09H573.09V121.24H571.09ZM571.09 181V179H497.17V181V183H571.09V181ZM497.17 181H499.17V167.56H497.17H495.17V181H497.17ZM497.17 167.56H499.17C499.17 156.016 500.436 146.225 502.922 138.148L501.01 137.56L499.098 136.972C496.464 145.535 495.17 155.744 495.17 167.56H497.17ZM501.01 137.56L502.914 138.171C505.567 129.902 511.158 118.372 519.78 103.524L518.05 102.52L516.32 101.516C507.662 116.428 501.893 128.258 499.106 136.949L501.01 137.56ZM518.05 102.52L519.791 103.504L535.391 75.9041L533.65 74.92L531.909 73.9359L516.309 101.536L518.05 102.52ZM533.65 74.92L535.398 75.8913C537.831 71.5126 539.647 67.6444 540.818 64.3007L538.93 63.64L537.042 62.9793C535.973 66.0356 534.269 69.6874 531.902 73.9487L533.65 74.92ZM538.93 63.64L540.799 64.352C542.091 60.9593 542.896 58.187 543.082 56.1411L541.09 55.96L539.098 55.7789C538.964 57.253 538.329 59.6007 537.061 62.928L538.93 63.64ZM541.09 55.96L543.083 56.1261C543.25 54.1217 543.33 51.2553 543.33 47.56H541.33H539.33C539.33 51.2247 539.25 53.9583 539.097 55.7939L541.09 55.96ZM541.33 47.56H543.33V36.04H541.33H539.33V47.56H541.33ZM541.33 36.04H543.33C543.33 32.7303 542.725 29.8843 541.195 27.8266C539.582 25.6577 537.184 24.68 534.37 24.68V26.68V28.68C536.196 28.68 537.278 29.2622 537.985 30.2134C538.775 31.2757 539.33 33.1096 539.33 36.04H541.33ZM607.349 101.08V103.08H609.349V101.08H607.349ZM580.709 101.08H578.709V103.08H580.709V101.08ZM580.709 2.44V0.439996H578.709V2.44H580.709ZM647.429 2.44H649.429V0.439996H647.429V2.44ZM647.429 29.32V31.32H649.429V29.32H647.429ZM607.349 29.32V27.32H605.349V29.32H607.349ZM607.349 69.4H605.349L609.142 70.2846L607.349 69.4ZM644.549 58.12L642.934 59.3L642.945 59.3152L642.956 59.3302L644.549 58.12ZM640.949 173.56L642.473 174.855L642.481 174.846L642.488 174.837L640.949 173.56ZM585.509 174.04L583.924 175.259L583.941 175.282L583.959 175.304L585.509 174.04ZM578.309 115.72V113.72H576.309V115.72H578.309ZM606.149 115.72H608.149V113.72H606.149V115.72ZM607.349 101.08V99.08H580.709V101.08V103.08H607.349V101.08ZM580.709 101.08H582.709V2.44H580.709H578.709V101.08H580.709ZM580.709 2.44V4.44H647.429V2.44V0.439996H580.709V2.44ZM647.429 2.44H645.429V29.32H647.429H649.429V2.44H647.429ZM647.429 29.32V27.32H607.349V29.32V31.32H647.429V29.32ZM607.349 29.32H605.349V69.4H607.349H609.349V29.32H607.349ZM607.349 69.4L609.142 70.2846C614.748 58.9186 621.489 53.88 629.189 53.88V51.88V49.88C619.288 49.88 611.47 56.5213 605.555 68.5154L607.349 69.4ZM629.189 51.88V53.88H630.149V51.88V49.88H629.189V51.88ZM630.149 51.88V53.88C636.264 53.88 640.372 55.7936 642.934 59.3L644.549 58.12L646.164 56.94C642.646 52.1264 637.154 49.88 630.149 49.88V51.88ZM644.549 58.12L642.956 59.3302C645.687 62.9229 647.109 67.4364 647.109 73H649.109H651.109C651.109 66.7236 649.491 61.3171 646.141 56.9098L644.549 58.12ZM649.109 73H647.109V149.56H649.109H651.109V73H649.109ZM649.109 149.56H647.109C647.109 158.587 644.519 166.121 639.409 172.283L640.949 173.56L642.488 174.837C648.258 167.879 651.109 159.413 651.109 149.56H649.109ZM640.949 173.56L639.425 172.265C634.471 178.093 626.948 181.16 616.469 181.16V183.16V185.16C627.75 185.16 636.547 181.827 642.473 174.855L640.949 173.56ZM616.469 183.16V181.16H611.429V183.16V185.16H616.469V183.16ZM611.429 183.16V181.16C599.366 181.16 591.465 178.177 587.058 172.776L585.509 174.04L583.959 175.304C589.473 182.063 598.851 185.16 611.429 185.16V183.16ZM585.509 174.04L587.094 172.821C582.573 166.944 580.309 160.176 580.309 152.44H578.309H576.309C576.309 161.024 578.844 168.656 583.924 175.259L585.509 174.04ZM578.309 152.44H580.309V115.72H578.309H576.309V152.44H578.309ZM578.309 115.72V117.72H606.149V115.72V113.72H578.309V115.72ZM606.149 115.72H604.149V147.16H606.149H608.149V115.72H606.149ZM606.149 147.16H604.149C604.149 150.771 604.767 153.836 606.308 156.044C607.941 158.384 610.404 159.48 613.349 159.48V157.48V155.48C611.493 155.48 610.357 154.856 609.589 153.756C608.73 152.524 608.149 150.429 608.149 147.16H606.149ZM613.349 157.48V159.48C616.192 159.48 618.537 158.337 620.065 155.991C621.495 153.794 622.069 150.753 622.069 147.16H620.069H618.069C618.069 150.447 617.522 152.566 616.713 153.809C616 154.903 614.986 155.48 613.349 155.48V157.48ZM620.069 147.16H622.069V90.28H620.069H618.069V147.16H620.069ZM620.069 90.28H622.069C622.069 86.6284 621.541 83.56 620.231 81.3425C618.823 78.9606 616.601 77.72 613.829 77.72V79.72V81.72C615.217 81.72 616.114 82.2394 616.787 83.3775C617.557 84.68 618.069 86.8915 618.069 90.28H620.069ZM613.829 79.72V77.72C611.012 77.72 608.728 78.9288 607.264 81.314C605.898 83.5394 605.349 86.6205 605.349 90.28H607.349H609.349C609.349 86.8995 609.879 84.7006 610.673 83.406C611.37 82.2712 612.325 81.72 613.829 81.72V79.72ZM607.349 90.28H605.349V101.08H607.349H609.349V90.28H607.349Z" fill="#AA8865" mask="url(#path-1-inside-1_1960_5267)"/>
</svg>
