<svg width="1164" height="183" viewBox="0 0 1164 183" fill="none" xmlns="http://www.w3.org/2000/svg">
<mask id="path-1-outside-1_1960_5013" maskUnits="userSpaceOnUse" x="0" y="0" width="1164" height="183" fill="black">
<rect fill="white" width="1164" height="183"/>
<path d="M2 159.12V4.08382H63.3894V159.12H39.8742V26.5891H25.5153V159.12H2Z"/>
<path d="M72.5279 4.08382H126.01V26.5891H96.0432V67.2235H119.558V90.7707H96.0432V135.573H127.258V159.12H72.5279V4.08382Z"/>
<path d="M170.541 94.7299H156.807V159.12H133.291V4.08382H170.541C179.004 4.08382 185.108 6.09817 188.854 10.1269C192.739 14.0167 194.681 20.546 194.681 29.7148V66.39C194.681 85.2833 186.634 94.7299 170.541 94.7299ZM156.807 25.1304V72.4331H162.842C166.171 72.4331 168.322 71.5301 169.293 69.7241C170.403 67.7792 170.957 64.9313 170.957 61.1804V35.7579C170.957 32.2848 170.403 29.6453 169.293 27.8393C168.183 26.0334 166.032 25.1304 162.842 25.1304H156.807Z"/>
<path d="M201.777 159.12V4.08382H238.819C247.976 4.08382 254.357 6.23709 257.964 10.5436C261.71 14.8502 263.583 21.1017 263.583 29.298V53.0536C263.583 64.4451 259.698 71.5995 251.929 74.5169C260.947 77.9899 265.456 85.5611 265.456 97.2305V130.78C265.456 139.532 263.375 146.478 259.213 151.618C255.19 156.619 248.947 159.12 240.484 159.12H201.777ZM232.368 88.4785H225.293V137.24H232.368C235.975 137.24 238.403 136.406 239.652 134.739C240.9 133.072 241.524 130.433 241.524 126.821V98.4808C241.524 95.0078 240.9 92.5072 239.652 90.979C238.403 89.312 235.975 88.4785 232.368 88.4785ZM232.368 25.1304H225.293V65.3481H232.368C237.779 65.3481 240.484 61.7361 240.484 54.5122V34.9243C240.484 31.4513 239.86 28.9507 238.611 27.4226C237.501 25.8944 235.42 25.1304 232.368 25.1304Z"/>
<path d="M312.033 159.12L308.911 129.946H291.639L288.726 159.12H267.708L286.645 4.08382H314.53L334.716 159.12H312.033ZM300.171 49.5111L294.136 106.816H306.414L300.171 49.5111Z"/>
<path d="M377.62 94.1048H374.915L357.642 159.12H333.503L352.232 89.9371C343.63 87.1587 339.33 80.9073 339.33 71.1828V28.0477C339.33 19.4346 341.272 13.3221 345.156 9.71013C349.041 5.95925 355.007 4.08382 363.053 4.08382H401.135V159.12H377.62V94.1048ZM377.62 71.5995V25.1304H371.377C367.909 25.1304 365.62 25.8944 364.51 27.4226C363.4 28.9507 362.845 31.5208 362.845 35.1327V60.5553C362.845 67.9181 365.689 71.5995 371.377 71.5995H377.62Z"/>
<path d="M466.796 2H490.311V15.9616H490.935C503.837 15.9616 513.133 18.8789 518.821 24.7136C524.509 30.4094 527.353 39.6476 527.353 52.4284V104.941C527.353 117.582 524.439 126.821 518.612 132.655C512.924 138.351 503.629 141.199 490.727 141.199H490.311V161.204H466.796V141.199H466.379C453.477 141.199 444.113 138.282 438.286 132.447C432.598 126.612 429.754 117.374 429.754 104.732V52.4284C429.754 39.5087 432.598 30.201 438.286 24.5052C443.974 18.8095 453.269 15.9616 466.171 15.9616H466.796V2ZM466.796 36.5914H466.171C461.316 36.5914 457.986 37.9806 456.183 40.759C454.518 43.3985 453.685 47.3578 453.685 52.6368V100.356C453.685 107.58 454.518 112.79 456.183 115.985C457.847 119.041 461.177 120.569 466.171 120.569H466.796V36.5914ZM490.311 36.5914V120.569H491.143C496.138 120.569 499.398 119.041 500.924 115.985C502.589 112.79 503.421 107.58 503.421 100.356V52.6368C503.421 47.3578 502.52 43.3985 500.716 40.759C499.051 37.9806 495.86 36.5914 491.143 36.5914H490.311Z"/>
<path d="M575.221 159.12V75.142L558.364 159.12H534.849V4.08382H558.364V88.0617L575.221 4.08382H598.736V159.12H575.221Z"/>
<path d="M650.268 159.12V26.5891H636.534C636.534 82.0186 635.84 118.069 634.453 134.739C633.898 143.075 631.747 149.257 628.001 153.285C624.394 157.175 618.359 159.12 609.897 159.12H604.07V135.156H605.735C608.371 135.156 610.174 134.392 611.145 132.864C612.117 131.336 612.741 128.627 613.018 124.737C613.989 115.429 614.475 75.2115 614.475 4.08382H673.783V159.12H650.268Z"/>
<path d="M706.107 64.0978H719.842C735.935 64.0978 743.981 73.6139 743.981 92.6461V132.03C743.981 141.338 742.039 148.215 738.155 152.66C734.27 156.967 728.166 159.12 719.842 159.12H682.592V4.08382H706.107V64.0978ZM706.107 136.615H712.142C715.333 136.615 717.483 135.712 718.593 133.906C719.703 132.1 720.258 129.46 720.258 125.987V97.8556C720.258 94.1048 719.703 91.3263 718.593 89.5204C717.622 87.5755 715.472 86.603 712.142 86.603H706.107V136.615Z"/>
<path d="M748.581 4.08382H811.427V26.5891H791.657V159.12H768.35V26.5891H748.581V4.08382Z"/>
<path d="M854.588 94.7299H840.853V159.12H817.338V4.08382H854.588C863.051 4.08382 869.155 6.09817 872.901 10.1269C876.785 14.0167 878.728 20.546 878.728 29.7148V66.39C878.728 85.2833 870.681 94.7299 854.588 94.7299ZM840.853 25.1304V72.4331H846.888C850.218 72.4331 852.368 71.5301 853.339 69.7241C854.449 67.7792 855.004 64.9313 855.004 61.1804V35.7579C855.004 32.2848 854.449 29.6453 853.339 27.8393C852.229 26.0334 850.079 25.1304 846.888 25.1304H840.853Z"/>
<path d="M925.155 159.12L922.033 129.946H904.761L901.848 159.12H880.83L899.767 4.08382H927.652L947.838 159.12H925.155ZM913.293 49.5111L907.258 106.816H919.536L913.293 49.5111Z"/>
<path d="M1001.61 181V159.12H951.252V4.08382H974.767V135.573H989.126V4.08382H1012.64V135.573H1023.05V181H1001.61Z"/>
<path d="M1068.85 159.12V75.142L1051.99 159.12H1028.48V4.08382H1051.99V88.0617L1068.85 4.08382H1092.36V159.12H1068.85Z"/>
<path d="M1138.48 94.1048H1135.78L1118.51 159.12H1094.37L1113.1 89.9371C1104.5 87.1587 1100.19 80.9073 1100.19 71.1828V28.0477C1100.19 19.4346 1102.14 13.3221 1106.02 9.71013C1109.91 5.95925 1115.87 4.08382 1123.92 4.08382H1162V159.12H1138.48V94.1048ZM1138.48 71.5995V25.1304H1132.24C1128.77 25.1304 1126.48 25.8944 1125.37 27.4226C1124.26 28.9507 1123.71 31.5208 1123.71 35.1327V60.5553C1123.71 67.9181 1126.55 71.5995 1132.24 71.5995H1138.48Z"/>
</mask>
<path d="M2 159.12V4.08382H63.3894V159.12H39.8742V26.5891H25.5153V159.12H2Z" stroke="#DEBE98" stroke-width="4" mask="url(#path-1-outside-1_1960_5013)"/>
<path d="M72.5279 4.08382H126.01V26.5891H96.0432V67.2235H119.558V90.7707H96.0432V135.573H127.258V159.12H72.5279V4.08382Z" stroke="#DEBE98" stroke-width="4" mask="url(#path-1-outside-1_1960_5013)"/>
<path d="M170.541 94.7299H156.807V159.12H133.291V4.08382H170.541C179.004 4.08382 185.108 6.09817 188.854 10.1269C192.739 14.0167 194.681 20.546 194.681 29.7148V66.39C194.681 85.2833 186.634 94.7299 170.541 94.7299ZM156.807 25.1304V72.4331H162.842C166.171 72.4331 168.322 71.5301 169.293 69.7241C170.403 67.7792 170.957 64.9313 170.957 61.1804V35.7579C170.957 32.2848 170.403 29.6453 169.293 27.8393C168.183 26.0334 166.032 25.1304 162.842 25.1304H156.807Z" stroke="#DEBE98" stroke-width="4" mask="url(#path-1-outside-1_1960_5013)"/>
<path d="M201.777 159.12V4.08382H238.819C247.976 4.08382 254.357 6.23709 257.964 10.5436C261.71 14.8502 263.583 21.1017 263.583 29.298V53.0536C263.583 64.4451 259.698 71.5995 251.929 74.5169C260.947 77.9899 265.456 85.5611 265.456 97.2305V130.78C265.456 139.532 263.375 146.478 259.213 151.618C255.19 156.619 248.947 159.12 240.484 159.12H201.777ZM232.368 88.4785H225.293V137.24H232.368C235.975 137.24 238.403 136.406 239.652 134.739C240.9 133.072 241.524 130.433 241.524 126.821V98.4808C241.524 95.0078 240.9 92.5072 239.652 90.979C238.403 89.312 235.975 88.4785 232.368 88.4785ZM232.368 25.1304H225.293V65.3481H232.368C237.779 65.3481 240.484 61.7361 240.484 54.5122V34.9243C240.484 31.4513 239.86 28.9507 238.611 27.4226C237.501 25.8944 235.42 25.1304 232.368 25.1304Z" stroke="#DEBE98" stroke-width="4" mask="url(#path-1-outside-1_1960_5013)"/>
<path d="M312.033 159.12L308.911 129.946H291.639L288.726 159.12H267.708L286.645 4.08382H314.53L334.716 159.12H312.033ZM300.171 49.5111L294.136 106.816H306.414L300.171 49.5111Z" stroke="#DEBE98" stroke-width="4" mask="url(#path-1-outside-1_1960_5013)"/>
<path d="M377.62 94.1048H374.915L357.642 159.12H333.503L352.232 89.9371C343.63 87.1587 339.33 80.9073 339.33 71.1828V28.0477C339.33 19.4346 341.272 13.3221 345.156 9.71013C349.041 5.95925 355.007 4.08382 363.053 4.08382H401.135V159.12H377.62V94.1048ZM377.62 71.5995V25.1304H371.377C367.909 25.1304 365.62 25.8944 364.51 27.4226C363.4 28.9507 362.845 31.5208 362.845 35.1327V60.5553C362.845 67.9181 365.689 71.5995 371.377 71.5995H377.62Z" stroke="#DEBE98" stroke-width="4" mask="url(#path-1-outside-1_1960_5013)"/>
<path d="M466.796 2H490.311V15.9616H490.935C503.837 15.9616 513.133 18.8789 518.821 24.7136C524.509 30.4094 527.353 39.6476 527.353 52.4284V104.941C527.353 117.582 524.439 126.821 518.612 132.655C512.924 138.351 503.629 141.199 490.727 141.199H490.311V161.204H466.796V141.199H466.379C453.477 141.199 444.113 138.282 438.286 132.447C432.598 126.612 429.754 117.374 429.754 104.732V52.4284C429.754 39.5087 432.598 30.201 438.286 24.5052C443.974 18.8095 453.269 15.9616 466.171 15.9616H466.796V2ZM466.796 36.5914H466.171C461.316 36.5914 457.986 37.9806 456.183 40.759C454.518 43.3985 453.685 47.3578 453.685 52.6368V100.356C453.685 107.58 454.518 112.79 456.183 115.985C457.847 119.041 461.177 120.569 466.171 120.569H466.796V36.5914ZM490.311 36.5914V120.569H491.143C496.138 120.569 499.398 119.041 500.924 115.985C502.589 112.79 503.421 107.58 503.421 100.356V52.6368C503.421 47.3578 502.52 43.3985 500.716 40.759C499.051 37.9806 495.86 36.5914 491.143 36.5914H490.311Z" stroke="#DEBE98" stroke-width="4" mask="url(#path-1-outside-1_1960_5013)"/>
<path d="M575.221 159.12V75.142L558.364 159.12H534.849V4.08382H558.364V88.0617L575.221 4.08382H598.736V159.12H575.221Z" stroke="#DEBE98" stroke-width="4" mask="url(#path-1-outside-1_1960_5013)"/>
<path d="M650.268 159.12V26.5891H636.534C636.534 82.0186 635.84 118.069 634.453 134.739C633.898 143.075 631.747 149.257 628.001 153.285C624.394 157.175 618.359 159.12 609.897 159.12H604.07V135.156H605.735C608.371 135.156 610.174 134.392 611.145 132.864C612.117 131.336 612.741 128.627 613.018 124.737C613.989 115.429 614.475 75.2115 614.475 4.08382H673.783V159.12H650.268Z" stroke="#DEBE98" stroke-width="4" mask="url(#path-1-outside-1_1960_5013)"/>
<path d="M706.107 64.0978H719.842C735.935 64.0978 743.981 73.6139 743.981 92.6461V132.03C743.981 141.338 742.039 148.215 738.155 152.66C734.27 156.967 728.166 159.12 719.842 159.12H682.592V4.08382H706.107V64.0978ZM706.107 136.615H712.142C715.333 136.615 717.483 135.712 718.593 133.906C719.703 132.1 720.258 129.46 720.258 125.987V97.8556C720.258 94.1048 719.703 91.3263 718.593 89.5204C717.622 87.5755 715.472 86.603 712.142 86.603H706.107V136.615Z" stroke="#DEBE98" stroke-width="4" mask="url(#path-1-outside-1_1960_5013)"/>
<path d="M748.581 4.08382H811.427V26.5891H791.657V159.12H768.35V26.5891H748.581V4.08382Z" stroke="#DEBE98" stroke-width="4" mask="url(#path-1-outside-1_1960_5013)"/>
<path d="M854.588 94.7299H840.853V159.12H817.338V4.08382H854.588C863.051 4.08382 869.155 6.09817 872.901 10.1269C876.785 14.0167 878.728 20.546 878.728 29.7148V66.39C878.728 85.2833 870.681 94.7299 854.588 94.7299ZM840.853 25.1304V72.4331H846.888C850.218 72.4331 852.368 71.5301 853.339 69.7241C854.449 67.7792 855.004 64.9313 855.004 61.1804V35.7579C855.004 32.2848 854.449 29.6453 853.339 27.8393C852.229 26.0334 850.079 25.1304 846.888 25.1304H840.853Z" stroke="#DEBE98" stroke-width="4" mask="url(#path-1-outside-1_1960_5013)"/>
<path d="M925.155 159.12L922.033 129.946H904.761L901.848 159.12H880.83L899.767 4.08382H927.652L947.838 159.12H925.155ZM913.293 49.5111L907.258 106.816H919.536L913.293 49.5111Z" stroke="#DEBE98" stroke-width="4" mask="url(#path-1-outside-1_1960_5013)"/>
<path d="M1001.61 181V159.12H951.252V4.08382H974.767V135.573H989.126V4.08382H1012.64V135.573H1023.05V181H1001.61Z" stroke="#DEBE98" stroke-width="4" mask="url(#path-1-outside-1_1960_5013)"/>
<path d="M1068.85 159.12V75.142L1051.99 159.12H1028.48V4.08382H1051.99V88.0617L1068.85 4.08382H1092.36V159.12H1068.85Z" stroke="#DEBE98" stroke-width="4" mask="url(#path-1-outside-1_1960_5013)"/>
<path d="M1138.48 94.1048H1135.78L1118.51 159.12H1094.37L1113.1 89.9371C1104.5 87.1587 1100.19 80.9073 1100.19 71.1828V28.0477C1100.19 19.4346 1102.14 13.3221 1106.02 9.71013C1109.91 5.95925 1115.87 4.08382 1123.92 4.08382H1162V159.12H1138.48V94.1048ZM1138.48 71.5995V25.1304H1132.24C1128.77 25.1304 1126.48 25.8944 1125.37 27.4226C1124.26 28.9507 1123.71 31.5208 1123.71 35.1327V60.5553C1123.71 67.9181 1126.55 71.5995 1132.24 71.5995H1138.48Z" stroke="#DEBE98" stroke-width="4" mask="url(#path-1-outside-1_1960_5013)"/>
</svg>
