<svg width="1182" height="207" viewBox="0 0 1182 207" fill="none" xmlns="http://www.w3.org/2000/svg">
<mask id="path-1-outside-1_3828_1302" maskUnits="userSpaceOnUse" x="2" y="31" width="572" height="176" fill="black">
<rect fill="white" x="2" y="31" width="572" height="176"/>
<path d="M65.8 67.8V150.8C65.8 174.133 56.2 185.8 37 185.8H33.2C13.7333 185.8 4 174.133 4 150.8V68C4 45.2 13.6667 33.8 33 33.8H36.8C47.2 33.8 54.6 36.7333 59 42.6C63.5333 48.4667 65.8 56.8667 65.8 67.8ZM42.8 152.4V66.8C42.8 59.2 40.2 55.4 35 55.4C29.6667 55.4 27 59.2 27 66.8V152.4C27 160 29.7333 163.8 35.2 163.8C40.2667 163.8 42.8 160 42.8 152.4ZM114.458 64.4V88H92.2578V62.8C92.2578 54.1333 94.4578 47.1333 98.8578 41.8C103.258 36.4667 109.724 33.8 118.258 33.8H122.858C132.591 33.8 139.591 36 143.858 40.4C148.124 44.8 150.258 51.4 150.258 60.2V85C150.258 95.1333 146.524 101.733 139.058 104.8C147.724 107.467 152.058 114.733 152.058 126.6V158.4C152.058 166.133 149.858 172.667 145.458 178C141.058 183.2 134.191 185.8 124.858 185.8H118.858C110.591 185.8 104.058 183.2 99.2578 178C94.5911 172.8 92.2578 166.867 92.2578 160.2V127.6H114.458V155.8C114.458 161.133 116.924 163.8 121.858 163.8C126.658 163.8 129.058 161.133 129.058 155.8V125.6C129.058 120.8 126.724 118.4 122.058 118.4H111.858V95.8H122.058C125.524 95.8 127.258 92.2 127.258 85V64.4C127.258 58.4 125.124 55.4 120.858 55.4C116.591 55.4 114.458 58.4 114.458 64.4ZM197.478 184L194.478 156H177.878L175.078 184H154.878L173.078 35.2H199.878L219.278 184H197.478ZM186.078 78.8L180.278 133.8H192.078L186.078 78.8ZM222.959 184V35.2H258.559C267.359 35.2 273.493 37.2667 276.959 41.4C280.559 45.5333 282.359 51.5333 282.359 59.4V82.2C282.359 93.1333 278.626 100 271.159 102.8C279.826 106.133 284.159 113.4 284.159 124.6V156.8C284.159 165.2 282.159 171.867 278.159 176.8C274.293 181.6 268.293 184 260.159 184H222.959ZM252.359 116.2H245.559V163H252.359C255.826 163 258.159 162.2 259.359 160.6C260.559 159 261.159 156.467 261.159 153V125.8C261.159 122.467 260.559 120.067 259.359 118.6C258.159 117 255.826 116.2 252.359 116.2ZM252.359 55.4H245.559V94H252.359C257.559 94 260.159 90.5333 260.159 83.6V64.8C260.159 61.4667 259.559 59.0667 258.359 57.6C257.293 56.1333 255.293 55.4 252.359 55.4ZM352.323 67.8V150.8C352.323 174.133 342.723 185.8 323.523 185.8H319.723C300.257 185.8 290.523 174.133 290.523 150.8V68C290.523 45.2 300.19 33.8 319.523 33.8H323.323C333.723 33.8 341.123 36.7333 345.523 42.6C350.057 48.4667 352.323 56.8667 352.323 67.8ZM329.323 152.4V66.8C329.323 59.2 326.723 55.4 321.523 55.4C316.19 55.4 313.523 59.2 313.523 66.8V152.4C313.523 160 316.257 163.8 321.723 163.8C326.79 163.8 329.323 160 329.323 152.4ZM415.292 205V184H376.092V205H355.492V161.4H360.492C363.026 156.2 364.892 149.933 366.092 142.6C368.092 129.267 369.092 93.4667 369.092 35.2H425.892V161.4H435.892V205H415.292ZM387.292 143.2C386.492 149.733 385.026 155.8 382.892 161.4H403.292V56.8H390.292C390.292 100.267 389.292 129.067 387.292 143.2ZM479.314 184L476.314 156H459.714L456.914 184H436.714L454.914 35.2H481.714L501.114 184H479.314ZM467.914 78.8L462.114 133.8H473.914L467.914 78.8ZM521.548 104.4L504.748 35.2H527.748L537.348 82.2L546.548 35.2H568.548L551.548 104.4L570.748 184H547.348L536.148 130.2L524.748 184H501.948L521.548 104.4Z"/>
</mask>
<path d="M59 42.6L57.4 43.8L57.4086 43.8115L57.4174 43.8229L59 42.6ZM65.8 67.8H63.8V150.8H65.8H67.8V67.8H65.8ZM65.8 150.8H63.8C63.8 162.243 61.4381 170.453 57.0556 175.779C52.7346 181.03 46.1778 183.8 37 183.8V185.8V187.8C47.0222 187.8 54.8654 184.736 60.1444 178.321C65.3619 171.98 67.8 162.69 67.8 150.8H65.8ZM37 185.8V183.8H33.2V185.8V187.8H37V185.8ZM33.2 185.8V183.8C23.8798 183.8 17.2204 181.024 12.8357 175.769C8.3931 170.444 6 162.238 6 150.8H4H2C2 162.696 4.47357 171.99 9.76428 178.331C15.1129 184.742 23.0535 187.8 33.2 187.8V185.8ZM4 150.8H6V68H4H2V150.8H4ZM4 68H6C6 56.8351 8.37379 48.8344 12.7754 43.6435C17.1235 38.5158 23.7359 35.8 33 35.8V33.8V31.8C22.9308 31.8 15.0432 34.7842 9.72458 41.0565C4.45955 47.2656 2 56.3649 2 68H4ZM33 33.8V35.8H36.8V33.8V31.8H33V33.8ZM36.8 33.8V35.8C46.8495 35.8 53.5185 38.6247 57.4 43.8L59 42.6L60.6 41.4C55.6815 34.842 47.5505 31.8 36.8 31.8V33.8ZM59 42.6L57.4174 43.8229C61.5784 49.2076 63.8 57.1075 63.8 67.8H65.8H67.8C67.8 56.6258 65.4883 47.7257 60.5826 41.3771L59 42.6ZM42.8 152.4H44.8V66.8H42.8H40.8V152.4H42.8ZM42.8 66.8H44.8C44.8 62.8342 44.1329 59.5063 42.5006 57.1206C40.775 54.5985 38.1607 53.4 35 53.4V55.4V57.4C37.0393 57.4 38.3251 58.1015 39.1994 59.3794C40.1671 60.7937 40.8 63.1658 40.8 66.8H42.8ZM35 55.4V53.4C31.7935 53.4 29.1306 54.5821 27.3629 57.1011C25.6859 59.4909 25 62.8273 25 66.8H27H29C29 63.1727 29.6474 60.8091 30.6371 59.3988C31.5361 58.1179 32.8732 57.4 35 57.4V55.4ZM27 66.8H25V152.4H27H29V66.8H27ZM27 152.4H25C25 156.38 25.7049 159.725 27.4264 162.118C29.2356 164.633 31.9465 165.8 35.2 165.8V163.8V161.8C32.9868 161.8 31.5978 161.067 30.6736 159.782C29.6618 158.375 29 156.02 29 152.4H27ZM35.2 163.8V165.8C38.3159 165.8 40.8812 164.584 42.5641 162.059C44.1516 159.678 44.8 156.359 44.8 152.4H42.8H40.8C40.8 156.041 40.1817 158.422 39.2359 159.841C38.3855 161.116 37.1507 161.8 35.2 161.8V163.8ZM114.458 88V90H116.458V88H114.458ZM92.2578 88H90.2578V90H92.2578V88ZM143.858 40.4L142.422 41.7923L143.858 40.4ZM139.058 104.8L138.298 102.95L133.135 105.07L138.47 106.712L139.058 104.8ZM145.458 178L146.985 179.292L146.993 179.282L147.001 179.273L145.458 178ZM99.2578 178L97.7693 179.336L97.7787 179.346L97.7882 179.357L99.2578 178ZM92.2578 127.6V125.6H90.2578V127.6H92.2578ZM114.458 127.6H116.458V125.6H114.458V127.6ZM111.858 118.4H109.858V120.4H111.858V118.4ZM111.858 95.8V93.8H109.858V95.8H111.858ZM114.458 64.4H112.458V88H114.458H116.458V64.4H114.458ZM114.458 88V86H92.2578V88V90H114.458V88ZM92.2578 88H94.2578V62.8H92.2578H90.2578V88H92.2578ZM92.2578 62.8H94.2578C94.2578 54.477 96.3649 47.9645 100.401 43.0728L98.8578 41.8L97.3151 40.5272C92.5508 46.3021 90.2578 53.7897 90.2578 62.8H92.2578ZM98.8578 41.8L100.401 43.0728C104.333 38.3063 110.168 35.8 118.258 35.8V33.8V31.8C109.281 31.8 102.183 34.627 97.3151 40.5272L98.8578 41.8ZM118.258 33.8V35.8H122.858V33.8V31.8H118.258V33.8ZM122.858 33.8V35.8C132.359 35.8 138.703 37.9572 142.422 41.7923L143.858 40.4L145.294 39.0077C140.479 34.0428 132.824 31.8 122.858 31.8V33.8ZM143.858 40.4L142.422 41.7923C146.195 45.6831 148.258 51.6931 148.258 60.2H150.258H152.258C152.258 51.1069 150.054 43.9169 145.294 39.0077L143.858 40.4ZM150.258 60.2H148.258V85H150.258H152.258V60.2H150.258ZM150.258 85H148.258C148.258 89.8335 147.366 93.65 145.717 96.5653C144.086 99.4489 141.645 101.575 138.298 102.95L139.058 104.8L139.818 106.65C143.937 104.958 147.096 102.251 149.199 98.5347C151.283 94.85 152.258 90.2998 152.258 85H150.258ZM139.058 104.8L138.47 106.712C142.367 107.911 145.196 110.099 147.09 113.274C149.012 116.498 150.058 120.889 150.058 126.6H152.058H154.058C154.058 120.444 152.937 115.269 150.526 111.226C148.086 107.135 144.416 104.356 139.646 102.888L139.058 104.8ZM152.058 126.6H150.058V158.4H152.058H154.058V126.6H152.058ZM152.058 158.4H150.058C150.058 165.727 147.984 171.795 143.915 176.727L145.458 178L147.001 179.273C151.731 173.538 154.058 166.539 154.058 158.4H152.058ZM145.458 178L143.931 176.708C140.038 181.31 133.832 183.8 124.858 183.8V185.8V187.8C134.551 187.8 142.078 185.09 146.985 179.292L145.458 178ZM124.858 185.8V183.8H118.858V185.8V187.8H124.858V185.8ZM118.858 185.8V183.8C111.047 183.8 105.084 181.363 100.727 176.643L99.2578 178L97.7882 179.357C103.031 185.036 110.136 187.8 118.858 187.8V185.8ZM99.2578 178L100.746 176.664C96.3916 171.812 94.2578 166.348 94.2578 160.2H92.2578H90.2578C90.2578 167.385 92.7906 173.788 97.7693 179.336L99.2578 178ZM92.2578 160.2H94.2578V127.6H92.2578H90.2578V160.2H92.2578ZM92.2578 127.6V129.6H114.458V127.6V125.6H92.2578V127.6ZM114.458 127.6H112.458V155.8H114.458H116.458V127.6H114.458ZM114.458 155.8H112.458C112.458 158.738 113.134 161.314 114.84 163.158C116.572 165.031 119.041 165.8 121.858 165.8V163.8V161.8C119.741 161.8 118.51 161.235 117.776 160.442C117.015 159.619 116.458 158.195 116.458 155.8H114.458ZM121.858 163.8V165.8C124.624 165.8 127.049 165.022 128.744 163.138C130.404 161.294 131.058 158.726 131.058 155.8H129.058H127.058C127.058 158.207 126.512 159.639 125.771 160.462C125.067 161.245 123.892 161.8 121.858 161.8V163.8ZM129.058 155.8H131.058V125.6H129.058H127.058V155.8H129.058ZM129.058 125.6H131.058C131.058 122.906 130.403 120.515 128.742 118.806C127.07 117.086 124.714 116.4 122.058 116.4V118.4V120.4C124.068 120.4 125.212 120.914 125.874 121.594C126.546 122.285 127.058 123.494 127.058 125.6H129.058ZM122.058 118.4V116.4H111.858V118.4V120.4H122.058V118.4ZM111.858 118.4H113.858V95.8H111.858H109.858V118.4H111.858ZM111.858 95.8V97.8H122.058V95.8V93.8H111.858V95.8ZM122.058 95.8V97.8C123.29 97.8 124.455 97.4732 125.471 96.7694C126.472 96.0768 127.215 95.0988 127.76 93.9676C128.823 91.7593 129.258 88.6966 129.258 85H127.258H125.258C125.258 88.5033 124.826 90.8407 124.156 92.2324C123.834 92.9012 123.494 93.2732 123.194 93.4806C122.911 93.6768 122.559 93.8 122.058 93.8V95.8ZM127.258 85H129.258V64.4H127.258H125.258V85H127.258ZM127.258 64.4H129.258C129.258 61.2236 128.704 58.4826 127.288 56.4909C125.782 54.3739 123.52 53.4 120.858 53.4V55.4V57.4C122.462 57.4 123.4 57.9261 124.028 58.809C124.745 59.8173 125.258 61.5764 125.258 64.4H127.258ZM120.858 55.4V53.4C118.195 53.4 115.933 54.3739 114.428 56.4909C113.012 58.4826 112.458 61.2236 112.458 64.4H114.458H116.458C116.458 61.5764 116.971 59.8173 117.688 58.809C118.316 57.9261 119.254 57.4 120.858 57.4V55.4ZM197.478 184L195.49 184.213L195.681 186H197.478V184ZM194.478 156L196.467 155.787L196.275 154H194.478V156ZM177.878 156V154H176.068L175.888 155.801L177.878 156ZM175.078 184V186H176.888L177.068 184.199L175.078 184ZM154.878 184L152.893 183.757L152.619 186H154.878V184ZM173.078 35.2V33.2H171.308L171.093 34.9572L173.078 35.2ZM199.878 35.2L201.861 34.9414L201.634 33.2H199.878V35.2ZM219.278 184V186H221.556L221.261 183.741L219.278 184ZM186.078 78.8L188.066 78.5831L184.089 78.5902L186.078 78.8ZM180.278 133.8L178.289 133.59L178.056 135.8H180.278V133.8ZM192.078 133.8V135.8H194.308L194.066 133.583L192.078 133.8ZM197.478 184L199.467 183.787L196.467 155.787L194.478 156L192.49 156.213L195.49 184.213L197.478 184ZM194.478 156V154H177.878V156V158H194.478V156ZM177.878 156L175.888 155.801L173.088 183.801L175.078 184L177.068 184.199L179.868 156.199L177.878 156ZM175.078 184V182H154.878V184V186H175.078V184ZM154.878 184L156.863 184.243L175.063 35.4428L173.078 35.2L171.093 34.9572L152.893 183.757L154.878 184ZM173.078 35.2V37.2H199.878V35.2V33.2H173.078V35.2ZM199.878 35.2L197.895 35.4586L217.295 184.259L219.278 184L221.261 183.741L201.861 34.9414L199.878 35.2ZM219.278 184V182H197.478V184V186H219.278V184ZM186.078 78.8L184.089 78.5902L178.289 133.59L180.278 133.8L182.267 134.01L188.067 79.0097L186.078 78.8ZM180.278 133.8V135.8H192.078V133.8V131.8H180.278V133.8ZM192.078 133.8L194.066 133.583L188.066 78.5831L186.078 78.8L184.09 79.0169L190.09 134.017L192.078 133.8ZM222.959 184H220.959V186H222.959V184ZM222.959 35.2V33.2H220.959V35.2H222.959ZM276.959 41.4L275.427 42.6852L275.439 42.6995L275.451 42.7136L276.959 41.4ZM271.159 102.8L270.457 100.927L265.526 102.776L270.441 104.667L271.159 102.8ZM278.159 176.8L276.606 175.54L276.602 175.545L278.159 176.8ZM245.559 116.2V114.2H243.559V116.2H245.559ZM245.559 163H243.559V165H245.559V163ZM259.359 118.6L257.759 119.8L257.785 119.834L257.811 119.866L259.359 118.6ZM245.559 55.4V53.4H243.559V55.4H245.559ZM245.559 94H243.559V96H245.559V94ZM258.359 57.6L256.742 58.7763L256.775 58.8224L256.811 58.8665L258.359 57.6ZM222.959 184H224.959V35.2H222.959H220.959V184H222.959ZM222.959 35.2V37.2H258.559V35.2V33.2H222.959V35.2ZM258.559 35.2V37.2C267.134 37.2 272.525 39.2257 275.427 42.6852L276.959 41.4L278.492 40.1148C274.46 35.3076 267.584 33.2 258.559 33.2V35.2ZM276.959 41.4L275.451 42.7136C278.62 46.3522 280.359 51.8091 280.359 59.4H282.359H284.359C284.359 51.2575 282.498 44.7144 278.468 40.0864L276.959 41.4ZM282.359 59.4H280.359V82.2H282.359H284.359V59.4H282.359ZM282.359 82.2H280.359C280.359 87.4588 279.459 91.5482 277.802 94.5947C276.171 97.596 273.75 99.6925 270.457 100.927L271.159 102.8L271.862 104.673C276.035 103.107 279.215 100.371 281.316 96.5053C283.393 92.6852 284.359 87.8745 284.359 82.2H282.359ZM271.159 102.8L270.441 104.667C274.4 106.189 277.277 108.564 279.192 111.774C281.123 115.013 282.159 119.247 282.159 124.6H284.159H286.159C286.159 118.753 285.029 113.754 282.627 109.726C280.208 105.669 276.586 102.744 271.877 100.933L271.159 102.8ZM284.159 124.6H282.159V156.8H284.159H286.159V124.6H284.159ZM284.159 156.8H282.159C282.159 164.89 280.235 171.064 276.606 175.54L278.159 176.8L279.713 178.06C284.083 172.669 286.159 165.51 286.159 156.8H284.159ZM278.159 176.8L276.602 175.545C273.228 179.733 267.895 182 260.159 182V184V186C268.69 186 275.357 183.467 279.717 178.055L278.159 176.8ZM260.159 184V182H222.959V184V186H260.159V184ZM252.359 116.2V114.2H245.559V116.2V118.2H252.359V116.2ZM245.559 116.2H243.559V163H245.559H247.559V116.2H245.559ZM245.559 163V165H252.359V163V161H245.559V163ZM252.359 163V165C256.006 165 259.176 164.178 260.959 161.8L259.359 160.6L257.759 159.4C257.143 160.222 255.646 161 252.359 161V163ZM259.359 160.6L260.959 161.8C262.549 159.68 263.159 156.616 263.159 153H261.159H259.159C259.159 156.318 258.57 158.32 257.759 159.4L259.359 160.6ZM261.159 153H263.159V125.8H261.159H259.159V153H261.159ZM261.159 125.8H263.159C263.159 122.32 262.551 119.342 260.907 117.334L259.359 118.6L257.811 119.866C258.568 120.791 259.159 122.614 259.159 125.8H261.159ZM259.359 118.6L260.959 117.4C259.176 115.022 256.006 114.2 252.359 114.2V116.2V118.2C255.646 118.2 257.143 118.978 257.759 119.8L259.359 118.6ZM252.359 55.4V53.4H245.559V55.4V57.4H252.359V55.4ZM245.559 55.4H243.559V94H245.559H247.559V55.4H245.559ZM245.559 94V96H252.359V94V92H245.559V94ZM252.359 94V96C255.447 96 258.054 94.9403 259.809 92.6C261.483 90.3679 262.159 87.259 262.159 83.6H260.159H258.159C258.159 86.8743 257.535 88.9655 256.609 90.2C255.765 91.3263 254.471 92 252.359 92V94ZM260.159 83.6H262.159V64.8H260.159H258.159V83.6H260.159ZM260.159 64.8H262.159C262.159 61.3197 261.551 58.3423 259.907 56.3335L258.359 57.6L256.811 58.8665C257.568 59.791 258.159 61.6137 258.159 64.8H260.159ZM258.359 57.6L259.977 56.4236C258.349 54.1848 255.534 53.4 252.359 53.4V55.4V57.4C255.052 57.4 256.237 58.0819 256.742 58.7763L258.359 57.6ZM345.523 42.6L343.923 43.8L343.932 43.8115L343.941 43.8229L345.523 42.6ZM352.323 67.8H350.323V150.8H352.323H354.323V67.8H352.323ZM352.323 150.8H350.323C350.323 162.243 347.962 170.453 343.579 175.779C339.258 181.03 332.701 183.8 323.523 183.8V185.8V187.8C333.546 187.8 341.389 184.736 346.668 178.321C351.885 171.98 354.323 162.69 354.323 150.8H352.323ZM323.523 185.8V183.8H319.723V185.8V187.8H323.523V185.8ZM319.723 185.8V183.8C310.403 183.8 303.744 181.024 299.359 175.769C294.917 170.444 292.523 162.238 292.523 150.8H290.523H288.523C288.523 162.696 290.997 171.99 296.288 178.331C301.636 184.742 309.577 187.8 319.723 187.8V185.8ZM290.523 150.8H292.523V68H290.523H288.523V150.8H290.523ZM290.523 68H292.523C292.523 56.8351 294.897 48.8344 299.299 43.6435C303.647 38.5158 310.259 35.8 319.523 35.8V33.8V31.8C309.454 31.8 301.567 34.7842 296.248 41.0565C290.983 47.2656 288.523 56.3649 288.523 68H290.523ZM319.523 33.8V35.8H323.323V33.8V31.8H319.523V33.8ZM323.323 33.8V35.8C333.373 35.8 340.042 38.6247 343.923 43.8L345.523 42.6L347.123 41.4C342.205 34.842 334.074 31.8 323.323 31.8V33.8ZM345.523 42.6L343.941 43.8229C348.102 49.2076 350.323 57.1075 350.323 67.8H352.323H354.323C354.323 56.6258 352.012 47.7257 347.106 41.3771L345.523 42.6ZM329.323 152.4H331.323V66.8H329.323H327.323V152.4H329.323ZM329.323 66.8H331.323C331.323 62.8342 330.656 59.5063 329.024 57.1206C327.298 54.5985 324.684 53.4 321.523 53.4V55.4V57.4C323.563 57.4 324.848 58.1015 325.723 59.3794C326.69 60.7937 327.323 63.1658 327.323 66.8H329.323ZM321.523 55.4V53.4C318.317 53.4 315.654 54.5821 313.886 57.1011C312.209 59.4909 311.523 62.8273 311.523 66.8H313.523H315.523C315.523 63.1727 316.171 60.8091 317.161 59.3988C318.059 58.1179 319.397 57.4 321.523 57.4V55.4ZM313.523 66.8H311.523V152.4H313.523H315.523V66.8H313.523ZM313.523 152.4H311.523C311.523 156.38 312.228 159.725 313.95 162.118C315.759 164.633 318.47 165.8 321.723 165.8V163.8V161.8C319.51 161.8 318.121 161.067 317.197 159.782C316.185 158.375 315.523 156.02 315.523 152.4H313.523ZM321.723 163.8V165.8C324.839 165.8 327.405 164.584 329.088 162.059C330.675 159.678 331.323 156.359 331.323 152.4H329.323H327.323C327.323 156.041 326.705 158.422 325.759 159.841C324.909 161.116 323.674 161.8 321.723 161.8V163.8ZM415.292 205H413.292V207H415.292V205ZM415.292 184H417.292V182H415.292V184ZM376.092 184V182H374.092V184H376.092ZM376.092 205V207H378.092V205H376.092ZM355.492 205H353.492V207H355.492V205ZM355.492 161.4V159.4H353.492V161.4H355.492ZM360.492 161.4V163.4H361.743L362.29 162.276L360.492 161.4ZM366.092 142.6L368.066 142.923L368.068 142.91L368.07 142.897L366.092 142.6ZM369.092 35.2V33.2H367.092V35.2H369.092ZM425.892 35.2H427.892V33.2H425.892V35.2ZM425.892 161.4H423.892V163.4H425.892V161.4ZM435.892 161.4H437.892V159.4H435.892V161.4ZM435.892 205V207H437.892V205H435.892ZM387.292 143.2L385.312 142.92L385.309 142.938L385.307 142.957L387.292 143.2ZM382.892 161.4L381.023 160.688L379.99 163.4H382.892V161.4ZM403.292 161.4V163.4H405.292V161.4H403.292ZM403.292 56.8H405.292V54.8H403.292V56.8ZM390.292 56.8V54.8H388.292V56.8H390.292ZM415.292 205H417.292V184H415.292H413.292V205H415.292ZM415.292 184V182H376.092V184V186H415.292V184ZM376.092 184H374.092V205H376.092H378.092V184H376.092ZM376.092 205V203H355.492V205V207H376.092V205ZM355.492 205H357.492V161.4H355.492H353.492V205H355.492ZM355.492 161.4V163.4H360.492V161.4V159.4H355.492V161.4ZM360.492 161.4L362.29 162.276C364.929 156.86 366.843 150.397 368.066 142.923L366.092 142.6L364.118 142.277C362.941 149.47 361.122 155.54 358.694 160.524L360.492 161.4ZM366.092 142.6L368.07 142.897C370.097 129.381 371.092 93.4028 371.092 35.2H369.092H367.092C367.092 93.5305 366.087 129.153 364.114 142.303L366.092 142.6ZM369.092 35.2V37.2H425.892V35.2V33.2H369.092V35.2ZM425.892 35.2H423.892V161.4H425.892H427.892V35.2H425.892ZM425.892 161.4V163.4H435.892V161.4V159.4H425.892V161.4ZM435.892 161.4H433.892V205H435.892H437.892V161.4H435.892ZM435.892 205V203H415.292V205V207H435.892V205ZM387.292 143.2L385.307 142.957C384.525 149.345 383.094 155.253 381.023 160.688L382.892 161.4L384.761 162.112C386.957 156.347 388.46 150.121 389.277 143.443L387.292 143.2ZM382.892 161.4V163.4H403.292V161.4V159.4H382.892V161.4ZM403.292 161.4H405.292V56.8H403.292H401.292V161.4H403.292ZM403.292 56.8V54.8H390.292V56.8V58.8H403.292V56.8ZM390.292 56.8H388.292C388.292 100.292 387.289 128.95 385.312 142.92L387.292 143.2L389.272 143.48C391.296 129.184 392.292 100.241 392.292 56.8H390.292ZM479.314 184L477.325 184.213L477.517 186H479.314V184ZM476.314 156L478.303 155.787L478.111 154H476.314V156ZM459.714 156V154H457.904L457.724 155.801L459.714 156ZM456.914 184V186H458.724L458.904 184.199L456.914 184ZM436.714 184L434.729 183.757L434.455 186H436.714V184ZM454.914 35.2V33.2H453.144L452.929 34.9572L454.914 35.2ZM481.714 35.2L483.697 34.9414L483.47 33.2H481.714V35.2ZM501.114 184V186H503.392L503.097 183.741L501.114 184ZM467.914 78.8L469.902 78.5831L465.925 78.5902L467.914 78.8ZM462.114 133.8L460.125 133.59L459.892 135.8H462.114V133.8ZM473.914 133.8V135.8H476.144L475.902 133.583L473.914 133.8ZM479.314 184L481.303 183.787L478.303 155.787L476.314 156L474.325 156.213L477.325 184.213L479.314 184ZM476.314 156V154H459.714V156V158H476.314V156ZM459.714 156L457.724 155.801L454.924 183.801L456.914 184L458.904 184.199L461.704 156.199L459.714 156ZM456.914 184V182H436.714V184V186H456.914V184ZM436.714 184L438.699 184.243L456.899 35.4428L454.914 35.2L452.929 34.9572L434.729 183.757L436.714 184ZM454.914 35.2V37.2H481.714V35.2V33.2H454.914V35.2ZM481.714 35.2L479.731 35.4586L499.131 184.259L501.114 184L503.097 183.741L483.697 34.9414L481.714 35.2ZM501.114 184V182H479.314V184V186H501.114V184ZM467.914 78.8L465.925 78.5902L460.125 133.59L462.114 133.8L464.103 134.01L469.903 79.0097L467.914 78.8ZM462.114 133.8V135.8H473.914V133.8V131.8H462.114V133.8ZM473.914 133.8L475.902 133.583L469.902 78.5831L467.914 78.8L465.926 79.0169L471.926 134.017L473.914 133.8ZM521.548 104.4L523.49 104.878L523.607 104.403L523.492 103.928L521.548 104.4ZM504.748 35.2V33.2H502.205L502.805 35.6718L504.748 35.2ZM527.748 35.2L529.708 34.7998L529.381 33.2H527.748V35.2ZM537.348 82.2L535.389 82.6002L539.311 82.5842L537.348 82.2ZM546.548 35.2V33.2H544.902L544.586 34.8158L546.548 35.2ZM568.548 35.2L570.491 35.6771L571.099 33.2H568.548V35.2ZM551.548 104.4L549.606 103.923L549.49 104.396L549.604 104.869L551.548 104.4ZM570.748 184V186H573.288L572.693 183.531L570.748 184ZM547.348 184L545.39 184.408L545.722 186H547.348V184ZM536.148 130.2L538.106 129.792L534.192 129.785L536.148 130.2ZM524.748 184V186H526.369L526.705 184.415L524.748 184ZM501.948 184L500.006 183.522L499.396 186H501.948V184ZM521.548 104.4L523.492 103.928L506.692 34.7282L504.748 35.2L502.805 35.6718L519.605 104.872L521.548 104.4ZM504.748 35.2V37.2H527.748V35.2V33.2H504.748V35.2ZM527.748 35.2L525.789 35.6002L535.389 82.6002L537.348 82.2L539.308 81.7998L529.708 34.7998L527.748 35.2ZM537.348 82.2L539.311 82.5842L548.511 35.5842L546.548 35.2L544.586 34.8158L535.386 81.8158L537.348 82.2ZM546.548 35.2V37.2H568.548V35.2V33.2H546.548V35.2ZM568.548 35.2L566.606 34.7229L549.606 103.923L551.548 104.4L553.491 104.877L570.491 35.6771L568.548 35.2ZM551.548 104.4L549.604 104.869L568.804 184.469L570.748 184L572.693 183.531L553.493 103.931L551.548 104.4ZM570.748 184V182H547.348V184V186H570.748V184ZM547.348 184L549.306 183.592L538.106 129.792L536.148 130.2L534.19 130.608L545.39 184.408L547.348 184ZM536.148 130.2L534.192 129.785L522.792 183.585L524.748 184L526.705 184.415L538.105 130.615L536.148 130.2ZM524.748 184V182H501.948V184V186H524.748V184ZM501.948 184L503.89 184.478L523.49 104.878L521.548 104.4L519.606 103.922L500.006 183.522L501.948 184Z" fill="#DEBE98" mask="url(#path-1-outside-1_3828_1302)"/>
<path d="M639 184V103.4L622.8 184H600.2V35.2H622.8V115.8L639 35.2H661.6V184H639ZM731.639 184L712.839 119.4V184H690.239V35.2H712.839V94.8L730.639 35.2H752.639L731.639 104.4L754.839 184H731.639ZM819.417 67.8V150.8C819.417 174.133 809.817 185.8 790.617 185.8H786.817C767.351 185.8 757.617 174.133 757.617 150.8V68C757.617 45.2 767.284 33.8 786.617 33.8H790.417C800.817 33.8 808.217 36.7333 812.617 42.6C817.151 48.4667 819.417 56.8667 819.417 67.8ZM796.417 152.4V66.8C796.417 59.2 793.817 55.4 788.617 55.4C783.284 55.4 780.617 59.2 780.617 66.8V152.4C780.617 160 783.351 163.8 788.817 163.8C793.884 163.8 796.417 160 796.417 152.4ZM827.163 184V35.2H856.163L866.963 113.8L877.963 35.2H904.963V184H883.763V87.8L870.163 184H861.163L847.363 87.8V184H827.163ZM951.095 184L948.095 156H931.495L928.695 184H908.495L926.695 35.2H953.495L972.895 184H951.095ZM939.695 78.8L933.895 133.8H945.695L939.695 78.8ZM998.777 118.6V184H976.177V35.2H998.777V94.8H1014.18V35.2H1036.78V184H1014.18V118.6H998.777ZM1101.72 205V184H1062.52V205H1041.92V161.4H1046.92C1049.46 156.2 1051.32 149.933 1052.52 142.6C1054.52 129.267 1055.52 93.4667 1055.52 35.2H1112.32V161.4H1122.32V205H1101.72ZM1073.72 143.2C1072.92 149.733 1071.46 155.8 1069.32 161.4H1089.72V56.8H1076.72C1076.72 100.267 1075.72 129.067 1073.72 143.2ZM1127.94 35.2H1179.34V56.8H1150.54V95.8H1173.14V118.4H1150.54V161.4H1180.54V184H1127.94V35.2Z" fill="#9C3202"/>
</svg>
