<svg width="1184" height="185" viewBox="0 0 1184 185" fill="none" xmlns="http://www.w3.org/2000/svg">
<path d="M539.78 166V32.08H592.88V166H572.54V51.52H560.12V166H539.78ZM634.805 166L632.105 140.8H617.165L614.645 166H596.465L612.845 32.08H636.965L654.425 166H634.805ZM624.545 71.32L619.325 120.82H629.945L624.545 71.32ZM689.958 110.38H678.078V166H657.738V32.08H689.958C697.278 32.08 702.558 33.82 705.798 37.3C709.158 40.66 710.838 46.3 710.838 54.22V85.9C710.838 102.22 703.878 110.38 689.958 110.38ZM678.078 50.26V91.12H683.298C686.178 91.12 688.038 90.34 688.878 88.78C689.838 87.1 690.318 84.64 690.318 81.4V59.44C690.318 56.44 689.838 54.16 688.878 52.6C687.918 51.04 686.058 50.26 683.298 50.26H678.078ZM714.456 32.08H768.816V51.52H751.716V166H731.556V51.52H714.456V32.08ZM793.909 107.14V166H773.569V32.08H793.909V85.72H807.769V32.08H828.109V166H807.769V107.14H793.909ZM835.98 32.08H882.24V51.52H856.32V86.62H876.66V106.96H856.32V145.66H883.32V166H835.98V32.08ZM920.758 110.38H908.878V166H888.538V32.08H920.758C928.078 32.08 933.358 33.82 936.598 37.3C939.958 40.66 941.638 46.3 941.638 54.22V85.9C941.638 102.22 934.678 110.38 920.758 110.38ZM908.878 50.26V91.12H914.098C916.978 91.12 918.838 90.34 919.678 88.78C920.638 87.1 921.118 84.64 921.118 81.4V59.44C921.118 56.44 920.638 54.16 919.678 52.6C918.718 51.04 916.858 50.26 914.098 50.26H908.878ZM981.077 138.82V107.68H1001.06V138.64C1001.06 157.96 992.957 167.62 976.757 167.62H972.257C955.577 167.62 947.237 158.2 947.237 139.36V57.64C947.237 49.96 949.157 43.6 952.997 38.56C956.837 33.4 963.017 30.82 971.537 30.82H976.217C981.497 30.82 985.877 31.6 989.357 33.16C992.957 34.72 995.537 37 997.097 40C998.657 43 999.677 45.94 1000.16 48.82C1000.76 51.58 1001.06 54.88 1001.06 58.72V82.66H981.077V59.08C981.077 53.2 978.797 50.26 974.237 50.26C971.837 50.26 970.157 50.98 969.197 52.42C968.357 53.74 967.937 55.96 967.937 59.08V138.64C967.937 144.76 970.097 147.82 974.417 147.82C978.857 147.82 981.077 144.82 981.077 138.82ZM1005.02 32.08H1059.38V51.52H1042.28V166H1022.12V51.52H1005.02V32.08ZM1064.5 166V32.08H1096.54C1104.46 32.08 1109.98 33.94 1113.1 37.66C1116.34 41.38 1117.96 46.78 1117.96 53.86V74.38C1117.96 84.22 1114.6 90.4 1107.88 92.92C1115.68 95.92 1119.58 102.46 1119.58 112.54V141.52C1119.58 149.08 1117.78 155.08 1114.18 159.52C1110.7 163.84 1105.3 166 1097.98 166H1064.5ZM1090.96 104.98H1084.84V147.1H1090.96C1094.08 147.1 1096.18 146.38 1097.26 144.94C1098.34 143.5 1098.88 141.22 1098.88 138.1V113.62C1098.88 110.62 1098.34 108.46 1097.26 107.14C1096.18 105.7 1094.08 104.98 1090.96 104.98ZM1090.96 50.26H1084.84V85H1090.96C1095.64 85 1097.98 81.88 1097.98 75.64V58.72C1097.98 55.72 1097.44 53.56 1096.36 52.24C1095.4 50.92 1093.6 50.26 1090.96 50.26ZM1180.92 61.42V136.12C1180.92 157.12 1172.28 167.62 1155 167.62H1151.58C1134.06 167.62 1125.3 157.12 1125.3 136.12V61.6C1125.3 41.08 1134 30.82 1151.4 30.82H1154.82C1164.18 30.82 1170.84 33.46 1174.8 38.74C1178.88 44.02 1180.92 51.58 1180.92 61.42ZM1160.22 137.56V60.52C1160.22 53.68 1157.88 50.26 1153.2 50.26C1148.4 50.26 1146 53.68 1146 60.52V137.56C1146 144.4 1148.46 147.82 1153.38 147.82C1157.94 147.82 1160.22 144.4 1160.22 137.56Z" fill="#DEBE98"/>
<path d="M4.14 166V32.08H36.18C44.1 32.08 49.62 33.94 52.74 37.66C55.98 41.38 57.6 46.78 57.6 53.86V74.38C57.6 84.22 54.24 90.4 47.52 92.92C55.32 95.92 59.22 102.46 59.22 112.54V141.52C59.22 149.08 57.42 155.08 53.82 159.52C50.34 163.84 44.94 166 37.62 166H4.14ZM30.6 104.98H24.48V147.1H30.6C33.72 147.1 35.82 146.38 36.9 144.94C37.98 143.5 38.52 141.22 38.52 138.1V113.62C38.52 110.62 37.98 108.46 36.9 107.14C35.82 105.7 33.72 104.98 30.6 104.98ZM30.6 50.26H24.48V85H30.6C35.28 85 37.62 81.88 37.62 75.64V58.72C37.62 55.72 37.08 53.56 36 52.24C35.04 50.92 33.24 50.26 30.6 50.26ZM85.4677 83.92H97.3477C111.268 83.92 118.228 92.14 118.228 108.58V142.6C118.228 150.64 116.548 156.58 113.188 160.42C109.828 164.14 104.548 166 97.3477 166H65.1277V32.08H85.4677V83.92ZM85.4677 146.56H90.6877C93.4477 146.56 95.3077 145.78 96.2677 144.22C97.2277 142.66 97.7077 140.38 97.7077 137.38V113.08C97.7077 109.84 97.2277 107.44 96.2677 105.88C95.4277 104.2 93.5677 103.36 90.6877 103.36H85.4677V146.56ZM144.328 32.08V166H123.988V32.08H144.328ZM151.612 166V32.08H192.472V51.52H171.952V166H151.612ZM252.931 61.42V136.12C252.931 157.12 244.291 167.62 227.011 167.62H223.591C206.071 167.62 197.311 157.12 197.311 136.12V61.6C197.311 41.08 206.011 30.82 223.411 30.82H226.831C236.191 30.82 242.851 33.46 246.811 38.74C250.891 44.02 252.931 51.58 252.931 61.42ZM232.231 137.56V60.52C232.231 53.68 229.891 50.26 225.211 50.26C220.411 50.26 218.011 53.68 218.011 60.52V137.56C218.011 144.4 220.471 147.82 225.391 147.82C229.951 147.82 232.231 144.4 232.231 137.56ZM309.603 184.9V166H274.323V184.9H255.783V145.66H260.283C262.563 140.98 264.243 135.34 265.323 128.74C267.123 116.74 268.023 84.52 268.023 32.08H319.143V145.66H328.143V184.9H309.603ZM284.403 129.28C283.683 135.16 282.363 140.62 280.443 145.66H298.803V51.52H287.103C287.103 90.64 286.203 116.56 284.403 129.28ZM353.183 107.14V166H332.843V32.08H353.183V85.72H367.043V32.08H387.383V166H367.043V107.14H353.183ZM450.333 61.42V136.12C450.333 157.12 441.693 167.62 424.413 167.62H420.993C403.473 167.62 394.713 157.12 394.713 136.12V61.6C394.713 41.08 403.413 30.82 420.813 30.82H424.233C433.593 30.82 440.253 33.46 444.213 38.74C448.293 44.02 450.333 51.58 450.333 61.42ZM429.633 137.56V60.52C429.633 53.68 427.293 50.26 422.613 50.26C417.813 50.26 415.413 53.68 415.413 60.52V137.56C415.413 144.4 417.873 147.82 422.793 147.82C427.353 147.82 429.633 144.4 429.633 137.56ZM457.304 32.08H503.564V51.52H477.644V86.62H497.984V106.96H477.644V145.66H504.644V166H457.304V32.08Z" fill="#DEBE98"/>
</svg>
