<svg width="1253" height="138" viewBox="0 0 1253 138" fill="none" xmlns="http://www.w3.org/2000/svg">
<path d="M49.64 28.04V94.44C49.64 113.107 41.96 122.44 26.6 122.44H23.56C7.98667 122.44 0.2 113.107 0.2 94.44V28.2C0.2 9.95999 7.93333 0.839993 23.4 0.839993H26.44C34.76 0.839993 40.68 3.18666 44.2 7.88C47.8267 12.5733 49.64 19.2933 49.64 28.04ZM31.24 95.72V27.24C31.24 21.16 29.16 18.12 25 18.12C20.7333 18.12 18.6 21.16 18.6 27.24V95.72C18.6 101.8 20.7867 104.84 25.16 104.84C29.2133 104.84 31.24 101.8 31.24 95.72ZM100.726 71.56H90.1663V121H72.0863V1.96H100.726C107.233 1.96 111.926 3.50666 114.806 6.59999C117.793 9.58666 119.286 14.6 119.286 21.64V49.8C119.286 64.3067 113.1 71.56 100.726 71.56ZM90.1663 18.12V54.44H94.8063C97.3663 54.44 99.0196 53.7467 99.7663 52.36C100.62 50.8667 101.046 48.68 101.046 45.8V26.28C101.046 23.6133 100.62 21.5867 99.7663 20.2C98.9129 18.8133 97.2596 18.12 94.8063 18.12H90.1663ZM124.743 1.96H165.863V19.24H142.823V50.44H160.903V68.52H142.823V102.92H166.823V121H124.743V1.96ZM209.861 137.8V121H171.141V1.96H189.221V102.92H200.261V1.96H218.341V102.92H226.341V137.8H209.861ZM230.836 1.96H271.956V19.24H248.916V50.44H266.996V68.52H248.916V102.92H272.916V121H230.836V1.96ZM277.235 121V1.96H324.435V121H306.355V19.24H295.315V121H277.235ZM329.221 1.96H377.541V19.24H362.341V121H344.421V19.24H329.221V1.96ZM426.566 1.96L409.286 105.32C408.326 111.187 406.833 115.293 404.806 117.64C402.78 119.88 399.473 121 394.886 121H383.206V102.6H387.366C388.326 102.6 389.073 102.44 389.606 102.12C390.246 101.8 390.673 101.373 390.886 100.84C391.1 100.307 391.313 99.6133 391.526 98.76L392.006 95.08C392.326 93.16 392.113 89.96 391.366 85.48L377.926 1.96H396.326L403.046 54.6L409.446 1.96H426.566ZM458.383 71.56H447.823V121H429.743V1.96H458.383C464.889 1.96 469.583 3.50666 472.463 6.59999C475.449 9.58666 476.943 14.6 476.943 21.64V49.8C476.943 64.3067 470.756 71.56 458.383 71.56ZM447.823 18.12V54.44H452.463C455.023 54.44 456.676 53.7467 457.423 52.36C458.276 50.8667 458.703 48.68 458.703 45.8V26.28C458.703 23.6133 458.276 21.5867 457.423 20.2C456.569 18.8133 454.916 18.12 452.463 18.12H447.823ZM512.639 121L510.239 98.6H496.959L494.719 121H478.559L493.119 1.96H514.559L530.079 121H512.639ZM503.519 36.84L498.879 80.84H508.319L503.519 36.84ZM546.426 57.32L532.986 1.96H551.386L559.066 39.56L566.426 1.96H584.026L570.426 57.32L585.786 121H567.066L558.106 77.96L548.986 121H530.746L546.426 57.32ZM635.619 121V56.52L622.659 121H604.579V1.96H622.659V66.44L635.619 1.96H653.699V121H635.619ZM674.69 1.96H723.01V19.24H707.81V121H689.89V19.24H674.69V1.96ZM727.555 1.96H768.675V19.24H745.635V50.44H763.715V68.52H745.635V102.92H769.635V121H727.555V1.96ZM786.114 57.32L772.674 1.96H791.074L798.754 39.56L806.114 1.96H823.714L810.114 57.32L825.474 121H806.754L797.794 77.96L788.674 121H770.434L786.114 57.32ZM846.096 68.68V121H828.016V1.96H846.096V49.64H858.416V1.96H876.496V121H858.416V68.68H846.096ZM932.453 28.04V94.44C932.453 113.107 924.773 122.44 909.413 122.44H906.373C890.799 122.44 883.013 113.107 883.013 94.44V28.2C883.013 9.95999 890.746 0.839993 906.213 0.839993H909.253C917.573 0.839993 923.493 3.18666 927.013 7.88C930.639 12.5733 932.453 19.2933 932.453 28.04ZM914.053 95.72V27.24C914.053 21.16 911.973 18.12 907.813 18.12C903.546 18.12 901.413 21.16 901.413 27.24V95.72C901.413 101.8 903.599 104.84 907.973 104.84C912.026 104.84 914.053 101.8 914.053 95.72ZM971.289 121V19.24H960.729C960.729 61.8 960.195 89.48 959.129 102.28C958.702 108.68 957.049 113.427 954.169 116.52C951.395 119.507 946.755 121 940.249 121H935.769V102.6H937.049C939.075 102.6 940.462 102.013 941.209 100.84C941.955 99.6667 942.435 97.5867 942.649 94.6C943.395 87.4533 943.769 56.5733 943.769 1.96H989.369V121H971.289ZM1045.42 28.04V94.44C1045.42 113.107 1037.74 122.44 1022.38 122.44H1019.34C1003.77 122.44 995.981 113.107 995.981 94.44V28.2C995.981 9.95999 1003.71 0.839993 1019.18 0.839993H1022.22C1030.54 0.839993 1036.46 3.18666 1039.98 7.88C1043.61 12.5733 1045.42 19.2933 1045.42 28.04ZM1027.02 95.72V27.24C1027.02 21.16 1024.94 18.12 1020.78 18.12C1016.51 18.12 1014.38 21.16 1014.38 27.24V95.72C1014.38 101.8 1016.57 104.84 1020.94 104.84C1024.99 104.84 1027.02 101.8 1027.02 95.72ZM1051.3 121V1.96H1087.62V19.24H1069.38V121H1051.3ZM1123.12 121V56.52L1110.16 121H1092.08V1.96H1110.16V66.44L1123.12 1.96H1141.2V121H1123.12ZM1176.66 71.08H1174.58L1161.3 121H1142.74L1157.14 67.88C1150.53 65.7467 1147.22 60.9467 1147.22 53.48V20.36C1147.22 13.7467 1148.71 9.05333 1151.7 6.28C1154.69 3.4 1159.27 1.96 1165.46 1.96H1194.74V121H1176.66V71.08ZM1176.66 53.8V18.12H1171.86C1169.19 18.12 1167.43 18.7067 1166.58 19.88C1165.73 21.0533 1165.3 23.0267 1165.3 25.8V45.32C1165.3 50.9733 1167.49 53.8 1171.86 53.8H1176.66ZM1213.61 57.32L1200.17 1.96H1218.57L1226.25 39.56L1233.61 1.96H1251.21L1237.61 57.32L1252.97 121H1234.25L1225.29 77.96L1216.17 121H1197.93L1213.61 57.32Z" fill="#F7E3C6"/>
</svg>
