<svg width="223" height="107" viewBox="0 0 223 107" fill="none" xmlns="http://www.w3.org/2000/svg">
<path d="M13.12 27.46H9.16V46H2.38V1.36H13.12C15.56 1.36 17.32 1.94 18.4 3.1C19.52 4.22 20.08 6.1 20.08 8.74V19.3C20.08 24.74 17.76 27.46 13.12 27.46ZM9.16 7.42V21.04H10.9C11.86 21.04 12.48 20.78 12.76 20.26C13.08 19.7 13.24 18.88 13.24 17.8V10.48C13.24 9.48 13.08 8.72 12.76 8.2C12.44 7.68 11.82 7.42 10.9 7.42H9.16ZM33.4661 46L32.5661 37.6H27.5861L26.7461 46H20.6861L26.1461 1.36H34.1861L40.0061 46H33.4661ZM30.0461 14.44L28.3061 30.94H31.8461L30.0461 14.44ZM51.9175 36.94V26.56H58.5775V36.88C58.5775 43.32 55.8775 46.54 50.4775 46.54H48.9775C43.4175 46.54 40.6375 43.4 40.6375 37.12V9.88C40.6375 7.32 41.2775 5.2 42.5575 3.52C43.8375 1.8 45.8975 0.939997 48.7375 0.939997H50.2975C52.0575 0.939997 53.5175 1.2 54.6775 1.72C55.8775 2.24 56.7375 3 57.2575 4C57.7775 5 58.1175 5.98 58.2775 6.94C58.4775 7.86 58.5775 8.96 58.5775 10.24V18.22H51.9175V10.36C51.9175 8.4 51.1575 7.42 49.6375 7.42C48.8375 7.42 48.2775 7.66 47.9575 8.14C47.6775 8.58 47.5375 9.32 47.5375 10.36V36.88C47.5375 38.92 48.2575 39.94 49.6975 39.94C51.1775 39.94 51.9175 38.94 51.9175 36.94ZM60.6194 46V1.36H67.3994V39.22H71.2394V1.36H78.0194V39.22H81.8594V1.36H88.6394V46H60.6194ZM102.787 46V21.82L97.9267 46H91.1467V1.36H97.9267V25.54L102.787 1.36H109.567V46H102.787ZM122.925 27.46H118.965V46H112.185V1.36H122.925C125.365 1.36 127.125 1.94 128.205 3.1C129.325 4.22 129.885 6.1 129.885 8.74V19.3C129.885 24.74 127.565 27.46 122.925 27.46ZM118.965 7.42V21.04H120.705C121.665 21.04 122.285 20.78 122.565 20.26C122.885 19.7 123.045 18.88 123.045 17.8V10.48C123.045 9.48 122.885 8.72 122.565 8.2C122.245 7.68 121.625 7.42 120.705 7.42H118.965ZM142.611 27.28H141.831L136.851 46H129.891L135.291 26.08C132.811 25.28 131.571 23.48 131.571 20.68V8.26C131.571 5.78 132.131 4.02 133.251 2.98C134.371 1.9 136.091 1.36 138.411 1.36H149.391V46H142.611V27.28ZM142.611 20.8V7.42H140.811C139.811 7.42 139.151 7.64 138.831 8.08C138.511 8.52 138.351 9.26 138.351 10.3V17.62C138.351 19.74 139.171 20.8 140.811 20.8H142.611ZM152.028 1.36H167.448V7.84H158.808V19.54H165.588V26.32H158.808V39.22H167.808V46H152.028V1.36ZM169.548 46V1.36H178.248L181.488 24.94L184.788 1.36H192.888V46H186.528V17.14L182.448 46H179.748L175.608 17.14V46H169.548ZM13.72 106L12.82 97.6H7.84L7 106H0.94L6.4 61.36H14.44L20.26 106H13.72ZM10.3 74.44L8.56 90.94H12.1L10.3 74.44ZM32.1714 96.94V86.56H38.8314V96.88C38.8314 103.32 36.1314 106.54 30.7314 106.54H29.2314C23.6714 106.54 20.8914 103.4 20.8914 97.12V69.88C20.8914 67.32 21.5314 65.2 22.8114 63.52C24.0914 61.8 26.1514 60.94 28.9914 60.94H30.5514C32.3114 60.94 33.7714 61.2 34.9314 61.72C36.1314 62.24 36.9914 63 37.5114 64C38.0314 65 38.3714 65.98 38.5314 66.94C38.7314 67.86 38.8314 68.96 38.8314 70.24V78.22H32.1714V70.36C32.1714 68.4 31.4114 67.42 29.8914 67.42C29.0914 67.42 28.5314 67.66 28.2114 68.14C27.9314 68.58 27.7914 69.32 27.7914 70.36V96.88C27.7914 98.92 28.5114 99.94 29.9514 99.94C31.4314 99.94 32.1714 98.94 32.1714 96.94ZM52.0933 96.94V86.56H58.7533V96.88C58.7533 103.32 56.0533 106.54 50.6533 106.54H49.1533C43.5933 106.54 40.8133 103.4 40.8133 97.12V69.88C40.8133 67.32 41.4533 65.2 42.7333 63.52C44.0133 61.8 46.0733 60.94 48.9133 60.94H50.4733C52.2333 60.94 53.6933 61.2 54.8533 61.72C56.0533 62.24 56.9133 63 57.4333 64C57.9533 65 58.2933 65.98 58.4533 66.94C58.6533 67.86 58.7533 68.96 58.7533 70.24V78.22H52.0933V70.36C52.0933 68.4 51.3333 67.42 49.8133 67.42C49.0133 67.42 48.4533 67.66 48.1333 68.14C47.8533 68.58 47.7133 69.32 47.7133 70.36V96.88C47.7133 98.92 48.4333 99.94 49.8733 99.94C51.3533 99.94 52.0933 98.94 52.0933 96.94ZM79.2752 71.14V96.04C79.2752 103.04 76.3952 106.54 70.6352 106.54H69.4952C63.6552 106.54 60.7352 103.04 60.7352 96.04V71.2C60.7352 64.36 63.6352 60.94 69.4352 60.94H70.5752C73.6952 60.94 75.9152 61.82 77.2352 63.58C78.5952 65.34 79.2752 67.86 79.2752 71.14ZM72.3752 96.52V70.84C72.3752 68.56 71.5952 67.42 70.0352 67.42C68.4352 67.42 67.6352 68.56 67.6352 70.84V96.52C67.6352 98.8 68.4552 99.94 70.0952 99.94C71.6152 99.94 72.3752 98.8 72.3752 96.52ZM92.3388 87.46H88.3788V106H81.5988V61.36H92.3388C94.7788 61.36 96.5388 61.94 97.6188 63.1C98.7388 64.22 99.2988 66.1 99.2988 68.74V79.3C99.2988 84.74 96.9788 87.46 92.3388 87.46ZM88.3788 67.42V81.04H90.1188C91.0788 81.04 91.6988 80.78 91.9788 80.26C92.2988 79.7 92.4588 78.88 92.4588 77.8V70.48C92.4588 69.48 92.2988 68.72 91.9788 68.2C91.6588 67.68 91.0388 67.42 90.1188 67.42H88.3788ZM100.505 61.36H118.625V67.84H112.925V106H106.205V67.84H100.505V61.36ZM131.849 106V81.82L126.989 106H120.209V61.36H126.989V85.54L131.849 61.36H138.629V106H131.849ZM141.247 106V61.36H149.947L153.187 84.94L156.487 61.36H164.587V106H158.227V77.14L154.147 106H151.447L147.307 77.14V106H141.247ZM167.087 61.36H182.507V67.84H173.867V79.54H180.647V86.32H173.867V99.22H182.867V106H167.087V61.36ZM191.267 86.38V106H184.487V61.36H191.267V79.24H195.887V61.36H202.667V106H195.887V86.38H191.267ZM204.45 61.36H222.57V67.84H216.87V106H210.15V67.84H204.45V61.36Z" fill="#F7E3C6"/>
</svg>
