<svg width="246" height="157" viewBox="0 0 246 157" fill="none" xmlns="http://www.w3.org/2000/svg">
<mask id="path-1-outside-1_3828_1305" maskUnits="userSpaceOnUse" x="0" y="12" width="224" height="64" fill="black">
<rect fill="white" y="12" width="224" height="64"/>
<path d="M18.24 74L10.72 48.16V74H1.68V14.48H10.72V38.32L17.84 14.48H26.64L18.24 42.16L27.52 74H18.24ZM53.3513 27.52V60.72C53.3513 70.0533 49.5113 74.72 41.8313 74.72H40.3113C32.5246 74.72 28.6313 70.0533 28.6313 60.72V27.6C28.6313 18.48 32.4979 13.92 40.2313 13.92H41.7513C45.9113 13.92 48.8713 15.0933 50.6313 17.44C52.4446 19.7867 53.3513 23.1467 53.3513 27.52ZM44.1513 61.36V27.12C44.1513 24.08 43.1113 22.56 41.0313 22.56C38.8979 22.56 37.8313 24.08 37.8313 27.12V61.36C37.8313 64.4 38.9246 65.92 41.1113 65.92C43.1379 65.92 44.1513 64.4 44.1513 61.36ZM65.3294 47.84V74H56.2894V14.48H65.3294V38.32H71.4894V14.48H80.5294V74H71.4894V47.84H65.3294ZM100.428 74L92.9075 48.16V74H83.8675V14.48H92.9075V38.32L100.028 14.48H108.828L100.428 42.16L109.708 74H100.428ZM133.299 14.48L124.659 66.16C124.179 69.0933 123.432 71.1467 122.419 72.32C121.405 73.44 119.752 74 117.459 74H111.619V64.8H113.699C114.179 64.8 114.552 64.72 114.819 64.56C115.139 64.4 115.352 64.1867 115.459 63.92C115.565 63.6533 115.672 63.3067 115.779 62.88L116.019 61.04C116.179 60.08 116.072 58.48 115.699 56.24L108.979 14.48H118.179L121.539 40.8L124.739 14.48H133.299ZM149.207 49.28H143.927V74H134.887V14.48H149.207C152.46 14.48 154.807 15.2533 156.247 16.8C157.74 18.2933 158.487 20.8 158.487 24.32V38.4C158.487 45.6533 155.394 49.28 149.207 49.28ZM143.927 22.56V40.72H146.247C147.527 40.72 148.354 40.3733 148.727 39.68C149.154 38.9333 149.367 37.84 149.367 36.4V26.64C149.367 25.3067 149.154 24.2933 148.727 23.6C148.3 22.9067 147.474 22.56 146.247 22.56H143.927ZM176.015 61.92V48.08H184.895V61.84C184.895 70.4267 181.295 74.72 174.095 74.72H172.095C164.682 74.72 160.975 70.5333 160.975 62.16V25.84C160.975 22.4267 161.828 19.6 163.535 17.36C165.242 15.0667 167.988 13.92 171.775 13.92H173.855C176.202 13.92 178.148 14.2667 179.695 14.96C181.295 15.6533 182.442 16.6667 183.135 18C183.828 19.3333 184.282 20.64 184.495 21.92C184.762 23.1467 184.895 24.6133 184.895 26.32V36.96H176.015V26.48C176.015 23.8667 175.002 22.56 172.975 22.56C171.908 22.56 171.162 22.88 170.735 23.52C170.362 24.1067 170.175 25.0933 170.175 26.48V61.84C170.175 64.56 171.135 65.92 173.055 65.92C175.028 65.92 176.015 64.5867 176.015 61.92ZM196.658 37.52H201.938C208.124 37.52 211.218 41.1733 211.218 48.48V63.6C211.218 67.1733 210.471 69.8133 208.978 71.52C207.484 73.1733 205.138 74 201.938 74H187.618V14.48H196.658V37.52ZM196.658 65.36H198.978C200.204 65.36 201.031 65.0133 201.458 64.32C201.884 63.6267 202.098 62.6133 202.098 61.28V50.48C202.098 49.04 201.884 47.9733 201.458 47.28C201.084 46.5333 200.258 46.16 198.978 46.16H196.658V65.36ZM222.818 14.48V74H213.778V14.48H222.818Z"/>
</mask>
<path d="M18.24 74L17.2798 74.2794L17.4895 75H18.24V74ZM10.72 48.16L11.6802 47.8806L9.72 48.16H10.72ZM10.72 74V75H11.72V74H10.72ZM1.68 74H0.68V75H1.68V74ZM1.68 14.48V13.48H0.68V14.48H1.68ZM10.72 14.48H11.72V13.48H10.72V14.48ZM10.72 38.32H9.72L11.6782 38.6062L10.72 38.32ZM17.84 14.48V13.48H17.095L16.8818 14.1938L17.84 14.48ZM26.64 14.48L27.5969 14.7704L27.9885 13.48H26.64V14.48ZM18.24 42.16L17.2831 41.8696L17.1967 42.1542L17.2799 42.4398L18.24 42.16ZM27.52 74V75H28.8531L28.4801 73.7202L27.52 74ZM18.24 74L19.2002 73.7206L11.6802 47.8806L10.72 48.16L9.75983 48.4394L17.2798 74.2794L18.24 74ZM10.72 48.16H9.72V74H10.72H11.72V48.16H10.72ZM10.72 74V73H1.68V74V75H10.72V74ZM1.68 74H2.68V14.48H1.68H0.68V74H1.68ZM1.68 14.48V15.48H10.72V14.48V13.48H1.68V14.48ZM10.72 14.48H9.72V38.32H10.72H11.72V14.48H10.72ZM10.72 38.32L11.6782 38.6062L18.7982 14.7662L17.84 14.48L16.8818 14.1938L9.76182 38.0338L10.72 38.32ZM17.84 14.48V15.48H26.64V14.48V13.48H17.84V14.48ZM26.64 14.48L25.6831 14.1896L17.2831 41.8696L18.24 42.16L19.1969 42.4504L27.5969 14.7704L26.64 14.48ZM18.24 42.16L17.2799 42.4398L26.5599 74.2798L27.52 74L28.4801 73.7202L19.2001 41.8802L18.24 42.16ZM27.52 74V73H18.24V74V75H27.52V74ZM50.6313 17.44L49.8313 18.04L49.8356 18.0458L49.84 18.0514L50.6313 17.44ZM53.3513 27.52H52.3513V60.72H53.3513H54.3513V27.52H53.3513ZM53.3513 60.72H52.3513C52.3513 65.2748 51.4103 68.505 49.6991 70.5846C48.0186 72.6269 45.4601 73.72 41.8313 73.72V74.72V75.72C45.8824 75.72 49.0839 74.4798 51.2434 71.8554C53.3722 69.2684 54.3513 65.4986 54.3513 60.72H53.3513ZM41.8313 74.72V73.72H40.3113V74.72V75.72H41.8313V74.72ZM40.3113 74.72V73.72C36.6245 73.72 34.0248 72.6239 32.3191 70.5794C30.5845 68.5002 29.6313 65.2722 29.6313 60.72H28.6313H27.6313C27.6313 65.5011 28.6247 69.2731 30.7834 71.8606C32.971 74.4828 36.2114 75.72 40.3113 75.72V74.72ZM28.6313 60.72H29.6313V27.6H28.6313H27.6313V60.72H28.6313ZM28.6313 27.6H29.6313C29.6313 23.1575 30.5765 20.0122 32.294 17.9867C33.9847 15.9929 36.5659 14.92 40.2313 14.92V13.92V12.92C36.1633 12.92 32.9445 14.1271 30.7685 16.6933C28.6194 19.2278 27.6313 22.9224 27.6313 27.6H28.6313ZM40.2313 13.92V14.92H41.7513V13.92V12.92H40.2313V13.92ZM41.7513 13.92V14.92C45.736 14.92 48.3305 16.039 49.8313 18.04L50.6313 17.44L51.4313 16.84C49.412 14.1477 46.0865 12.92 41.7513 12.92V13.92ZM50.6313 17.44L49.84 18.0514C51.4671 20.1571 52.3513 23.2671 52.3513 27.52H53.3513H54.3513C54.3513 23.0262 53.4221 19.4162 51.4225 16.8286L50.6313 17.44ZM44.1513 61.36H45.1513V27.12H44.1513H43.1513V61.36H44.1513ZM44.1513 27.12H45.1513C45.1513 25.5171 44.8827 24.1382 44.1966 23.1353C43.4637 22.0643 42.3516 21.56 41.0313 21.56V22.56V23.56C41.7909 23.56 42.2388 23.8157 42.5459 24.2647C42.8998 24.7818 43.1513 25.6829 43.1513 27.12H44.1513ZM41.0313 22.56V21.56C39.6946 21.56 38.5632 22.0561 37.8127 23.1256C37.1075 24.1304 36.8313 25.5137 36.8313 27.12H37.8313H38.8313C38.8313 25.6863 39.0883 24.7896 39.4498 24.2744C39.7659 23.8239 40.2345 23.56 41.0313 23.56V22.56ZM37.8313 27.12H36.8313V61.36H37.8313H38.8313V27.12H37.8313ZM37.8313 61.36H36.8313C36.8313 62.9699 37.1153 64.3573 37.8394 65.3639C38.6074 66.4315 39.7578 66.92 41.1113 66.92V65.92V64.92C40.278 64.92 39.7885 64.6485 39.4631 64.1961C39.0938 63.6827 38.8313 62.7901 38.8313 61.36H37.8313ZM41.1113 65.92V66.92C42.4159 66.92 43.5085 66.4069 44.2233 65.3347C44.8904 64.3341 45.1513 62.9595 45.1513 61.36H44.1513H43.1513C43.1513 62.8005 42.9054 63.7059 42.5592 64.2253C42.2607 64.6731 41.8333 64.92 41.1113 64.92V65.92ZM65.3294 47.84V46.84H64.3294V47.84H65.3294ZM65.3294 74V75H66.3294V74H65.3294ZM56.2894 74H55.2894V75H56.2894V74ZM56.2894 14.48V13.48H55.2894V14.48H56.2894ZM65.3294 14.48H66.3294V13.48H65.3294V14.48ZM65.3294 38.32H64.3294V39.32H65.3294V38.32ZM71.4894 38.32V39.32H72.4894V38.32H71.4894ZM71.4894 14.48V13.48H70.4894V14.48H71.4894ZM80.5294 14.48H81.5294V13.48H80.5294V14.48ZM80.5294 74V75H81.5294V74H80.5294ZM71.4894 74H70.4894V75H71.4894V74ZM71.4894 47.84H72.4894V46.84H71.4894V47.84ZM65.3294 47.84H64.3294V74H65.3294H66.3294V47.84H65.3294ZM65.3294 74V73H56.2894V74V75H65.3294V74ZM56.2894 74H57.2894V14.48H56.2894H55.2894V74H56.2894ZM56.2894 14.48V15.48H65.3294V14.48V13.48H56.2894V14.48ZM65.3294 14.48H64.3294V38.32H65.3294H66.3294V14.48H65.3294ZM65.3294 38.32V39.32H71.4894V38.32V37.32H65.3294V38.32ZM71.4894 38.32H72.4894V14.48H71.4894H70.4894V38.32H71.4894ZM71.4894 14.48V15.48H80.5294V14.48V13.48H71.4894V14.48ZM80.5294 14.48H79.5294V74H80.5294H81.5294V14.48H80.5294ZM80.5294 74V73H71.4894V74V75H80.5294V74ZM71.4894 74H72.4894V47.84H71.4894H70.4894V74H71.4894ZM71.4894 47.84V46.84H65.3294V47.84V48.84H71.4894V47.84ZM100.428 74L99.4673 74.2794L99.677 75H100.428V74ZM92.9075 48.16L93.8677 47.8806L91.9075 48.16H92.9075ZM92.9075 74V75H93.9075V74H92.9075ZM83.8675 74H82.8675V75H83.8675V74ZM83.8675 14.48V13.48H82.8675V14.48H83.8675ZM92.9075 14.48H93.9075V13.48H92.9075V14.48ZM92.9075 38.32H91.9075L93.8657 38.6062L92.9075 38.32ZM100.028 14.48V13.48H99.2825L99.0693 14.1938L100.028 14.48ZM108.828 14.48L109.784 14.7704L110.176 13.48H108.828V14.48ZM100.428 42.16L99.4706 41.8696L99.3842 42.1542L99.4674 42.4398L100.428 42.16ZM109.708 74V75H111.041L110.668 73.7202L109.708 74ZM100.428 74L101.388 73.7206L93.8677 47.8806L92.9075 48.16L91.9473 48.4394L99.4673 74.2794L100.428 74ZM92.9075 48.16H91.9075V74H92.9075H93.9075V48.16H92.9075ZM92.9075 74V73H83.8675V74V75H92.9075V74ZM83.8675 74H84.8675V14.48H83.8675H82.8675V74H83.8675ZM83.8675 14.48V15.48H92.9075V14.48V13.48H83.8675V14.48ZM92.9075 14.48H91.9075V38.32H92.9075H93.9075V14.48H92.9075ZM92.9075 38.32L93.8657 38.6062L100.986 14.7662L100.028 14.48L99.0693 14.1938L91.9493 38.0338L92.9075 38.32ZM100.028 14.48V15.48H108.828V14.48V13.48H100.028V14.48ZM108.828 14.48L107.871 14.1896L99.4706 41.8696L100.428 42.16L101.384 42.4504L109.784 14.7704L108.828 14.48ZM100.428 42.16L99.4674 42.4398L108.747 74.2798L109.708 74L110.668 73.7202L101.388 41.8802L100.428 42.16ZM109.708 74V73H100.428V74V75H109.708V74ZM133.299 14.48L134.285 14.6449L134.48 13.48H133.299V14.48ZM124.659 66.16L123.672 65.9951L123.672 65.9985L124.659 66.16ZM122.419 72.32L123.16 72.9909L123.168 72.9824L123.176 72.9736L122.419 72.32ZM111.619 74H110.619V75H111.619V74ZM111.619 64.8V63.8H110.619V64.8H111.619ZM114.819 64.56L114.372 63.6656L114.337 63.6827L114.304 63.7025L114.819 64.56ZM115.459 63.92L114.53 63.5486L114.53 63.5486L115.459 63.92ZM115.779 62.88L116.749 63.1225L116.763 63.0666L116.77 63.0093L115.779 62.88ZM116.019 61.04L115.032 60.8756L115.029 60.8931L115.027 60.9107L116.019 61.04ZM115.699 56.24L114.711 56.3989L114.712 56.4044L115.699 56.24ZM108.979 14.48V13.48H107.805L107.991 14.6389L108.979 14.48ZM118.179 14.48L119.171 14.3534L119.059 13.48H118.179V14.48ZM121.539 40.8L120.547 40.9266L122.531 40.9207L121.539 40.8ZM124.739 14.48V13.48H123.853L123.746 14.3593L124.739 14.48ZM133.299 14.48L132.312 14.3151L123.672 65.9951L124.659 66.16L125.645 66.3249L134.285 14.6449L133.299 14.48ZM124.659 66.16L123.672 65.9985C123.199 68.8895 122.487 70.7109 121.662 71.6664L122.419 72.32L123.176 72.9736C124.377 71.5825 125.159 69.2971 125.646 66.3215L124.659 66.16ZM122.419 72.32L121.677 71.6491C120.933 72.4713 119.616 73 117.459 73V74V75C119.888 75 121.877 74.4087 123.16 72.9909L122.419 72.32ZM117.459 74V73H111.619V74V75H117.459V74ZM111.619 74H112.619V64.8H111.619H110.619V74H111.619ZM111.619 64.8V65.8H113.699V64.8V63.8H111.619V64.8ZM113.699 64.8V65.8C114.27 65.8 114.849 65.7083 115.333 65.4175L114.819 64.56L114.304 63.7025C114.256 63.7317 114.088 63.8 113.699 63.8V64.8ZM114.819 64.56L115.266 65.4544C115.749 65.2129 116.169 64.8375 116.387 64.2914L115.459 63.92L114.53 63.5486C114.53 63.5499 114.527 63.5571 114.512 63.5729C114.494 63.5909 114.453 63.625 114.372 63.6656L114.819 64.56ZM115.459 63.92L116.387 64.2914C116.517 63.9669 116.636 63.5726 116.749 63.1225L115.779 62.88L114.809 62.6375C114.708 63.0407 114.614 63.3397 114.53 63.5486L115.459 63.92ZM115.779 62.88L116.77 63.0093L117.01 61.1693L116.019 61.04L115.027 60.9107L114.787 62.7507L115.779 62.88ZM116.019 61.04L117.005 61.2044C117.195 60.0646 117.059 58.318 116.685 56.0756L115.699 56.24L114.712 56.4044C115.085 58.642 115.162 60.0954 115.032 60.8756L116.019 61.04ZM115.699 56.24L116.686 56.0811L109.966 14.3211L108.979 14.48L107.991 14.6389L114.711 56.3989L115.699 56.24ZM108.979 14.48V15.48H118.179V14.48V13.48H108.979V14.48ZM118.179 14.48L117.187 14.6066L120.547 40.9266L121.539 40.8L122.531 40.6734L119.171 14.3534L118.179 14.48ZM121.539 40.8L122.531 40.9207L125.731 14.6007L124.739 14.48L123.746 14.3593L120.546 40.6793L121.539 40.8ZM124.739 14.48V15.48H133.299V14.48V13.48H124.739V14.48ZM143.927 49.28V48.28H142.927V49.28H143.927ZM143.927 74V75H144.927V74H143.927ZM134.887 74H133.887V75H134.887V74ZM134.887 14.48V13.48H133.887V14.48H134.887ZM156.247 16.8L155.515 17.4814L155.527 17.4945L155.54 17.5071L156.247 16.8ZM143.927 22.56V21.56H142.927V22.56H143.927ZM143.927 40.72H142.927V41.72H143.927V40.72ZM148.727 39.68L147.859 39.1839L147.852 39.1948L147.846 39.2059L148.727 39.68ZM148.727 23.6L149.579 23.0759L149.579 23.0759L148.727 23.6ZM149.207 49.28V48.28H143.927V49.28V50.28H149.207V49.28ZM143.927 49.28H142.927V74H143.927H144.927V49.28H143.927ZM143.927 74V73H134.887V74V75H143.927V74ZM134.887 74H135.887V14.48H134.887H133.887V74H134.887ZM134.887 14.48V15.48H149.207V14.48V13.48H134.887V14.48ZM149.207 14.48V15.48C152.331 15.48 154.346 16.2255 155.515 17.4814L156.247 16.8L156.979 16.1186C155.268 14.2811 152.59 13.48 149.207 13.48V14.48ZM156.247 16.8L155.54 17.5071C156.754 18.7209 157.487 20.898 157.487 24.32H158.487H159.487C159.487 20.702 158.727 17.8658 156.954 16.0929L156.247 16.8ZM158.487 24.32H157.487V38.4H158.487H159.487V24.32H158.487ZM158.487 38.4H157.487C157.487 41.908 156.735 44.3524 155.406 45.9111C154.103 47.4392 152.101 48.28 149.207 48.28V49.28V50.28C152.5 50.28 155.138 49.3074 156.928 47.2089C158.692 45.1409 159.487 42.1454 159.487 38.4H158.487ZM143.927 22.56H142.927V40.72H143.927H144.927V22.56H143.927ZM143.927 40.72V41.72H146.247V40.72V39.72H143.927V40.72ZM146.247 40.72V41.72C147.65 41.72 148.968 41.3412 149.607 40.1541L148.727 39.68L147.846 39.2059C147.739 39.4055 147.404 39.72 146.247 39.72V40.72ZM148.727 39.68L149.595 40.1761C150.148 39.2084 150.367 37.9102 150.367 36.4H149.367H148.367C148.367 37.7698 148.159 38.6582 147.859 39.1839L148.727 39.68ZM149.367 36.4H150.367V26.64H149.367H148.367V36.4H149.367ZM149.367 26.64H150.367C150.367 25.2276 150.146 23.9977 149.579 23.0759L148.727 23.6L147.875 24.1241C148.161 24.589 148.367 25.3857 148.367 26.64H149.367ZM148.727 23.6L149.579 23.0759C148.889 21.9555 147.632 21.56 146.247 21.56V22.56V23.56C147.315 23.56 147.711 23.8578 147.875 24.1241L148.727 23.6ZM146.247 22.56V21.56H143.927V22.56V23.56H146.247V22.56ZM176.015 48.08V47.08H175.015V48.08H176.015ZM184.895 48.08H185.895V47.08H184.895V48.08ZM163.535 17.36L164.33 17.9661L164.337 17.957L163.535 17.36ZM179.695 14.96L179.286 15.8726L179.297 15.8776L179.695 14.96ZM183.135 18L184.022 17.5386L184.022 17.5386L183.135 18ZM184.495 21.92L183.509 22.0844L183.513 22.1085L183.518 22.1324L184.495 21.92ZM184.895 36.96V37.96H185.895V36.96H184.895ZM176.015 36.96H175.015V37.96H176.015V36.96ZM170.735 23.52L169.903 22.9653L169.897 22.9741L169.891 22.9831L170.735 23.52ZM176.015 61.92H177.015V48.08H176.015H175.015V61.92H176.015ZM176.015 48.08V49.08H184.895V48.08V47.08H176.015V48.08ZM184.895 48.08H183.895V61.84H184.895H185.895V48.08H184.895ZM184.895 61.84H183.895C183.895 66.0179 183.016 68.9651 181.429 70.8575C179.87 72.7161 177.49 73.72 174.095 73.72V74.72V75.72C177.9 75.72 180.92 74.5772 182.961 72.1425C184.974 69.7416 185.895 66.2487 185.895 61.84H184.895ZM174.095 74.72V73.72H172.095V74.72V75.72H174.095V74.72ZM172.095 74.72V73.72C168.576 73.72 166.111 72.732 164.504 70.9171C162.876 69.079 161.975 66.2205 161.975 62.16H160.975H159.975C159.975 66.4729 160.927 69.8943 163.006 72.2429C165.106 74.6147 168.2 75.72 172.095 75.72V74.72ZM160.975 62.16H161.975V25.84H160.975H159.975V62.16H160.975ZM160.975 25.84H161.975C161.975 22.5979 162.783 19.9974 164.33 17.966L163.535 17.36L162.74 16.754C160.874 19.2026 159.975 22.2554 159.975 25.84H160.975ZM163.535 17.36L164.337 17.957C165.797 15.9952 168.193 14.92 171.775 14.92V13.92V12.92C167.784 12.92 164.686 14.1382 162.733 16.763L163.535 17.36ZM171.775 13.92V14.92H173.855V13.92V12.92H171.775V13.92ZM173.855 13.92V14.92C176.111 14.92 177.907 15.2545 179.286 15.8725L179.695 14.96L180.104 14.0475C178.389 13.2788 176.292 12.92 173.855 12.92V13.92ZM179.695 14.96L179.297 15.8776C180.722 16.4949 181.677 17.3636 182.248 18.4613L183.135 18L184.022 17.5386C183.206 15.9697 181.868 14.8117 180.093 14.0424L179.695 14.96ZM183.135 18L182.248 18.4613C182.9 19.7159 183.315 20.9229 183.509 22.0844L184.495 21.92L185.481 21.7556C185.248 20.3571 184.756 18.9507 184.022 17.5386L183.135 18ZM184.495 21.92L183.518 22.1324C183.765 23.2695 183.895 24.6611 183.895 26.32H184.895H185.895C185.895 24.5655 185.758 23.0238 185.472 21.7076L184.495 21.92ZM184.895 26.32H183.895V36.96H184.895H185.895V26.32H184.895ZM184.895 36.96V35.96H176.015V36.96V37.96H184.895V36.96ZM176.015 36.96H177.015V26.48H176.015H175.015V36.96H176.015ZM176.015 26.48H177.015C177.015 25.0718 176.747 23.8317 176.045 22.9272C175.306 21.9743 174.22 21.56 172.975 21.56V22.56V23.56C173.757 23.56 174.19 23.799 174.465 24.1528C174.777 24.5549 175.015 25.2749 175.015 26.48H176.015ZM172.975 22.56V21.56C171.715 21.56 170.582 21.9472 169.903 22.9653L170.735 23.52L171.567 24.0747C171.742 23.8128 172.101 23.56 172.975 23.56V22.56ZM170.735 23.52L169.891 22.9831C169.356 23.8243 169.175 25.0589 169.175 26.48H170.175H171.175C171.175 25.1277 171.367 24.389 171.579 24.0569L170.735 23.52ZM170.175 26.48H169.175V61.84H170.175H171.175V26.48H170.175ZM170.175 61.84H169.175C169.175 63.2872 169.425 64.5514 170.078 65.4767C170.776 66.4658 171.827 66.92 173.055 66.92V65.92V64.92C172.363 64.92 171.974 64.6942 171.712 64.3233C171.405 63.8886 171.175 63.1128 171.175 61.84H170.175ZM173.055 65.92V66.92C174.291 66.92 175.36 66.4864 176.079 65.5148C176.756 64.5996 177.015 63.3474 177.015 61.92H176.015H175.015C175.015 63.1593 174.781 63.9071 174.471 64.3252C174.203 64.6869 173.793 64.92 173.055 64.92V65.92ZM196.658 37.52H195.658V38.52H196.658V37.52ZM208.978 71.52L209.72 72.1903L209.725 72.1844L209.73 72.1785L208.978 71.52ZM187.618 74H186.618V75H187.618V74ZM187.618 14.48V13.48H186.618V14.48H187.618ZM196.658 14.48H197.658V13.48H196.658V14.48ZM196.658 65.36H195.658V66.36H196.658V65.36ZM201.458 64.32L200.606 63.7959L200.606 63.7959L201.458 64.32ZM201.458 47.28L200.563 47.7272L200.583 47.7666L200.606 47.8041L201.458 47.28ZM196.658 46.16V45.16H195.658V46.16H196.658ZM222.818 14.48H223.818V13.48H222.818V14.48ZM222.818 74V75H223.818V74H222.818ZM213.778 74H212.778V75H213.778V74ZM213.778 14.48V13.48H212.778V14.48H213.778ZM196.658 37.52V38.52H201.938V37.52V36.52H196.658V37.52ZM201.938 37.52V38.52C204.829 38.52 206.83 39.3659 208.134 40.9062C209.465 42.4783 210.218 44.9439 210.218 48.48H211.218H212.218C212.218 44.7094 211.423 41.695 209.661 39.6138C207.872 37.5008 205.233 36.52 201.938 36.52V37.52ZM211.218 48.48H210.218V63.6H211.218H212.218V48.48H211.218ZM211.218 63.6H210.218C210.218 67.0636 209.489 69.4168 208.225 70.8615L208.978 71.52L209.73 72.1785C211.453 70.2098 212.218 67.2831 212.218 63.6H211.218ZM208.978 71.52L208.235 70.8497C207.002 72.2149 204.981 73 201.938 73V74V75C205.294 75 207.966 74.1317 209.72 72.1903L208.978 71.52ZM201.938 74V73H187.618V74V75H201.938V74ZM187.618 74H188.618V14.48H187.618H186.618V74H187.618ZM187.618 14.48V15.48H196.658V14.48V13.48H187.618V14.48ZM196.658 14.48H195.658V37.52H196.658H197.658V14.48H196.658ZM196.658 65.36V66.36H198.978V65.36V64.36H196.658V65.36ZM198.978 65.36V66.36C200.363 66.36 201.62 65.9645 202.309 64.8441L201.458 64.32L200.606 63.7959C200.442 64.0622 200.046 64.36 198.978 64.36V65.36ZM201.458 64.32L202.309 64.8441C202.876 63.9223 203.098 62.6924 203.098 61.28H202.098H201.098C201.098 62.5343 200.892 63.331 200.606 63.7959L201.458 64.32ZM202.098 61.28H203.098V50.48H202.098H201.098V61.28H202.098ZM202.098 50.48H203.098C203.098 48.9786 202.882 47.6865 202.309 46.7559L201.458 47.28L200.606 47.8041C200.887 48.2602 201.098 49.1014 201.098 50.48H202.098ZM201.458 47.28L202.352 46.8328C201.728 45.5854 200.413 45.16 198.978 45.16V46.16V47.16C200.102 47.16 200.44 47.4812 200.563 47.7272L201.458 47.28ZM198.978 46.16V45.16H196.658V46.16V47.16H198.978V46.16ZM196.658 46.16H195.658V65.36H196.658H197.658V46.16H196.658ZM222.818 14.48H221.818V74H222.818H223.818V14.48H222.818ZM222.818 74V73H213.778V74V75H222.818V74ZM213.778 74H214.778V14.48H213.778H212.778V74H213.778ZM213.778 14.48V15.48H222.818V14.48V13.48H213.778V14.48Z" fill="#501A00" mask="url(#path-1-outside-1_3828_1305)"/>
<path d="M17.2 148V115.76L10.72 148H1.68V88.48H10.72V120.72L17.2 88.48H26.24V148H17.2ZM46.7356 121.84V148H37.6956V88.48H46.7356V112.32H52.8956V88.48H61.9356V148H52.8956V121.84H46.7356ZM80.5538 148L79.3538 136.8H72.7138L71.5938 148H63.5137L70.7938 88.48H81.5138L89.2738 148H80.5538ZM75.9938 105.92L73.6738 127.92H78.3938L75.9938 105.92ZM90.5863 148V88.48H108.746V97.12H99.6263V148H90.5863ZM125.457 123.28H120.177V148H111.137V88.48H125.457C128.71 88.48 131.057 89.2533 132.497 90.8C133.99 92.2933 134.737 94.8 134.737 98.32V112.4C134.737 119.653 131.644 123.28 125.457 123.28ZM120.177 96.56V114.72H122.497C123.777 114.72 124.604 114.373 124.977 113.68C125.404 112.933 125.617 111.84 125.617 110.4V100.64C125.617 99.3067 125.404 98.2933 124.977 97.6C124.55 96.9067 123.724 96.56 122.497 96.56H120.177ZM152.585 148L151.385 136.8H144.745L143.625 148H135.545L142.825 88.48H153.545L161.305 148H152.585ZM148.025 105.92L145.705 127.92H150.425L148.025 105.92ZM185.648 156.4V148H169.968V156.4H161.728V138.96H163.728C164.741 136.88 165.488 134.373 165.968 131.44C166.768 126.107 167.168 111.787 167.168 88.48H189.888V138.96H193.888V156.4H185.648ZM174.448 131.68C174.128 134.293 173.541 136.72 172.688 138.96H180.848V97.12H175.648C175.648 114.507 175.248 126.027 174.448 131.68ZM205.017 111.52H210.297C216.484 111.52 219.577 115.173 219.577 122.48V137.6C219.577 141.173 218.83 143.813 217.337 145.52C215.844 147.173 213.497 148 210.297 148H195.977V88.48H205.017V111.52ZM205.017 139.36H207.337C208.564 139.36 209.39 139.013 209.817 138.32C210.244 137.627 210.457 136.613 210.457 135.28V124.48C210.457 123.04 210.244 121.973 209.817 121.28C209.444 120.533 208.617 120.16 207.337 120.16H205.017V139.36ZM231.177 88.48V148H222.137V88.48H231.177Z" fill="#9C3202"/>
</svg>
