<svg width="1171" height="205" viewBox="0 0 1171 205" fill="none" xmlns="http://www.w3.org/2000/svg">
<mask id="path-1-outside-1_3828_1304" maskUnits="userSpaceOnUse" x="2" y="31" width="558" height="157" fill="black">
<rect fill="white" x="2" y="31" width="558" height="157"/>
<path d="M45.6 184L26.8 119.4V184H4.2V35.2H26.8V94.8L44.6 35.2H66.6L45.6 104.4L68.8 184H45.6ZM133.378 67.8V150.8C133.378 174.133 123.778 185.8 104.578 185.8H100.778C81.3115 185.8 71.5781 174.133 71.5781 150.8V68C71.5781 45.2 81.2448 33.8 100.578 33.8H104.378C114.778 33.8 122.178 36.7333 126.578 42.6C131.111 48.4667 133.378 56.8667 133.378 67.8ZM110.378 152.4V66.8C110.378 59.2 107.778 55.4 102.578 55.4C97.2448 55.4 94.5781 59.2 94.5781 66.8V152.4C94.5781 160 97.3115 163.8 102.778 163.8C107.845 163.8 110.378 160 110.378 152.4ZM163.323 118.6V184H140.723V35.2H163.323V94.8H178.723V35.2H201.323V184H178.723V118.6H163.323ZM251.069 184L232.269 119.4V184H209.669V35.2H232.269V94.8L250.069 35.2H272.069L251.069 104.4L274.269 184H251.069ZM333.247 35.2L311.647 164.4C310.447 171.733 308.58 176.867 306.047 179.8C303.514 182.6 299.38 184 293.647 184H279.047V161H284.247C285.447 161 286.38 160.8 287.047 160.4C287.847 160 288.38 159.467 288.647 158.8C288.914 158.133 289.18 157.267 289.447 156.2L290.047 151.6C290.447 149.2 290.18 145.2 289.247 139.6L272.447 35.2H295.447L303.847 101L311.847 35.2H333.247ZM373.017 122.2H359.817V184H337.217V35.2H373.017C381.151 35.2 387.017 37.1333 390.617 41C394.351 44.7333 396.217 51 396.217 59.8V95C396.217 113.133 388.484 122.2 373.017 122.2ZM359.817 55.4V100.8H365.617C368.817 100.8 370.884 99.9333 371.817 98.2C372.884 96.3333 373.417 93.6 373.417 90V65.6C373.417 62.2667 372.884 59.7333 371.817 58C370.751 56.2667 368.684 55.4 365.617 55.4H359.817ZM440.038 153.8V119.2H462.238V153.6C462.238 175.067 453.238 185.8 435.238 185.8H430.238C411.704 185.8 402.438 175.333 402.438 154.4V63.6C402.438 55.0667 404.571 48 408.838 42.4C413.104 36.6667 419.971 33.8 429.438 33.8H434.638C440.504 33.8 445.371 34.6667 449.238 36.4C453.238 38.1333 456.104 40.6667 457.838 44C459.571 47.3333 460.704 50.6 461.238 53.8C461.904 56.8667 462.238 60.5333 462.238 64.8V91.4H440.038V65.2C440.038 58.6667 437.504 55.4 432.438 55.4C429.771 55.4 427.904 56.2 426.838 57.8C425.904 59.2667 425.438 61.7333 425.438 65.2V153.6C425.438 160.4 427.838 163.8 432.638 163.8C437.571 163.8 440.038 160.467 440.038 153.8ZM491.644 92.8H504.844C520.31 92.8 528.044 101.933 528.044 120.2V158C528.044 166.933 526.177 173.533 522.444 177.8C518.71 181.933 512.844 184 504.844 184H469.044V35.2H491.644V92.8ZM491.644 162.4H497.444C500.51 162.4 502.577 161.533 503.644 159.8C504.71 158.067 505.244 155.533 505.244 152.2V125.2C505.244 121.6 504.71 118.933 503.644 117.2C502.71 115.333 500.644 114.4 497.444 114.4H491.644V162.4ZM557.044 35.2V184H534.444V35.2H557.044Z"/>
</mask>
<path d="M45.6 184L43.6797 184.559L44.0991 186H45.6V184ZM26.8 119.4L28.7203 118.841L24.8 119.4H26.8ZM26.8 184V186H28.8V184H26.8ZM4.2 184H2.2V186H4.2V184ZM4.2 35.2V33.2H2.2V35.2H4.2ZM26.8 35.2H28.8V33.2H26.8V35.2ZM26.8 94.8H24.8L28.7164 95.3723L26.8 94.8ZM44.6 35.2V33.2H43.11L42.6836 34.6277L44.6 35.2ZM66.6 35.2L68.5138 35.7808L69.297 33.2H66.6V35.2ZM45.6 104.4L43.6862 103.819L43.5134 104.388L43.6799 104.96L45.6 104.4ZM68.8 184V186H71.4661L70.7201 183.44L68.8 184ZM45.6 184L47.5203 183.441L28.7203 118.841L26.8 119.4L24.8797 119.959L43.6797 184.559L45.6 184ZM26.8 119.4H24.8V184H26.8H28.8V119.4H26.8ZM26.8 184V182H4.2V184V186H26.8V184ZM4.2 184H6.2V35.2H4.2H2.2V184H4.2ZM4.2 35.2V37.2H26.8V35.2V33.2H4.2V35.2ZM26.8 35.2H24.8V94.8H26.8H28.8V35.2H26.8ZM26.8 94.8L28.7164 95.3723L46.5164 35.7723L44.6 35.2L42.6836 34.6277L24.8836 94.2277L26.8 94.8ZM44.6 35.2V37.2H66.6V35.2V33.2H44.6V35.2ZM66.6 35.2L64.6862 34.6192L43.6862 103.819L45.6 104.4L47.5138 104.981L68.5138 35.7808L66.6 35.2ZM45.6 104.4L43.6799 104.96L66.8799 184.56L68.8 184L70.7201 183.44L47.5201 103.84L45.6 104.4ZM68.8 184V182H45.6V184V186H68.8V184ZM126.578 42.6L124.978 43.8L124.987 43.8115L124.996 43.8229L126.578 42.6ZM133.378 67.8H131.378V150.8H133.378H135.378V67.8H133.378ZM133.378 150.8H131.378C131.378 162.243 129.016 170.453 124.634 175.779C120.313 181.03 113.756 183.8 104.578 183.8V185.8V187.8C114.6 187.8 122.444 184.736 127.722 178.321C132.94 171.98 135.378 162.69 135.378 150.8H133.378ZM104.578 185.8V183.8H100.778V185.8V187.8H104.578V185.8ZM100.778 185.8V183.8C91.4579 183.8 84.7986 181.024 80.4138 175.769C75.9712 170.444 73.5781 162.238 73.5781 150.8H71.5781H69.5781C69.5781 162.696 72.0517 171.99 77.3424 178.331C82.691 184.742 90.6317 187.8 100.778 187.8V185.8ZM71.5781 150.8H73.5781V68H71.5781H69.5781V150.8H71.5781ZM71.5781 68H73.5781C73.5781 56.8351 75.9519 48.8344 80.3535 43.6435C84.7016 38.5158 91.314 35.8 100.578 35.8V33.8V31.8C90.5089 31.8 82.6213 34.7842 77.3027 41.0565C72.0377 47.2656 69.5781 56.3649 69.5781 68H71.5781ZM100.578 33.8V35.8H104.378V33.8V31.8H100.578V33.8ZM104.378 33.8V35.8C114.428 35.8 121.097 38.6247 124.978 43.8L126.578 42.6L128.178 41.4C123.26 34.842 115.129 31.8 104.378 31.8V33.8ZM126.578 42.6L124.996 43.8229C129.156 49.2076 131.378 57.1075 131.378 67.8H133.378H135.378C135.378 56.6258 133.066 47.7257 128.161 41.3771L126.578 42.6ZM110.378 152.4H112.378V66.8H110.378H108.378V152.4H110.378ZM110.378 66.8H112.378C112.378 62.8342 111.711 59.5063 110.079 57.1206C108.353 54.5985 105.739 53.4 102.578 53.4V55.4V57.4C104.617 57.4 105.903 58.1015 106.778 59.3794C107.745 60.7937 108.378 63.1658 108.378 66.8H110.378ZM102.578 55.4V53.4C99.3716 53.4 96.7087 54.5821 94.941 57.1011C93.264 59.4909 92.5781 62.8273 92.5781 66.8H94.5781H96.5781C96.5781 63.1727 97.2256 60.8091 98.2152 59.3988C99.1142 58.1179 100.451 57.4 102.578 57.4V55.4ZM94.5781 66.8H92.5781V152.4H94.5781H96.5781V66.8H94.5781ZM94.5781 152.4H92.5781C92.5781 156.38 93.283 159.725 95.0045 162.118C96.8137 164.633 99.5247 165.8 102.778 165.8V163.8V161.8C100.565 161.8 99.1759 161.067 98.2517 159.782C97.2399 158.375 96.5781 156.02 96.5781 152.4H94.5781ZM102.778 163.8V165.8C105.894 165.8 108.459 164.584 110.142 162.059C111.73 159.678 112.378 156.359 112.378 152.4H110.378H108.378C108.378 156.041 107.76 158.422 106.814 159.841C105.964 161.116 104.729 161.8 102.778 161.8V163.8ZM163.323 118.6V116.6H161.323V118.6H163.323ZM163.323 184V186H165.323V184H163.323ZM140.723 184H138.723V186H140.723V184ZM140.723 35.2V33.2H138.723V35.2H140.723ZM163.323 35.2H165.323V33.2H163.323V35.2ZM163.323 94.8H161.323V96.8H163.323V94.8ZM178.723 94.8V96.8H180.723V94.8H178.723ZM178.723 35.2V33.2H176.723V35.2H178.723ZM201.323 35.2H203.323V33.2H201.323V35.2ZM201.323 184V186H203.323V184H201.323ZM178.723 184H176.723V186H178.723V184ZM178.723 118.6H180.723V116.6H178.723V118.6ZM163.323 118.6H161.323V184H163.323H165.323V118.6H163.323ZM163.323 184V182H140.723V184V186H163.323V184ZM140.723 184H142.723V35.2H140.723H138.723V184H140.723ZM140.723 35.2V37.2H163.323V35.2V33.2H140.723V35.2ZM163.323 35.2H161.323V94.8H163.323H165.323V35.2H163.323ZM163.323 94.8V96.8H178.723V94.8V92.8H163.323V94.8ZM178.723 94.8H180.723V35.2H178.723H176.723V94.8H178.723ZM178.723 35.2V37.2H201.323V35.2V33.2H178.723V35.2ZM201.323 35.2H199.323V184H201.323H203.323V35.2H201.323ZM201.323 184V182H178.723V184V186H201.323V184ZM178.723 184H180.723V118.6H178.723H176.723V184H178.723ZM178.723 118.6V116.6H163.323V118.6V120.6H178.723V118.6ZM251.069 184L249.148 184.559L249.568 186H251.069V184ZM232.269 119.4L234.189 118.841L230.269 119.4H232.269ZM232.269 184V186H234.269V184H232.269ZM209.669 184H207.669V186H209.669V184ZM209.669 35.2V33.2H207.669V35.2H209.669ZM232.269 35.2H234.269V33.2H232.269V35.2ZM232.269 94.8H230.269L234.185 95.3723L232.269 94.8ZM250.069 35.2V33.2H248.579L248.152 34.6277L250.069 35.2ZM272.069 35.2L273.983 35.7808L274.766 33.2H272.069V35.2ZM251.069 104.4L249.155 103.819L248.982 104.388L249.149 104.96L251.069 104.4ZM274.269 184V186H276.935L276.189 183.44L274.269 184ZM251.069 184L252.989 183.441L234.189 118.841L232.269 119.4L230.348 119.959L249.148 184.559L251.069 184ZM232.269 119.4H230.269V184H232.269H234.269V119.4H232.269ZM232.269 184V182H209.669V184V186H232.269V184ZM209.669 184H211.669V35.2H209.669H207.669V184H209.669ZM209.669 35.2V37.2H232.269V35.2V33.2H209.669V35.2ZM232.269 35.2H230.269V94.8H232.269H234.269V35.2H232.269ZM232.269 94.8L234.185 95.3723L251.985 35.7723L250.069 35.2L248.152 34.6277L230.352 94.2277L232.269 94.8ZM250.069 35.2V37.2H272.069V35.2V33.2H250.069V35.2ZM272.069 35.2L270.155 34.6192L249.155 103.819L251.069 104.4L252.983 104.981L273.983 35.7808L272.069 35.2ZM251.069 104.4L249.149 104.96L272.349 184.56L274.269 184L276.189 183.44L252.989 103.84L251.069 104.4ZM274.269 184V182H251.069V184V186H274.269V184ZM333.247 35.2L335.22 35.5298L335.609 33.2H333.247V35.2ZM311.647 164.4L309.674 164.07L309.673 164.077L311.647 164.4ZM306.047 179.8L307.53 181.142L307.545 181.125L307.561 181.107L306.047 179.8ZM279.047 184H277.047V186H279.047V184ZM279.047 161V159H277.047V161H279.047ZM287.047 160.4L286.152 158.611L286.084 158.645L286.018 158.685L287.047 160.4ZM288.647 158.8L286.79 158.057L288.647 158.8ZM289.447 156.2L291.387 156.685L291.415 156.573L291.43 156.459L289.447 156.2ZM290.047 151.6L288.074 151.271L288.068 151.306L288.064 151.341L290.047 151.6ZM289.247 139.6L287.272 139.918L287.274 139.929L289.247 139.6ZM272.447 35.2V33.2H270.099L270.472 35.5177L272.447 35.2ZM295.447 35.2L297.431 34.9467L297.208 33.2H295.447V35.2ZM303.847 101L301.863 101.253L305.832 101.241L303.847 101ZM311.847 35.2V33.2H310.075L309.862 34.9586L311.847 35.2ZM333.247 35.2L331.274 34.8702L309.674 164.07L311.647 164.4L313.62 164.73L335.22 35.5298L333.247 35.2ZM311.647 164.4L309.673 164.077C308.487 171.326 306.69 175.995 304.533 178.493L306.047 179.8L307.561 181.107C310.47 177.738 312.407 172.141 313.621 164.723L311.647 164.4ZM306.047 179.8L304.564 178.458C302.569 180.663 299.108 182 293.647 182V184V186C299.653 186 304.458 184.537 307.53 181.142L306.047 179.8ZM293.647 184V182H279.047V184V186H293.647V184ZM279.047 184H281.047V161H279.047H277.047V184H279.047ZM279.047 161V163H284.247V161V159H279.047V161ZM284.247 161V163C285.628 163 286.973 162.777 288.076 162.115L287.047 160.4L286.018 158.685C285.787 158.823 285.265 159 284.247 159V161ZM287.047 160.4L287.941 162.189C289.068 161.626 290.014 160.768 290.504 159.543L288.647 158.8L286.79 158.057C286.747 158.165 286.626 158.374 286.152 158.611L287.047 160.4ZM288.647 158.8L290.504 159.543C290.817 158.761 291.109 157.799 291.387 156.685L289.447 156.2L287.507 155.715C287.252 156.735 287.01 157.506 286.79 158.057L288.647 158.8ZM289.447 156.2L291.43 156.459L292.03 151.859L290.047 151.6L288.064 151.341L287.464 155.941L289.447 156.2ZM290.047 151.6L292.02 151.929C292.48 149.169 292.154 144.876 291.22 139.271L289.247 139.6L287.274 139.929C288.207 145.524 288.414 149.231 288.074 151.271L290.047 151.6ZM289.247 139.6L291.221 139.282L274.421 34.8822L272.447 35.2L270.472 35.5177L287.272 139.918L289.247 139.6ZM272.447 35.2V37.2H295.447V35.2V33.2H272.447V35.2ZM295.447 35.2L293.463 35.4533L301.863 101.253L303.847 101L305.831 100.747L297.431 34.9467L295.447 35.2ZM303.847 101L305.832 101.241L313.832 35.4414L311.847 35.2L309.862 34.9586L301.862 100.759L303.847 101ZM311.847 35.2V37.2H333.247V35.2V33.2H311.847V35.2ZM359.817 122.2V120.2H357.817V122.2H359.817ZM359.817 184V186H361.817V184H359.817ZM337.217 184H335.217V186H337.217V184ZM337.217 35.2V33.2H335.217V35.2H337.217ZM390.617 41L389.153 42.3628L389.178 42.389L389.203 42.4142L390.617 41ZM359.817 55.4V53.4H357.817V55.4H359.817ZM359.817 100.8H357.817V102.8H359.817V100.8ZM371.817 98.2L370.081 97.2077L370.068 97.2296L370.056 97.2518L371.817 98.2ZM371.817 58L373.521 56.9518V56.9518L371.817 58ZM373.017 122.2V120.2H359.817V122.2V124.2H373.017V122.2ZM359.817 122.2H357.817V184H359.817H361.817V122.2H359.817ZM359.817 184V182H337.217V184V186H359.817V184ZM337.217 184H339.217V35.2H337.217H335.217V184H337.217ZM337.217 35.2V37.2H373.017V35.2V33.2H337.217V35.2ZM373.017 35.2V37.2C380.891 37.2 386.095 39.0778 389.153 42.3628L390.617 41L392.081 39.6372C387.94 35.1889 381.41 33.2 373.017 33.2V35.2ZM390.617 41L389.203 42.4142C392.377 45.5884 394.217 51.196 394.217 59.8H396.217H398.217C398.217 50.804 396.324 43.8782 392.031 39.5858L390.617 41ZM396.217 59.8H394.217V95H396.217H398.217V59.8H396.217ZM396.217 95H394.217C394.217 103.829 392.328 110.078 388.896 114.102C385.515 118.065 380.352 120.2 373.017 120.2V122.2V124.2C381.149 124.2 387.586 121.802 391.939 116.698C396.24 111.655 398.217 104.304 398.217 95H396.217ZM359.817 55.4H357.817V100.8H359.817H361.817V55.4H359.817ZM359.817 100.8V102.8H365.617V100.8V98.8H359.817V100.8ZM365.617 100.8V102.8C369.064 102.8 372.113 101.869 373.578 99.1482L371.817 98.2L370.056 97.2518C369.655 97.9977 368.571 98.8 365.617 98.8V100.8ZM371.817 98.2L373.554 99.1923C374.873 96.8835 375.417 93.7405 375.417 90H373.417H371.417C371.417 93.4595 370.895 95.7832 370.081 97.2077L371.817 98.2ZM373.417 90H375.417V65.6H373.417H371.417V90H373.417ZM373.417 65.6H375.417C375.417 62.1086 374.868 59.142 373.521 56.9518L371.817 58L370.114 59.0482C370.899 60.3246 371.417 62.4247 371.417 65.6H373.417ZM371.817 58L373.521 56.9518C371.928 54.3644 369.001 53.4 365.617 53.4V55.4V57.4C368.367 57.4 369.573 58.169 370.114 59.0482L371.817 58ZM365.617 55.4V53.4H359.817V55.4V57.4H365.617V55.4ZM440.038 119.2V117.2H438.038V119.2H440.038ZM462.237 119.2H464.237V117.2H462.237V119.2ZM408.837 42.4L410.428 43.6121L410.435 43.6031L410.442 43.594L408.837 42.4ZM449.237 36.4L448.419 38.225L448.431 38.2301L448.442 38.2351L449.237 36.4ZM457.837 44L459.612 43.0773V43.0773L457.837 44ZM461.237 53.8L459.265 54.1288L459.273 54.1771L459.283 54.2249L461.237 53.8ZM462.237 91.4V93.4H464.237V91.4H462.237ZM440.038 91.4H438.038V93.4H440.038V91.4ZM426.837 57.8L425.173 56.6906L425.162 56.7083L425.15 56.7262L426.837 57.8ZM440.038 153.8H442.038V119.2H440.038H438.038V153.8H440.038ZM440.038 119.2V121.2H462.237V119.2V117.2H440.038V119.2ZM462.237 119.2H460.237V153.6H462.237H464.237V119.2H462.237ZM462.237 153.6H460.237C460.237 164.103 458.029 171.607 453.955 176.465C449.938 181.256 443.828 183.8 435.237 183.8V185.8V187.8C444.647 187.8 452.037 184.978 457.02 179.035C461.946 173.16 464.237 164.564 464.237 153.6H462.237ZM435.237 185.8V183.8H430.237V185.8V187.8H435.237V185.8ZM430.237 185.8V183.8C421.347 183.8 415.025 181.301 410.885 176.624C406.704 171.901 404.438 164.614 404.438 154.4H402.438H400.438C400.438 165.119 402.805 173.532 407.89 179.276C413.016 185.066 420.595 187.8 430.237 187.8V185.8ZM402.438 154.4H404.438V63.6H402.438H400.438V154.4H402.438ZM402.438 63.6H404.438C404.438 55.4092 406.48 48.7948 410.428 43.6121L408.837 42.4L407.247 41.1879C402.662 47.2052 400.438 54.7241 400.438 63.6H402.438ZM408.837 42.4L410.442 43.594C414.215 38.5236 420.38 35.8 429.438 35.8V33.8V31.8C419.562 31.8 411.993 34.8097 407.233 41.206L408.837 42.4ZM429.438 33.8V35.8H434.638V33.8V31.8H429.438V33.8ZM434.638 33.8V35.8C440.324 35.8 444.889 36.6424 448.419 38.225L449.237 36.4L450.056 34.575C445.853 32.6909 440.685 31.8 434.638 31.8V33.8ZM449.237 36.4L448.442 38.2351C452.092 39.8165 454.575 42.0606 456.063 44.9227L457.837 44L459.612 43.0773C457.634 39.2727 454.383 36.4501 450.033 34.5649L449.237 36.4ZM457.837 44L456.063 44.9227C457.715 48.0985 458.771 51.1657 459.265 54.1288L461.237 53.8L463.21 53.4712C462.637 50.0343 461.427 46.5681 459.612 43.0773L457.837 44ZM461.237 53.8L459.283 54.2249C459.911 57.1123 460.237 60.6289 460.237 64.8H462.237H464.237C464.237 60.4377 463.897 56.621 463.192 53.3751L461.237 53.8ZM462.237 64.8H460.237V91.4H462.237H464.237V64.8H462.237ZM462.237 91.4V89.4H440.038V91.4V93.4H462.237V91.4ZM440.038 91.4H442.038V65.2H440.038H438.038V91.4H440.038ZM440.038 65.2H442.038C442.038 61.7302 441.374 58.7602 439.718 56.6243C437.987 54.392 435.434 53.4 432.438 53.4V55.4V57.4C434.507 57.4 435.755 58.0413 436.557 59.0756C437.434 60.2065 438.038 62.1364 438.038 65.2H440.038ZM432.438 55.4V53.4C429.385 53.4 426.744 54.3344 425.173 56.6906L426.837 57.8L428.502 58.9094C429.064 58.0656 430.157 57.4 432.438 57.4V55.4ZM426.837 57.8L425.15 56.7262C423.893 58.702 423.438 61.6645 423.438 65.2H425.438H427.438C427.438 61.8021 427.915 59.8314 428.525 58.8737L426.837 57.8ZM425.438 65.2H423.438V153.6H425.438H427.438V65.2H425.438ZM425.438 153.6H423.438C423.438 157.174 424.057 160.213 425.604 162.403C427.24 164.722 429.702 165.8 432.638 165.8V163.8V161.8C430.773 161.8 429.635 161.178 428.871 160.097C428.018 158.887 427.438 156.826 427.438 153.6H425.438ZM432.638 163.8V165.8C435.602 165.8 438.111 164.766 439.795 162.49C441.396 160.326 442.038 157.322 442.038 153.8H440.038H438.038C438.038 156.945 437.445 158.941 436.58 160.11C435.798 161.167 434.606 161.8 432.638 161.8V163.8ZM491.644 92.8H489.644V94.8H491.644V92.8ZM522.444 177.8L523.928 179.141L523.939 179.129L523.949 179.117L522.444 177.8ZM469.044 184H467.044V186H469.044V184ZM469.044 35.2V33.2H467.044V35.2H469.044ZM491.644 35.2H493.644V33.2H491.644V35.2ZM491.644 162.4H489.644V164.4H491.644V162.4ZM503.644 159.8L501.94 158.752L503.644 159.8ZM503.644 117.2L501.855 118.094L501.894 118.173L501.94 118.248L503.644 117.2ZM491.644 114.4V112.4H489.644V114.4H491.644ZM557.044 35.2H559.044V33.2H557.044V35.2ZM557.044 184V186H559.044V184H557.044ZM534.444 184H532.444V186H534.444V184ZM534.444 35.2V33.2H532.444V35.2H534.444ZM491.644 92.8V94.8H504.844V92.8V90.8H491.644V92.8ZM504.844 92.8V94.8C512.174 94.8 517.336 96.9485 520.717 100.942C524.153 105 526.044 111.301 526.044 120.2H528.044H530.044C530.044 110.832 528.068 103.433 523.77 98.3576C519.418 93.2182 512.981 90.8 504.844 90.8V92.8ZM528.044 120.2H526.044V158H528.044H530.044V120.2H528.044ZM528.044 158H526.044C526.044 166.714 524.213 172.74 520.939 176.483L522.444 177.8L523.949 179.117C528.141 174.326 530.044 167.153 530.044 158H528.044ZM522.444 177.8L520.96 176.459C517.747 180.017 512.53 182 504.844 182V184V186C513.157 186 519.674 183.85 523.928 179.141L522.444 177.8ZM504.844 184V182H469.044V184V186H504.844V184ZM469.044 184H471.044V35.2H469.044H467.044V184H469.044ZM469.044 35.2V37.2H491.644V35.2V33.2H469.044V35.2ZM491.644 35.2H489.644V92.8H491.644H493.644V35.2H491.644ZM491.644 162.4V164.4H497.444V162.4V160.4H491.644V162.4ZM497.444 162.4V164.4C500.827 164.4 503.755 163.436 505.347 160.848L503.644 159.8L501.94 158.752C501.399 159.631 500.193 160.4 497.444 160.4V162.4ZM503.644 159.8L505.347 160.848C506.695 158.658 507.244 155.691 507.244 152.2H505.244H503.244C503.244 155.375 502.726 157.475 501.94 158.752L503.644 159.8ZM505.244 152.2H507.244V125.2H505.244H503.244V152.2H505.244ZM505.244 125.2H507.244C507.244 121.477 506.706 118.36 505.347 116.152L503.644 117.2L501.94 118.248C502.715 119.507 503.244 121.723 503.244 125.2H505.244ZM503.644 117.2L505.433 116.306C503.999 113.437 500.954 112.4 497.444 112.4V114.4V116.4C500.333 116.4 501.422 117.229 501.855 118.094L503.644 117.2ZM497.444 114.4V112.4H491.644V114.4V116.4H497.444V114.4ZM491.644 114.4H489.644V162.4H491.644H493.644V114.4H491.644ZM557.044 35.2H555.044V184H557.044H559.044V35.2H557.044ZM557.044 184V182H534.444V184V186H557.044V184ZM534.444 184H536.444V35.2H534.444H532.444V184H534.444ZM534.444 35.2V37.2H557.044V35.2V33.2H534.444V35.2Z" fill="#501A00" mask="url(#path-1-outside-1_3828_1304)"/>
<path d="M632 184V103.4L615.8 184H593.2V35.2H615.8V115.8L632 35.2H654.6V184H632ZM705.839 118.6V184H683.239V35.2H705.839V94.8H721.239V35.2H743.839V184H721.239V118.6H705.839ZM790.384 184L787.384 156H770.784L767.984 184H747.784L765.984 35.2H792.784L812.184 184H790.384ZM778.984 78.8L773.184 133.8H784.984L778.984 78.8ZM815.466 184V35.2H860.866V56.8H838.066V184H815.466ZM902.642 122.2H889.442V184H866.842V35.2H902.642C910.776 35.2 916.642 37.1333 920.242 41C923.976 44.7333 925.842 51 925.842 59.8V95C925.842 113.133 918.109 122.2 902.642 122.2ZM889.442 55.4V100.8H895.242C898.442 100.8 900.509 99.9333 901.442 98.2C902.509 96.3333 903.042 93.6 903.042 90V65.6C903.042 62.2667 902.509 59.7333 901.442 58C900.376 56.2667 898.309 55.4 895.242 55.4H889.442ZM970.463 184L967.463 156H950.863L948.063 184H927.862L946.063 35.2H972.863L992.263 184H970.463ZM959.063 78.8L953.263 133.8H965.063L959.063 78.8ZM1053.12 205V184H1013.92V205H993.32V161.4H998.32C1000.85 156.2 1002.72 149.933 1003.92 142.6C1005.92 129.267 1006.92 93.4667 1006.92 35.2H1063.72V161.4H1073.72V205H1053.12ZM1025.12 143.2C1024.32 149.733 1022.85 155.8 1020.72 161.4H1041.12V56.8H1028.12C1028.12 100.267 1027.12 129.067 1025.12 143.2ZM1101.54 92.8H1114.74C1130.21 92.8 1137.94 101.933 1137.94 120.2V158C1137.94 166.933 1136.08 173.533 1132.34 177.8C1128.61 181.933 1122.74 184 1114.74 184H1078.94V35.2H1101.54V92.8ZM1101.54 162.4H1107.34C1110.41 162.4 1112.48 161.533 1113.54 159.8C1114.61 158.067 1115.14 155.533 1115.14 152.2V125.2C1115.14 121.6 1114.61 118.933 1113.54 117.2C1112.61 115.333 1110.54 114.4 1107.34 114.4H1101.54V162.4ZM1166.94 35.2V184H1144.34V35.2H1166.94Z" fill="#9C3202"/>
</svg>
