<svg width="295" height="107" viewBox="0 0 295 107" fill="none" xmlns="http://www.w3.org/2000/svg">
<path d="M18.74 11.14V36.04C18.74 43.04 15.86 46.54 10.1 46.54H8.96C3.12 46.54 0.2 43.04 0.2 36.04V11.2C0.2 4.36 3.1 0.939997 8.9 0.939997H10.04C13.16 0.939997 15.38 1.82 16.7 3.58C18.06 5.34 18.74 7.86 18.74 11.14ZM11.84 36.52V10.84C11.84 8.56 11.06 7.42 9.5 7.42C7.9 7.42 7.1 8.56 7.1 10.84V36.52C7.1 38.8 7.92 39.94 9.56 39.94C11.08 39.94 11.84 38.8 11.84 36.52ZM20.2236 1.36H38.3436V7.84H32.6436V46H25.9236V7.84H20.2236V1.36ZM52.348 46L46.708 26.62V46H39.928V1.36H46.708V19.24L52.048 1.36H58.648L52.348 22.12L59.308 46H52.348ZM71.0614 27.46H67.1014V46H60.3214V1.36H71.0614C73.5014 1.36 75.2614 1.94 76.3414 3.1C77.4614 4.22 78.0214 6.1 78.0214 8.74V19.3C78.0214 24.74 75.7014 27.46 71.0614 27.46ZM67.1014 7.42V21.04H68.8414C69.8014 21.04 70.4214 20.78 70.7014 20.26C71.0214 19.7 71.1814 18.88 71.1814 17.8V10.48C71.1814 9.48 71.0214 8.72 70.7014 8.2C70.3814 7.68 69.7614 7.42 68.8414 7.42H67.1014ZM86.7275 18.64H90.6875C95.3275 18.64 97.6475 21.38 97.6475 26.86V38.2C97.6475 40.88 97.0875 42.86 95.9675 44.14C94.8475 45.38 93.0875 46 90.6875 46H79.9475V1.36H86.7275V18.64ZM86.7275 39.52H88.4675C89.3875 39.52 90.0075 39.26 90.3275 38.74C90.6475 38.22 90.8075 37.46 90.8075 36.46V28.36C90.8075 27.28 90.6475 26.48 90.3275 25.96C90.0475 25.4 89.4275 25.12 88.4675 25.12H86.7275V39.52ZM106.348 1.36V46H99.5675V1.36H106.348ZM108.056 1.36H126.176V7.84H120.476V46H113.756V7.84H108.056V1.36ZM139.4 46V21.82L134.54 46H127.76V1.36H134.54V25.54L139.4 1.36H146.18V46H139.4ZM148.798 1.36H164.218V7.84H155.578V19.54H162.358V26.32H155.578V39.22H164.578V46H148.798V1.36ZM178.591 10.12V17.2H171.931V9.64C171.931 7.04 172.591 4.94 173.911 3.34C175.231 1.74 177.171 0.939997 179.731 0.939997H181.111C184.031 0.939997 186.131 1.6 187.411 2.92C188.691 4.24 189.331 6.22 189.331 8.86V16.3C189.331 19.34 188.211 21.32 185.971 22.24C188.571 23.04 189.871 25.22 189.871 28.78V38.32C189.871 40.64 189.211 42.6 187.891 44.2C186.571 45.76 184.511 46.54 181.711 46.54H179.911C177.431 46.54 175.471 45.76 174.031 44.2C172.631 42.64 171.931 40.86 171.931 38.86V29.08H178.591V37.54C178.591 39.14 179.331 39.94 180.811 39.94C182.251 39.94 182.971 39.14 182.971 37.54V28.48C182.971 27.04 182.271 26.32 180.871 26.32H177.811V19.54H180.871C181.911 19.54 182.431 18.46 182.431 16.3V10.12C182.431 8.32 181.791 7.42 180.511 7.42C179.231 7.42 178.591 8.32 178.591 10.12ZM203.497 46L202.597 37.6H197.617L196.777 46H190.717L196.177 1.36H204.217L210.037 46H203.497ZM200.077 14.44L198.337 30.94H201.877L200.077 14.44ZM211.142 46V1.36H221.822C224.462 1.36 226.302 1.98 227.342 3.22C228.422 4.46 228.962 6.26 228.962 8.62V15.46C228.962 18.74 227.842 20.8 225.602 21.64C228.202 22.64 229.502 24.82 229.502 28.18V37.84C229.502 40.36 228.902 42.36 227.702 43.84C226.542 45.28 224.742 46 222.302 46H211.142ZM219.962 25.66H217.922V39.7H219.962C221.002 39.7 221.702 39.46 222.062 38.98C222.422 38.5 222.602 37.74 222.602 36.7V28.54C222.602 27.54 222.422 26.82 222.062 26.38C221.702 25.9 221.002 25.66 219.962 25.66ZM219.962 7.42H217.922V19H219.962C221.522 19 222.302 17.96 222.302 15.88V10.24C222.302 9.24 222.122 8.52 221.762 8.08C221.442 7.64 220.842 7.42 219.962 7.42ZM249.951 11.14V36.04C249.951 43.04 247.071 46.54 241.311 46.54H240.171C234.331 46.54 231.411 43.04 231.411 36.04V11.2C231.411 4.36 234.311 0.939997 240.111 0.939997H241.251C244.371 0.939997 246.591 1.82 247.911 3.58C249.271 5.34 249.951 7.86 249.951 11.14ZM243.051 36.52V10.84C243.051 8.56 242.271 7.42 240.711 7.42C239.111 7.42 238.311 8.56 238.311 10.84V36.52C238.311 38.8 239.131 39.94 240.771 39.94C242.291 39.94 243.051 38.8 243.051 36.52ZM268.842 52.3V46H257.082V52.3H250.902V39.22H252.402C253.162 37.66 253.722 35.78 254.082 33.58C254.682 29.58 254.982 18.84 254.982 1.36H272.022V39.22H275.022V52.3H268.842ZM260.442 33.76C260.202 35.72 259.762 37.54 259.122 39.22H265.242V7.84H261.342C261.342 20.88 261.042 29.52 260.442 33.76ZM288.048 46L287.148 37.6H282.168L281.328 46H275.268L280.728 1.36H288.768L294.588 46H288.048ZM284.628 14.44L282.888 30.94H286.428L284.628 14.44Z" fill="#1A1A1A"/>
<path d="M0.38 106V61.36H11.06C13.7 61.36 15.54 61.98 16.58 63.22C17.66 64.46 18.2 66.26 18.2 68.62V75.46C18.2 78.74 17.08 80.8 14.84 81.64C17.44 82.64 18.74 84.82 18.74 88.18V97.84C18.74 100.36 18.14 102.36 16.94 103.84C15.78 105.28 13.98 106 11.54 106H0.38ZM9.2 85.66H7.16V99.7H9.2C10.24 99.7 10.94 99.46 11.3 98.98C11.66 98.5 11.84 97.74 11.84 96.7V88.54C11.84 87.54 11.66 86.82 11.3 86.38C10.94 85.9 10.24 85.66 9.2 85.66ZM9.2 67.42H7.16V79H9.2C10.76 79 11.54 77.96 11.54 75.88V70.24C11.54 69.24 11.36 68.52 11 68.08C10.68 67.64 10.08 67.42 9.2 67.42ZM26.803 106V61.36H43.183V67.84H33.583V78.64H37.543C42.183 78.64 44.503 81.38 44.503 86.86V98.2C44.503 100.88 43.943 102.86 42.823 104.14C41.703 105.38 39.943 106 37.543 106H26.803ZM33.583 99.52H35.323C36.243 99.52 36.863 99.26 37.183 98.74C37.503 98.22 37.663 97.46 37.663 96.46V88.36C37.663 87.28 37.503 86.48 37.183 85.96C36.903 85.4 36.283 85.12 35.323 85.12H33.583V99.52ZM65.0877 71.14V96.04C65.0877 103.04 62.2077 106.54 56.4477 106.54H55.3077C49.4677 106.54 46.5477 103.04 46.5477 96.04V71.2C46.5477 64.36 49.4477 60.94 55.2477 60.94H56.3877C59.5077 60.94 61.7277 61.82 63.0477 63.58C64.4077 65.34 65.0877 67.86 65.0877 71.14ZM58.1877 96.52V70.84C58.1877 68.56 57.4077 67.42 55.8477 67.42C54.2477 67.42 53.4477 68.56 53.4477 70.84V96.52C53.4477 98.8 54.2677 99.94 55.9077 99.94C57.4277 99.94 58.1877 98.8 58.1877 96.52ZM79.6513 106V67.84H75.6913C75.6913 83.8 75.4913 94.18 75.0913 98.98C74.9313 101.38 74.3113 103.16 73.2313 104.32C72.1913 105.44 70.4513 106 68.0112 106H66.3313V99.1H66.8113C67.5713 99.1 68.0913 98.88 68.3713 98.44C68.6513 98 68.8313 97.22 68.9113 96.1C69.1913 93.42 69.3313 81.84 69.3313 61.36H86.4313V106H79.6513ZM107.451 71.14V96.04C107.451 103.04 104.571 106.54 98.8109 106.54H97.6709C91.8309 106.54 88.9109 103.04 88.9109 96.04V71.2C88.9109 64.36 91.8109 60.94 97.6109 60.94H98.7509C101.871 60.94 104.091 61.82 105.411 63.58C106.771 65.34 107.451 67.86 107.451 71.14ZM100.551 96.52V70.84C100.551 68.56 99.7709 67.42 98.2109 67.42C96.6109 67.42 95.8109 68.56 95.8109 70.84V96.52C95.8109 98.8 96.6309 99.94 98.2709 99.94C99.7909 99.94 100.551 98.8 100.551 96.52ZM108.935 61.36H127.055V67.84H121.355V106H114.635V67.84H108.935V61.36ZM135.419 86.38V106H128.639V61.36H135.419V79.24H140.039V61.36H146.819V106H140.039V86.38H135.419ZM167.803 71.14V96.04C167.803 103.04 164.923 106.54 159.163 106.54H158.023C152.183 106.54 149.263 103.04 149.263 96.04V71.2C149.263 64.36 152.163 60.94 157.963 60.94H159.103C162.223 60.94 164.443 61.82 165.763 63.58C167.123 65.34 167.803 67.86 167.803 71.14ZM160.903 96.52V70.84C160.903 68.56 160.123 67.42 158.563 67.42C156.963 67.42 156.163 68.56 156.163 70.84V96.52C156.163 98.8 156.983 99.94 158.623 99.94C160.143 99.94 160.903 98.8 160.903 96.52ZM170.126 106V61.36H178.826L182.066 84.94L185.366 61.36H193.466V106H187.106V77.14L183.026 106H180.326L176.186 77.14V106H170.126Z" fill="#9C3202"/>
</svg>
