<svg width="218" height="125" viewBox="0 0 218 125" fill="none" xmlns="http://www.w3.org/2000/svg">
<path d="M1.38 55V10.36H12.06C14.7 10.36 16.54 10.98 17.58 12.22C18.66 13.46 19.2 15.26 19.2 17.62V24.46C19.2 27.74 18.08 29.8 15.84 30.64C18.44 31.64 19.74 33.82 19.74 37.18V46.84C19.74 49.36 19.14 51.36 17.94 52.84C16.78 54.28 14.98 55 12.54 55H1.38ZM10.2 34.66H8.16V48.7H10.2C11.24 48.7 11.94 48.46 12.3 47.98C12.66 47.5 12.84 46.74 12.84 45.7V37.54C12.84 36.54 12.66 35.82 12.3 35.38C11.94 34.9 11.24 34.66 10.2 34.66ZM10.2 16.42H8.16V28H10.2C11.76 28 12.54 26.96 12.54 24.88V19.24C12.54 18.24 12.36 17.52 12 17.08C11.68 16.64 11.08 16.42 10.2 16.42ZM28.4892 27.64H32.4492C37.0892 27.64 39.4092 30.38 39.4092 35.86V47.2C39.4092 49.88 38.8492 51.86 37.7292 53.14C36.6092 54.38 34.8492 55 32.4492 55H21.7092V10.36H28.4892V27.64ZM28.4892 48.52H30.2292C31.1492 48.52 31.7692 48.26 32.0892 47.74C32.4092 47.22 32.5692 46.46 32.5692 45.46V37.36C32.5692 36.28 32.4092 35.48 32.0892 34.96C31.8092 34.4 31.1892 34.12 30.2292 34.12H28.4892V48.52ZM48.1092 10.36V55H41.3292V10.36H48.1092ZM50.5373 55V10.36H64.1573V16.84H57.3173V55H50.5373ZM84.3103 20.14V45.04C84.3103 52.04 81.4303 55.54 75.6703 55.54H74.5303C68.6903 55.54 65.7703 52.04 65.7703 45.04V20.2C65.7703 13.36 68.6703 9.94 74.4703 9.94H75.6103C78.7303 9.94 80.9503 10.82 82.2703 12.58C83.6303 14.34 84.3103 16.86 84.3103 20.14ZM77.4103 45.52V19.84C77.4103 17.56 76.6303 16.42 75.0703 16.42C73.4703 16.42 72.6703 17.56 72.6703 19.84V45.52C72.6703 47.8 73.4903 48.94 75.1303 48.94C76.6503 48.94 77.4103 47.8 77.4103 45.52ZM103.201 61.3V55H91.4409V61.3H85.2609V48.22H86.7609C87.5209 46.66 88.0809 44.78 88.4409 42.58C89.0409 38.58 89.3409 27.84 89.3409 10.36H106.381V48.22H109.381V61.3H103.201ZM94.8009 42.76C94.5609 44.72 94.1209 46.54 93.4809 48.22H99.6009V16.84H95.7009C95.7009 29.88 95.4009 38.52 94.8009 42.76ZM117.728 35.38V55H110.948V10.36H117.728V28.24H122.348V10.36H129.128V55H122.348V35.38H117.728ZM150.111 20.14V45.04C150.111 52.04 147.231 55.54 141.471 55.54H140.331C134.491 55.54 131.571 52.04 131.571 45.04V20.2C131.571 13.36 134.471 9.94 140.271 9.94H141.411C144.531 9.94 146.751 10.82 148.071 12.58C149.431 14.34 150.111 16.86 150.111 20.14ZM143.211 45.52V19.84C143.211 17.56 142.431 16.42 140.871 16.42C139.271 16.42 138.471 17.56 138.471 19.84V45.52C138.471 47.8 139.291 48.94 140.931 48.94C142.451 48.94 143.211 47.8 143.211 45.52ZM152.435 10.36H167.855V16.84H159.215V28.54H165.995V35.32H159.215V48.22H168.215V55H152.435V10.36Z" fill="#DEBE98"/>
<path d="M1.26 120V75.36H18.96V120H12.18V81.84H8.04V120H1.26ZM32.9348 120L32.0348 111.6H27.0548L26.2148 120H20.1548L25.6148 75.36H33.6548L39.4748 120H32.9348ZM29.5148 88.44L27.7748 104.94H31.3148L29.5148 88.44ZM51.3192 101.46H47.3592V120H40.5792V75.36H51.3192C53.7592 75.36 55.5192 75.94 56.5992 77.1C57.7192 78.22 58.2792 80.1 58.2792 82.74V93.3C58.2792 98.74 55.9592 101.46 51.3192 101.46ZM47.3592 81.42V95.04H49.0992C50.0592 95.04 50.6792 94.78 50.9592 94.26C51.2792 93.7 51.4392 92.88 51.4392 91.8V84.48C51.4392 83.48 51.2792 82.72 50.9592 82.2C50.6392 81.68 50.0192 81.42 49.0992 81.42H47.3592ZM59.4853 75.36H77.6053V81.84H71.9053V120H65.1853V81.84H59.4853V75.36ZM85.9697 100.38V120H79.1897V75.36H85.9697V93.24H90.5897V75.36H97.3697V120H90.5897V100.38H85.9697ZM99.9933 75.36H115.413V81.84H106.773V93.54H113.553V100.32H106.773V113.22H115.773V120H99.9933V75.36ZM128.253 101.46H124.293V120H117.513V75.36H128.253C130.693 75.36 132.453 75.94 133.533 77.1C134.653 78.22 135.213 80.1 135.213 82.74V93.3C135.213 98.74 132.893 101.46 128.253 101.46ZM124.293 81.42V95.04H126.033C126.993 95.04 127.613 94.78 127.893 94.26C128.213 93.7 128.373 92.88 128.373 91.8V84.48C128.373 83.48 128.213 82.72 127.893 82.2C127.573 81.68 126.953 81.42 126.033 81.42H124.293ZM148.359 110.94V100.56H155.019V110.88C155.019 117.32 152.319 120.54 146.919 120.54H145.419C139.859 120.54 137.079 117.4 137.079 111.12V83.88C137.079 81.32 137.719 79.2 138.999 77.52C140.279 75.8 142.339 74.94 145.179 74.94H146.739C148.499 74.94 149.959 75.2 151.119 75.72C152.319 76.24 153.179 77 153.699 78C154.219 79 154.559 79.98 154.719 80.94C154.919 81.86 155.019 82.96 155.019 84.24V92.22H148.359V84.36C148.359 82.4 147.599 81.42 146.079 81.42C145.279 81.42 144.719 81.66 144.399 82.14C144.119 82.58 143.979 83.32 143.979 84.36V110.88C143.979 112.92 144.699 113.94 146.139 113.94C147.619 113.94 148.359 112.94 148.359 110.94ZM156.341 75.36H174.461V81.84H168.761V120H162.041V81.84H156.341V75.36ZM176.165 120V75.36H186.845C189.485 75.36 191.325 75.98 192.365 77.22C193.445 78.46 193.985 80.26 193.985 82.62V89.46C193.985 92.74 192.865 94.8 190.625 95.64C193.225 96.64 194.525 98.82 194.525 102.18V111.84C194.525 114.36 193.925 116.36 192.725 117.84C191.565 119.28 189.765 120 187.325 120H176.165ZM184.985 99.66H182.945V113.7H184.985C186.025 113.7 186.725 113.46 187.085 112.98C187.445 112.5 187.625 111.74 187.625 110.7V102.54C187.625 101.54 187.445 100.82 187.085 100.38C186.725 99.9 186.025 99.66 184.985 99.66ZM184.985 81.42H182.945V93H184.985C186.545 93 187.325 91.96 187.325 89.88V84.24C187.325 83.24 187.145 82.52 186.785 82.08C186.465 81.64 185.865 81.42 184.985 81.42ZM214.974 85.14V110.04C214.974 117.04 212.094 120.54 206.334 120.54H205.194C199.354 120.54 196.434 117.04 196.434 110.04V85.2C196.434 78.36 199.334 74.94 205.134 74.94H206.274C209.394 74.94 211.614 75.82 212.934 77.58C214.294 79.34 214.974 81.86 214.974 85.14ZM208.074 110.52V84.84C208.074 82.56 207.294 81.42 205.734 81.42C204.134 81.42 203.334 82.56 203.334 84.84V110.52C203.334 112.8 204.154 113.94 205.794 113.94C207.314 113.94 208.074 112.8 208.074 110.52Z" fill="#DEBE98"/>
</svg>
