<svg width="244" height="107" viewBox="0 0 244 107" fill="none" xmlns="http://www.w3.org/2000/svg">
<path d="M18.74 11.14V36.04C18.74 43.04 15.86 46.54 10.1 46.54H8.96C3.12 46.54 0.2 43.04 0.2 36.04V11.2C0.2 4.36 3.1 0.939997 8.9 0.939997H10.04C13.16 0.939997 15.38 1.82 16.7 3.58C18.06 5.34 18.74 7.86 18.74 11.14ZM11.84 36.52V10.84C11.84 8.56 11.06 7.42 9.5 7.42C7.9 7.42 7.1 8.56 7.1 10.84V36.52C7.1 38.8 7.92 39.94 9.56 39.94C11.08 39.94 11.84 38.8 11.84 36.52ZM37.8973 27.46H33.9373V46H27.1573V1.36H37.8973C40.3373 1.36 42.0973 1.94 43.1773 3.1C44.2973 4.22 44.8573 6.1 44.8573 8.74V19.3C44.8573 24.74 42.5373 27.46 37.8973 27.46ZM33.9373 7.42V21.04H35.6773C36.6373 21.04 37.2573 20.78 37.5373 20.26C37.8573 19.7 38.0173 18.88 38.0173 17.8V10.48C38.0173 9.48 37.8573 8.72 37.5373 8.2C37.2173 7.68 36.5973 7.42 35.6773 7.42H33.9373ZM46.9034 1.36H62.3234V7.84H53.6834V19.54H60.4634V26.32H53.6834V39.22H62.6834V46H46.9034V1.36ZM78.823 52.3V46H64.303V1.36H71.083V39.22H75.223V1.36H82.003V39.22H85.003V52.3H78.823ZM86.6886 1.36H102.109V7.84H93.4686V19.54H100.249V26.32H93.4686V39.22H102.469V46H86.6886V1.36ZM104.088 46V1.36H121.788V46H115.008V7.84H110.868V46H104.088ZM123.583 1.36H141.703V7.84H136.003V46H129.283V7.84H123.583V1.36ZM160.087 1.36L153.607 40.12C153.247 42.32 152.687 43.86 151.927 44.74C151.167 45.58 149.927 46 148.207 46H143.827V39.1H145.387C145.747 39.1 146.027 39.04 146.227 38.92C146.467 38.8 146.627 38.64 146.707 38.44C146.787 38.24 146.867 37.98 146.947 37.66L147.127 36.28C147.247 35.56 147.167 34.36 146.887 32.68L141.847 1.36H148.747L151.267 21.1L153.667 1.36H160.087ZM172.018 27.46H168.058V46H161.278V1.36H172.018C174.458 1.36 176.218 1.94 177.298 3.1C178.418 4.22 178.978 6.1 178.978 8.74V19.3C178.978 24.74 176.658 27.46 172.018 27.46ZM168.058 7.42V21.04H169.798C170.758 21.04 171.378 20.78 171.658 20.26C171.978 19.7 172.138 18.88 172.138 17.8V10.48C172.138 9.48 171.978 8.72 171.658 8.2C171.338 7.68 170.718 7.42 169.798 7.42H168.058ZM192.365 46L191.465 37.6H186.485L185.645 46H179.585L185.045 1.36H193.085L198.905 46H192.365ZM188.945 14.44L187.205 30.94H190.745L188.945 14.44ZM205.035 22.12L199.995 1.36H206.895L209.775 15.46L212.535 1.36H219.135L214.035 22.12L219.795 46H212.775L209.415 29.86L205.995 46H199.155L205.035 22.12ZM11.9 106V81.82L7.04 106H0.26V61.36H7.04V85.54L11.9 61.36H18.68V106H11.9ZM26.5517 61.36H44.6717V67.84H38.9717V106H32.2517V67.84H26.5517V61.36ZM46.3761 61.36H61.7961V67.84H53.1561V79.54H59.9361V86.32H53.1561V99.22H62.1561V106H46.3761V61.36ZM68.3356 82.12L63.2956 61.36H70.1956L73.0756 75.46L75.8356 61.36H82.4356L77.3356 82.12L83.0956 106H76.0756L72.7156 89.86L69.2956 106H62.4556L68.3356 82.12ZM90.8291 86.38V106H84.0491V61.36H90.8291V79.24H95.4491V61.36H102.229V106H95.4491V86.38H90.8291ZM123.213 71.14V96.04C123.213 103.04 120.333 106.54 114.573 106.54H113.433C107.593 106.54 104.673 103.04 104.673 96.04V71.2C104.673 64.36 107.573 60.94 113.373 60.94H114.513C117.633 60.94 119.853 61.82 121.173 63.58C122.533 65.34 123.213 67.86 123.213 71.14ZM116.313 96.52V70.84C116.313 68.56 115.533 67.42 113.973 67.42C112.373 67.42 111.573 68.56 111.573 70.84V96.52C111.573 98.8 112.393 99.94 114.033 99.94C115.553 99.94 116.313 98.8 116.313 96.52ZM137.776 106V67.84H133.816C133.816 83.8 133.616 94.18 133.216 98.98C133.056 101.38 132.436 103.16 131.356 104.32C130.316 105.44 128.576 106 126.136 106H124.456V99.1H124.936C125.696 99.1 126.216 98.88 126.496 98.44C126.776 98 126.956 97.22 127.036 96.1C127.316 93.42 127.456 81.84 127.456 61.36H144.556V106H137.776ZM165.576 71.14V96.04C165.576 103.04 162.696 106.54 156.936 106.54H155.796C149.956 106.54 147.036 103.04 147.036 96.04V71.2C147.036 64.36 149.936 60.94 155.736 60.94H156.876C159.996 60.94 162.216 61.82 163.536 63.58C164.896 65.34 165.576 67.86 165.576 71.14ZM158.676 96.52V70.84C158.676 68.56 157.896 67.42 156.336 67.42C154.736 67.42 153.936 68.56 153.936 70.84V96.52C153.936 98.8 154.756 99.94 156.396 99.94C157.916 99.94 158.676 98.8 158.676 96.52ZM167.78 106V61.36H181.4V67.84H174.56V106H167.78ZM194.713 106V81.82L189.853 106H183.073V61.36H189.853V85.54L194.713 61.36H201.493V106H194.713ZM214.79 87.28H214.01L209.03 106H202.07L207.47 86.08C204.99 85.28 203.75 83.48 203.75 80.68V68.26C203.75 65.78 204.31 64.02 205.43 62.98C206.55 61.9 208.27 61.36 210.59 61.36H221.57V106H214.79V87.28ZM214.79 80.8V67.42H212.99C211.99 67.42 211.33 67.64 211.01 68.08C210.69 68.52 210.53 69.26 210.53 70.3V77.62C210.53 79.74 211.35 80.8 212.99 80.8H214.79ZM228.648 82.12L223.608 61.36H230.508L233.388 75.46L236.148 61.36H242.748L237.648 82.12L243.408 106H236.388L233.028 89.86L229.608 106H222.768L228.648 82.12Z" fill="#F7E3C6"/>
</svg>
