<svg width="63" height="46" viewBox="0 0 63 46" fill="none" xmlns="http://www.w3.org/2000/svg">
<path d="M33.0073 12.071V12.0342C32.9867 11.5029 32.8327 10.9855 32.5598 10.5293C32.2867 10.0731 31.9035 9.69273 31.4453 9.42322L31.2516 1.97363H28.3341L28.1404 9.42322C27.686 9.68938 27.3054 10.0648 27.0328 10.5154C26.7605 10.9662 26.6049 11.4777 26.5805 12.0036C26.5782 12.0144 26.5782 12.0255 26.5805 12.0363V26.5397H33.0117V12.2407C33.0117 12.2148 33.0117 12.1865 33.0117 12.1582C33.0117 12.1299 33.0096 12.0972 33.0073 12.071Z" fill="#1A1A1A"/>
<path d="M24.8365 4.98418L24.8169 3.91797H21.9884C21.9884 4.09438 21.9601 4.98418 21.9601 4.98418H24.8365Z" fill="#1A1A1A"/>
<path d="M26.617 15.989V15.9519C26.5962 15.4209 26.4424 14.9032 26.1693 14.447C25.8965 13.9908 25.513 13.6107 25.0548 13.3412L24.8611 5.8916H21.9436L21.7563 13.3456C21.3019 13.6115 20.9208 13.9867 20.6485 14.4375C20.3759 14.888 20.2205 15.3998 20.1964 15.926C20.1943 15.9368 20.1943 15.9478 20.1964 15.9586V26.5433H26.6278V16.1566C26.6278 16.1304 26.6278 16.1021 26.6278 16.0738C26.6278 16.0455 26.6191 16.0152 26.617 15.989Z" fill="#1A1A1A"/>
<path d="M39.4213 15.989V15.9519C39.4012 15.4206 39.2477 14.9027 38.9746 14.4465C38.7017 13.99 38.318 13.6099 37.859 13.3412L37.6676 5.8916H34.7478L34.5541 13.3412C34.1 13.6074 33.7196 13.9831 33.4478 14.4336C33.1757 14.8842 33.0204 15.3957 32.9965 15.9216C32.9942 15.9324 32.9942 15.9434 32.9965 15.9543V26.5392H39.4213V16.1566C39.4213 16.1304 39.4213 16.1021 39.4213 16.0738C39.4213 16.0455 39.4233 16.0152 39.4213 15.989Z" fill="#1A1A1A"/>
<path d="M20.2688 19.0199L15.8586 16.8574V26.5436H20.2688V19.0199Z" fill="#DEBE98"/>
<path d="M16.0449 19.0199L11.6348 16.8574V26.5436H16.0449V19.0199Z" fill="#1A1A1A"/>
<path d="M39.3234 18.9788L43.8622 16.8574L50.4675 22.8797V26.5436H39.093L39.3234 18.9788Z" fill="#1A1A1A"/>
<path d="M31.2298 1.06621L31.2082 0H28.3796C28.3796 0.176159 28.3536 1.06621 28.3536 1.06621H31.2298Z" fill="#1A1A1A"/>
<path d="M37.6359 4.98418L37.6164 3.91797H34.8076C34.8076 4.09438 34.7793 4.98418 34.7793 4.98418H37.6359Z" fill="#1A1A1A"/>
<path d="M43.8336 17.5146V25.9998H49.993V23.1281L43.8336 17.5146Z" fill="#DEBE98"/>
<path d="M47.8857 25.2233H45.7819V23.0605C45.7819 22.782 45.8927 22.5146 46.0897 22.3176C46.2867 22.1204 46.5541 22.0098 46.8329 22.0098C47.1117 22.0098 47.3791 22.1204 47.5766 22.3173C47.7741 22.5143 47.8852 22.7818 47.8857 23.0605V25.2233Z" fill="#1A1A1A"/>
<path d="M13.8398 18.5742V25.9999H15.426V19.3532L13.8398 18.5742Z" fill="#DEBE98"/>
<path d="M18.3301 18.626V25.9994H19.8139V19.3527L18.3301 18.626Z" fill="#1A1A1A"/>
<path d="M26.0838 16.4074C26.0838 16.3814 26.0838 16.3531 26.0838 16.3269V16.2901C26.0638 15.7588 25.9105 15.2414 25.6379 14.7849C25.3653 14.3287 24.9821 13.9484 24.5239 13.6791L24.3302 6.37305H23.597V14.8888C23.8884 15.3515 24.0522 15.883 24.0713 16.4293V16.4684C24.0713 16.4946 24.0713 16.5229 24.0713 16.5488C24.0713 16.5751 24.0713 16.6054 24.0713 16.6293V25.9958H26.0838V16.4902C26.0838 16.464 26.0838 16.4357 26.0838 16.4074Z" fill="#DEBE98"/>
<path d="M32.4573 12.4318C32.4573 12.4058 32.4573 12.3776 32.4573 12.3513V12.3145C32.4364 11.7832 32.2826 11.2658 32.0095 10.8096C31.7367 10.3534 31.3532 9.97306 30.895 9.70355L30.7013 2.39746H29.9681V11.022C30.2176 11.4595 30.3585 11.9504 30.3793 12.4537V12.4928C30.3793 12.519 30.3793 12.545 30.3793 12.5733C30.3793 12.6015 30.3793 12.6298 30.3793 12.6538V25.9953H32.4549V12.5059C32.4573 12.4884 32.4573 12.4581 32.4573 12.4318Z" fill="#DEBE98"/>
<path d="M38.8636 16.4074C38.8636 16.3814 38.8636 16.3531 38.8636 16.3269V16.2901C38.8436 15.7586 38.69 15.2409 38.4169 14.7844C38.1438 14.3282 37.7601 13.9479 37.3013 13.6791L37.11 6.37305H36.3745V14.8888C36.6641 15.3523 36.8276 15.8833 36.8487 16.4293V16.4684C36.8487 16.4946 36.8487 16.5229 36.8487 16.5488C36.8487 16.5751 36.8487 16.6054 36.8487 16.6293V25.9958H38.8636V16.4902C38.8636 16.464 38.8636 16.4357 38.8636 16.4074Z" fill="#DEBE98"/>
<path d="M0 35.2418V45.6108L0.164586 45.7753H1.38253L1.54711 45.6108V36.9535L2.04087 36.4598H6.05677L6.55053 36.9535V45.6108L6.71512 45.7753H7.93306L8.09764 45.6108V35.2418L7.93306 35.0772H0.164586L0 35.2418ZM11.0581 35.2418V45.6108L11.2227 45.7753H12.4407L12.6052 45.6108V42.8128L13.099 42.319H14.6626C17.0984 42.319 18.7772 40.9036 18.7772 38.6981C18.7772 36.4762 17.1972 35.0772 14.8436 35.0772H11.2227L11.0581 35.2418ZM12.6052 36.9371L13.099 36.4433H14.7449C16.3907 36.4433 17.2301 37.184 17.2301 38.6981C17.2301 40.163 16.3249 40.953 14.6461 40.953H13.099L12.6052 40.4592V36.9371ZM21.0876 35.2418V45.6108L21.2522 45.7753H22.4866L22.6183 45.6931L26.8646 39.1261L27.7698 39.4059V45.6108L27.9344 45.7753H29.1359L29.3005 45.6108V35.2418L29.1359 35.0772H27.9838L27.8521 35.1595L23.5235 41.924L22.6183 41.6442V35.2418L22.4537 35.0772H21.2522L21.0876 35.2418ZM32.2584 35.2418V45.6108L32.423 45.7753H33.5751L33.7397 45.6108V39.2413L34.6613 38.9944L36.6199 42.4836L36.768 42.5659H37.3276L37.4758 42.4836L39.5002 38.9615L40.4219 39.2084V45.6108L40.5864 45.7753H41.755L41.9196 45.6108V35.2418L41.755 35.0772H40.2902L40.1421 35.1595L37.5251 39.8009H36.6693L34.0688 35.1595L33.9207 35.0772H32.423L32.2584 35.2418ZM44.3323 35.3077L48.0355 42.9445V43.4053L47.9532 43.6193C47.7228 44.2118 47.3113 44.5574 46.7517 44.5574C46.4555 44.5574 46.1592 44.508 45.9123 44.4093L45.6984 44.508L45.3692 45.5778L45.468 45.7918C45.863 45.9235 46.2744 45.9893 46.8176 45.9893C47.9368 45.9893 48.8091 45.3474 49.418 43.9155L53.1048 35.3077L52.9566 35.0772H51.5741L51.4095 35.176L49.3522 40.5086H48.447L46.1099 35.176L45.9453 35.0772H44.4804L44.3323 35.3077ZM62.786 36.3281L62.7696 36.0977C61.815 35.2583 60.7122 34.8633 59.3626 34.8633C56.3672 34.8633 54.3592 37.3321 54.3592 40.4263C54.3592 43.7345 56.2684 45.9893 59.1981 45.9893C60.7287 45.9893 61.9631 45.512 62.9835 44.5245L63 44.2941L62.2594 43.4547L62.0289 43.4382C61.2225 44.2118 60.3008 44.6068 59.2803 44.6068C57.1736 44.6068 55.9063 42.8293 55.9063 40.4263C55.9063 37.9246 57.2559 36.2458 59.2639 36.2458C60.2349 36.2458 61.0579 36.5914 61.7821 37.2333L62.0125 37.2169L62.786 36.3281Z" fill="#1A1A1A"/>
<path d="M52.0534 6.38158H51V5.17105C51.462 5.14474 51.7855 5.05702 51.9703 4.90789C52.1643 4.75877 52.2983 4.48684 52.3722 4.09211H53.6336V13.8816H52.0534V6.38158Z" fill="#1A1A1A"/>
<path d="M56.6918 12.0789V10C56.6918 9.62281 56.5486 9.43421 56.2621 9.43421C56.105 9.43421 55.9941 9.47807 55.9294 9.56579C55.874 9.64474 55.8463 9.78947 55.8463 10V12.0789C55.8463 12.4035 55.9895 12.5658 56.276 12.5658C56.5532 12.5658 56.6918 12.4035 56.6918 12.0789ZM56.6641 7.43421V5.85526C56.6641 5.74123 56.6548 5.65351 56.6364 5.59211C56.6271 5.52193 56.5902 5.46053 56.5255 5.40789C56.47 5.34649 56.3822 5.31579 56.2621 5.31579C56.142 5.31579 56.0496 5.34649 55.9849 5.40789C55.9294 5.46053 55.8971 5.52193 55.8879 5.59211C55.8786 5.65351 55.874 5.74123 55.874 5.85526V7.42105C55.874 7.75439 56.008 7.92105 56.276 7.92105C56.5347 7.92105 56.6641 7.75877 56.6641 7.43421ZM58.2165 5.72368V7.19737C58.2165 7.76754 57.9947 8.1886 57.5512 8.46053C58.0687 8.74123 58.3274 9.19737 58.3274 9.82895V12.1842C58.3274 12.7193 58.1657 13.1579 57.8423 13.5C57.5281 13.8333 57.0476 14 56.4007 14H56.1096C55.4628 14 54.9823 13.8289 54.6681 13.4868C54.3631 13.1447 54.2107 12.7018 54.2107 12.1579V9.82895C54.2107 9.23246 54.4509 8.77632 54.9315 8.46053C54.5156 8.14474 54.3077 7.72368 54.3077 7.19737V5.67105C54.3077 5.20614 54.4463 4.8114 54.7235 4.48684C55.0008 4.16228 55.4582 4 56.0958 4H56.373C56.9921 4 57.4542 4.15789 57.7591 4.47368C58.0641 4.7807 58.2165 5.19737 58.2165 5.72368Z" fill="#1A1A1A"/>
<path d="M60.2555 12.1053V10.4605H58.7724V9.34211H60.2555V7.68421H61.5169V9.34211H63V10.4605H61.5169V12.1053H60.2555Z" fill="#1A1A1A"/>
</svg>
