<svg width="75" height="46" viewBox="0 0 75 46" fill="none" xmlns="http://www.w3.org/2000/svg">
<path d="M33.0072 12.071V12.0342C32.9866 11.5029 32.8326 10.9855 32.5597 10.5293C32.2866 10.0731 31.9035 9.69273 31.4452 9.42322L31.2515 1.97363H28.334L28.1403 9.42322C27.6859 9.68938 27.3053 10.0648 27.0327 10.5154C26.7604 10.9662 26.6048 11.4777 26.5804 12.0036C26.5781 12.0144 26.5781 12.0255 26.5804 12.0363V26.5397H33.0116V12.2407C33.0116 12.2148 33.0116 12.1865 33.0116 12.1582C33.0116 12.1299 33.0095 12.0972 33.0072 12.071Z" fill="#1A1A1A"/>
<path d="M24.8364 4.98418L24.8169 3.91797H21.9883C21.9883 4.09438 21.96 4.98418 21.96 4.98418H24.8364Z" fill="#1A1A1A"/>
<path d="M26.6171 15.989V15.9519C26.5963 15.4209 26.4425 14.9032 26.1694 14.447C25.8965 13.9908 25.5131 13.6107 25.0548 13.3412L24.8612 5.8916H21.9436L21.7564 13.3456C21.302 13.6115 20.9209 13.9867 20.6485 14.4375C20.3759 14.888 20.2206 15.3998 20.1964 15.926C20.1944 15.9368 20.1944 15.9478 20.1964 15.9586V26.5433H26.6279V16.1566C26.6279 16.1304 26.6279 16.1021 26.6279 16.0738C26.6279 16.0455 26.6191 16.0152 26.6171 15.989Z" fill="#1A1A1A"/>
<path d="M39.4212 15.989V15.9519C39.4011 15.4206 39.2476 14.9027 38.9745 14.4465C38.7016 13.99 38.3179 13.6099 37.8589 13.3412L37.6676 5.8916H34.7477L34.5541 13.3412C34.0999 13.6074 33.7195 13.9831 33.4477 14.4336C33.1756 14.8842 33.0203 15.3957 32.9964 15.9216C32.9941 15.9324 32.9941 15.9434 32.9964 15.9543V26.5392H39.4212V16.1566C39.4212 16.1304 39.4212 16.1021 39.4212 16.0738C39.4212 16.0455 39.4232 16.0152 39.4212 15.989Z" fill="#1A1A1A"/>
<path d="M20.2686 19.0199L15.8585 16.8574V26.5436H20.2686V19.0199Z" fill="#DEBE98"/>
<path d="M16.0451 19.0199L11.6349 16.8574V26.5436H16.0451V19.0199Z" fill="#1A1A1A"/>
<path d="M39.3234 18.9788L43.8621 16.8574L50.4674 22.8797V26.5436H39.093L39.3234 18.9788Z" fill="#1A1A1A"/>
<path d="M31.2299 1.06621L31.2083 0H28.3798C28.3798 0.176159 28.3538 1.06621 28.3538 1.06621H31.2299Z" fill="#1A1A1A"/>
<path d="M37.6358 4.98418L37.6163 3.91797H34.8075C34.8075 4.09438 34.7792 4.98418 34.7792 4.98418H37.6358Z" fill="#1A1A1A"/>
<path d="M43.8336 17.5146V25.9998H49.993V23.1281L43.8336 17.5146Z" fill="#DEBE98"/>
<path d="M47.8856 25.2233H45.7818V23.0605C45.7818 22.782 45.8926 22.5146 46.0896 22.3176C46.2866 22.1204 46.554 22.0098 46.8328 22.0098C47.1116 22.0098 47.379 22.1204 47.5765 22.3173C47.774 22.5143 47.8851 22.7818 47.8856 23.0605V25.2233Z" fill="#1A1A1A"/>
<path d="M13.8403 18.5742V25.9999H15.4265V19.3532L13.8403 18.5742Z" fill="#DEBE98"/>
<path d="M18.33 18.626V25.9994H19.8138V19.3527L18.33 18.626Z" fill="#1A1A1A"/>
<path d="M26.0835 16.4074C26.0835 16.3814 26.0835 16.3531 26.0835 16.3269V16.2901C26.0635 15.7588 25.9102 15.2414 25.6376 14.7849C25.365 14.3287 24.9818 13.9484 24.5236 13.6791L24.3299 6.37305H23.5967V14.8888C23.8881 15.3515 24.0519 15.883 24.071 16.4293V16.4684C24.071 16.4946 24.071 16.5229 24.071 16.5488C24.071 16.5751 24.071 16.6054 24.071 16.6293V25.9958H26.0835V16.4902C26.0835 16.464 26.0835 16.4357 26.0835 16.4074Z" fill="#DEBE98"/>
<path d="M32.4575 12.4318C32.4575 12.4058 32.4575 12.3776 32.4575 12.3513V12.3145C32.4366 11.7832 32.2829 11.2658 32.0097 10.8096C31.7369 10.3534 31.3535 9.97306 30.8952 9.70355L30.7015 2.39746H29.9684V11.022C30.2178 11.4595 30.3587 11.9504 30.3796 12.4537V12.4928C30.3796 12.519 30.3796 12.545 30.3796 12.5733C30.3796 12.6015 30.3796 12.6298 30.3796 12.6537V25.9953H32.4552V12.5059C32.4575 12.4884 32.4575 12.4581 32.4575 12.4318Z" fill="#DEBE98"/>
<path d="M38.8638 16.4074C38.8638 16.3814 38.8638 16.3531 38.8638 16.3269V16.2901C38.8437 15.7586 38.6902 15.2409 38.4171 14.7844C38.144 14.3282 37.7603 13.9479 37.3015 13.6791L37.1102 6.37305H36.3747V14.8888C36.6643 15.3523 36.8278 15.8833 36.8489 16.4293V16.4684C36.8489 16.4946 36.8489 16.5229 36.8489 16.5488C36.8489 16.5751 36.8489 16.6054 36.8489 16.6293V25.9958H38.8638V16.4902C38.8638 16.464 38.8638 16.4357 38.8638 16.4074Z" fill="#DEBE98"/>
<path d="M0 35.2418V45.6108L0.164586 45.7753H1.38253L1.54711 45.6108V36.9535L2.04087 36.4598H6.05677L6.55053 36.9535V45.6108L6.71512 45.7753H7.93306L8.09764 45.6108V35.2418L7.93306 35.0772H0.164586L0 35.2418ZM11.0581 35.2418V45.6108L11.2227 45.7753H12.4407L12.6052 45.6108V42.8128L13.099 42.319H14.6626C17.0985 42.319 18.7772 40.9036 18.7772 38.6981C18.7772 36.4762 17.1972 35.0772 14.8436 35.0772H11.2227L11.0581 35.2418ZM12.6052 36.9371L13.099 36.4433H14.7449C16.3907 36.4433 17.2301 37.184 17.2301 38.6981C17.2301 40.163 16.3249 40.953 14.6461 40.953H13.099L12.6052 40.4592V36.9371ZM21.0876 35.2418V45.6108L21.2522 45.7753H22.4866L22.6183 45.6931L26.8646 39.1261L27.7698 39.4059V45.6108L27.9344 45.7753H29.1359L29.3005 45.6108V35.2418L29.1359 35.0772H27.9838L27.8521 35.1595L23.5235 41.924L22.6183 41.6442V35.2418L22.4537 35.0772H21.2522L21.0876 35.2418ZM32.2584 35.2418V45.6108L32.423 45.7753H33.5751L33.7397 45.6108V39.2413L34.6613 38.9944L36.6199 42.4836L36.768 42.5659H37.3276L37.4758 42.4836L39.5002 38.9615L40.4219 39.2084V45.6108L40.5864 45.7753H41.755L41.9196 45.6108V35.2418L41.755 35.0772H40.2902L40.1421 35.1595L37.5251 39.8009H36.6693L34.0688 35.1595L33.9207 35.0772H32.423L32.2584 35.2418ZM44.3323 35.3077L48.0355 42.9445V43.4053L47.9532 43.6193C47.7228 44.2118 47.3113 44.5574 46.7517 44.5574C46.4555 44.5574 46.1592 44.508 45.9123 44.4093L45.6984 44.508L45.3692 45.5778L45.468 45.7918C45.863 45.9235 46.2744 45.9893 46.8176 45.9893C47.9368 45.9893 48.8091 45.3474 49.418 43.9155L53.1048 35.3077L52.9566 35.0772H51.5741L51.4095 35.176L49.3522 40.5086H48.447L46.1099 35.176L45.9453 35.0772H44.4805L44.3323 35.3077ZM62.786 36.3281L62.7696 36.0977C61.815 35.2583 60.7122 34.8633 59.3626 34.8633C56.3672 34.8633 54.3592 37.3321 54.3592 40.4263C54.3592 43.7345 56.2684 45.9893 59.1981 45.9893C60.7287 45.9893 61.9631 45.512 62.9835 44.5245L63 44.2941L62.2594 43.4547L62.0289 43.4382C61.2225 44.2118 60.3008 44.6068 59.2803 44.6068C57.1736 44.6068 55.9063 42.8293 55.9063 40.4263C55.9063 37.9246 57.2559 36.2458 59.2639 36.2458C60.2349 36.2458 61.0579 36.5914 61.7821 37.2333L62.0125 37.2169L62.786 36.3281Z" fill="#1A1A1A"/>
<path d="M61.9684 6.38158H60.7143V5.17105C61.2643 5.14474 61.6494 5.05702 61.8694 4.90789C62.1004 4.75877 62.2599 4.48684 62.3479 4.09211H63.8495V13.8816H61.9684V6.38158Z" fill="#1A1A1A"/>
<path d="M67.4903 12.0789V10C67.4903 9.62281 67.3197 9.43421 66.9787 9.43421C66.7917 9.43421 66.6597 9.47807 66.5827 9.56579C66.5167 9.64474 66.4837 9.78947 66.4837 10V12.0789C66.4837 12.4035 66.6542 12.5658 66.9952 12.5658C67.3252 12.5658 67.4903 12.4035 67.4903 12.0789ZM67.4572 7.43421V5.85526C67.4572 5.74123 67.4462 5.65351 67.4242 5.59211C67.4132 5.52193 67.3692 5.46053 67.2922 5.40789C67.2262 5.34649 67.1217 5.31579 66.9787 5.31579C66.8357 5.31579 66.7257 5.34649 66.6487 5.40789C66.5827 5.46053 66.5442 5.52193 66.5332 5.59211C66.5222 5.65351 66.5167 5.74123 66.5167 5.85526V7.42105C66.5167 7.75439 66.6762 7.92105 66.9952 7.92105C67.3032 7.92105 67.4572 7.75877 67.4572 7.43421ZM69.3054 5.72368V7.19737C69.3054 7.76754 69.0414 8.1886 68.5133 8.46053C69.1294 8.74123 69.4374 9.19737 69.4374 9.82895V12.1842C69.4374 12.7193 69.2449 13.1579 68.8599 13.5C68.4858 13.8333 67.9138 14 67.1437 14H66.7972C66.0271 14 65.4551 13.8289 65.0811 13.4868C64.718 13.1447 64.5365 12.7018 64.5365 12.1579V9.82895C64.5365 9.23246 64.8225 8.77632 65.3946 8.46053C64.8996 8.14474 64.652 7.72368 64.652 7.19737V5.67105C64.652 5.20614 64.817 4.8114 65.1471 4.48684C65.4771 4.16228 66.0216 4 66.7807 4H67.1107C67.8478 4 68.3978 4.15789 68.7608 4.47368C69.1239 4.7807 69.3054 5.19737 69.3054 5.72368Z" fill="#1A1A1A"/>
<path d="M71.7327 12.1053V10.4605H69.9671V9.34211H71.7327V7.68421H73.2344V9.34211H75V10.4605H73.2344V12.1053H71.7327Z" fill="#1A1A1A"/>
</svg>
