<svg width="1119" height="123" viewBox="0 0 1119 123" fill="none" xmlns="http://www.w3.org/2000/svg">
<path d="M29.32 71.56H18.76V121H0.68V1.96H29.32C35.8267 1.96 40.52 3.50666 43.4 6.59999C46.3867 9.58666 47.88 14.6 47.88 21.64V49.8C47.88 64.3067 41.6933 71.56 29.32 71.56ZM18.76 18.12V54.44H23.4C25.96 54.44 27.6133 53.7467 28.36 52.36C29.2133 50.8667 29.64 48.68 29.64 45.8V26.28C29.64 23.6133 29.2133 21.5867 28.36 20.2C27.5067 18.8133 25.8533 18.12 23.4 18.12H18.76ZM83.5763 121L81.1763 98.6H67.8963L65.6563 121H49.4962L64.0563 1.96H85.4963L101.016 121H83.5763ZM74.4563 36.84L69.8163 80.84H79.2563L74.4563 36.84ZM132.78 96.84V69.16H150.54V96.68C150.54 113.853 143.34 122.44 128.94 122.44H124.94C110.113 122.44 102.7 114.067 102.7 97.32V24.68C102.7 17.8533 104.407 12.2 107.82 7.72C111.233 3.13333 116.727 0.839993 124.3 0.839993H128.46C133.153 0.839993 137.047 1.53333 140.14 2.91999C143.34 4.30666 145.633 6.33333 147.02 8.99999C148.407 11.6667 149.313 14.28 149.74 16.84C150.273 19.2933 150.54 22.2267 150.54 25.64V46.92H132.78V25.96C132.78 20.7333 130.753 18.12 126.7 18.12C124.567 18.12 123.073 18.76 122.22 20.04C121.473 21.2133 121.1 23.1867 121.1 25.96V96.68C121.1 102.12 123.02 104.84 126.86 104.84C130.807 104.84 132.78 102.173 132.78 96.84ZM155.985 121V1.96H174.065V102.92H184.305V1.96H202.385V102.92H212.625V1.96H230.705V121H155.985ZM268.431 121V56.52L255.471 121H237.391V1.96H255.471V66.44L268.431 1.96H286.511V121H268.431ZM322.133 71.56H311.573V121H293.493V1.96H322.133C328.639 1.96 333.333 3.50666 336.213 6.59999C339.199 9.58666 340.693 14.6 340.693 21.64V49.8C340.693 64.3067 334.506 71.56 322.133 71.56ZM311.573 18.12V54.44H316.213C318.773 54.44 320.426 53.7467 321.173 52.36C322.026 50.8667 322.453 48.68 322.453 45.8V26.28C322.453 23.6133 322.026 21.5867 321.173 20.2C320.319 18.8133 318.666 18.12 316.213 18.12H311.573ZM374.629 71.08H372.549L359.269 121H340.709L355.109 67.88C348.495 65.7467 345.189 60.9467 345.189 53.48V20.36C345.189 13.7467 346.682 9.05333 349.669 6.28C352.655 3.4 357.242 1.96 363.429 1.96H392.709V121H374.629V71.08ZM374.629 53.8V18.12H369.829C367.162 18.12 365.402 18.7067 364.549 19.88C363.695 21.0533 363.269 23.0267 363.269 25.8V45.32C363.269 50.9733 365.455 53.8 369.829 53.8H374.629ZM399.743 1.96H440.863V19.24H417.823V50.44H435.903V68.52H417.823V102.92H441.823V121H399.743V1.96ZM446.461 121V1.96H469.661L478.301 64.84L487.101 1.96H508.701V121H491.741V44.04L480.861 121H473.661L462.621 44.04V121H446.461ZM561.858 121L559.458 98.6H546.178L543.938 121H527.777L542.338 1.96H563.778L579.298 121H561.858ZM552.738 36.84L548.098 80.84H557.538L552.738 36.84ZM611.061 96.84V69.16H628.821V96.68C628.821 113.853 621.621 122.44 607.221 122.44H603.221C588.395 122.44 580.981 114.067 580.981 97.32V24.68C580.981 17.8533 582.688 12.2 586.101 7.72C589.515 3.13333 595.008 0.839993 602.581 0.839993H606.741C611.435 0.839993 615.328 1.53333 618.421 2.91999C621.621 4.30666 623.915 6.33333 625.301 8.99999C626.688 11.6667 627.595 14.28 628.021 16.84C628.555 19.2933 628.821 22.2267 628.821 25.64V46.92H611.061V25.96C611.061 20.7333 609.035 18.12 604.981 18.12C602.848 18.12 601.355 18.76 600.501 20.04C599.755 21.2133 599.381 23.1867 599.381 25.96V96.68C599.381 102.12 601.301 104.84 605.141 104.84C609.088 104.84 611.061 102.173 611.061 96.84ZM664.186 96.84V69.16H681.946V96.68C681.946 113.853 674.746 122.44 660.346 122.44H656.346C641.52 122.44 634.106 114.067 634.106 97.32V24.68C634.106 17.8533 635.813 12.2 639.226 7.72C642.64 3.13333 648.133 0.839993 655.706 0.839993H659.866C664.56 0.839993 668.453 1.53333 671.546 2.91999C674.746 4.30666 677.04 6.33333 678.426 8.99999C679.813 11.6667 680.72 14.28 681.146 16.84C681.68 19.2933 681.946 22.2267 681.946 25.64V46.92H664.186V25.96C664.186 20.7333 662.16 18.12 658.106 18.12C655.973 18.12 654.48 18.76 653.626 20.04C652.88 21.2133 652.506 23.1867 652.506 25.96V96.68C652.506 102.12 654.426 104.84 658.266 104.84C662.213 104.84 664.186 102.173 664.186 96.84ZM736.671 28.04V94.44C736.671 113.107 728.991 122.44 713.631 122.44H710.591C695.018 122.44 687.231 113.107 687.231 94.44V28.2C687.231 9.95999 694.965 0.839993 710.431 0.839993H713.471C721.791 0.839993 727.711 3.18666 731.231 7.88C734.858 12.5733 736.671 19.2933 736.671 28.04ZM718.271 95.72V27.24C718.271 21.16 716.191 18.12 712.031 18.12C707.765 18.12 705.631 21.16 705.631 27.24V95.72C705.631 101.8 707.818 104.84 712.191 104.84C716.245 104.84 718.271 101.8 718.271 95.72ZM771.508 71.56H760.948V121H742.868V1.96H771.508C778.014 1.96 782.708 3.50666 785.588 6.59999C788.574 9.58666 790.068 14.6 790.068 21.64V49.8C790.068 64.3067 783.881 71.56 771.508 71.56ZM760.948 18.12V54.44H765.588C768.148 54.44 769.801 53.7467 770.548 52.36C771.401 50.8667 771.828 48.68 771.828 45.8V26.28C771.828 23.6133 771.401 21.5867 770.548 20.2C769.694 18.8133 768.041 18.12 765.588 18.12H760.948ZM793.284 1.96H841.604V19.24H826.404V121H808.484V19.24H793.284V1.96ZM876.869 121V56.52L863.909 121H845.829V1.96H863.909V66.44L876.869 1.96H894.949V121H876.869ZM901.93 121V1.96H925.13L933.77 64.84L942.57 1.96H964.17V121H947.21V44.04L936.33 121H929.13L918.09 44.04V121H901.93ZM970.836 1.96H1011.96V19.24H988.916V50.44H1007V68.52H988.916V102.92H1012.92V121H970.836V1.96ZM1035.32 68.68V121H1017.24V1.96H1035.32V49.64H1047.64V1.96H1065.72V121H1047.64V68.68H1035.32ZM1070.47 1.96H1118.79V19.24H1103.59V121H1085.67V19.24H1070.47V1.96Z" fill="#F7E3C6"/>
</svg>
