<svg width="1156" height="121" viewBox="0 0 1156 121" fill="none" xmlns="http://www.w3.org/2000/svg">
<path d="M44.06 24.66V82.76C44.06 99.0933 37.34 107.26 23.9 107.26H21.24C7.61333 107.26 0.8 99.0933 0.8 82.76V24.8C0.8 8.83999 7.56667 0.859993 21.1 0.859993H23.76C31.04 0.859993 36.22 2.91333 39.3 7.02C42.4733 11.1267 44.06 17.0067 44.06 24.66ZM27.96 83.88V23.96C27.96 18.64 26.14 15.98 22.5 15.98C18.7667 15.98 16.9 18.64 16.9 23.96V83.88C16.9 89.2 18.8133 91.86 22.64 91.86C26.1867 91.86 27.96 89.2 27.96 83.88ZM47.5217 1.84H89.8017V16.96H76.5017V106H60.8217V16.96H47.5217V1.84ZM122.479 106L109.319 60.78V106H93.4986V1.84H109.319V43.56L121.779 1.84H137.179L122.479 50.28L138.719 106H122.479ZM166.143 62.74H156.903V106H141.083V1.84H166.143C171.837 1.84 175.943 3.19333 178.463 5.9C181.077 8.51333 182.383 12.9 182.383 19.06V43.7C182.383 56.3933 176.97 62.74 166.143 62.74ZM156.903 15.98V47.76H160.963C163.203 47.76 164.65 47.1533 165.303 45.94C166.05 44.6333 166.423 42.72 166.423 40.2V23.12C166.423 20.7867 166.05 19.0133 165.303 17.8C164.557 16.5867 163.11 15.98 160.963 15.98H156.903ZM202.698 42.16H211.938C222.764 42.16 228.178 48.5533 228.178 61.34V87.8C228.178 94.0533 226.871 98.6733 224.258 101.66C221.644 104.553 217.538 106 211.938 106H186.878V1.84H202.698V42.16ZM202.698 90.88H206.758C208.904 90.88 210.351 90.2733 211.098 89.06C211.844 87.8467 212.218 86.0733 212.218 83.74V64.84C212.218 62.32 211.844 60.4533 211.098 59.24C210.444 57.9333 208.998 57.28 206.758 57.28H202.698V90.88ZM248.478 1.84V106H232.658V1.84H248.478ZM252.463 1.84H294.743V16.96H281.443V106H265.763V16.96H252.463V1.84ZM325.6 106V49.58L314.26 106H298.44V1.84H314.26V58.26L325.6 1.84H341.42V106H325.6ZM347.529 1.84H383.509V16.96H363.349V44.26H379.169V60.08H363.349V90.18H384.349V106H347.529V1.84ZM417.046 22.28V38.8H401.506V21.16C401.506 15.0933 403.046 10.1933 406.126 6.46C409.206 2.72666 413.733 0.859993 419.706 0.859993H422.926C429.74 0.859993 434.64 2.39999 437.626 5.47999C440.613 8.55999 442.106 13.18 442.106 19.34V36.7C442.106 43.7933 439.493 48.4133 434.266 50.56C440.333 52.4267 443.366 57.5133 443.366 65.82V88.08C443.366 93.4933 441.826 98.0667 438.746 101.8C435.666 105.44 430.86 107.26 424.326 107.26H420.126C414.34 107.26 409.766 105.44 406.406 101.8C403.14 98.16 401.506 94.0067 401.506 89.34V66.52H417.046V86.26C417.046 89.9933 418.773 91.86 422.226 91.86C425.586 91.86 427.266 89.9933 427.266 86.26V65.12C427.266 61.76 425.633 60.08 422.366 60.08H415.226V44.26H422.366C424.793 44.26 426.006 41.74 426.006 36.7V22.28C426.006 18.08 424.513 15.98 421.526 15.98C418.54 15.98 417.046 18.08 417.046 22.28ZM475.16 106L473.06 86.4H461.44L459.48 106H445.34L458.08 1.84H476.84L490.42 106H475.16ZM467.18 32.36L463.12 70.86H471.38L467.18 32.36ZM492.997 106V1.84H517.917C524.077 1.84 528.371 3.28666 530.797 6.17999C533.317 9.07333 534.577 13.2733 534.577 18.78V34.74C534.577 42.3933 531.964 47.2 526.737 49.16C532.804 51.4933 535.837 56.58 535.837 64.42V86.96C535.837 92.84 534.437 97.5067 531.637 100.96C528.931 104.32 524.731 106 519.037 106H492.997ZM513.577 58.54H508.817V91.3H513.577C516.004 91.3 517.637 90.74 518.477 89.62C519.317 88.5 519.737 86.7267 519.737 84.3V65.26C519.737 62.9267 519.317 61.2467 518.477 60.22C517.637 59.1 516.004 58.54 513.577 58.54ZM513.577 15.98H508.817V43H513.577C517.217 43 519.037 40.5733 519.037 35.72V22.56C519.037 20.2267 518.617 18.5467 517.777 17.52C517.031 16.4933 515.631 15.98 513.577 15.98ZM583.552 24.66V82.76C583.552 99.0933 576.832 107.26 563.392 107.26H560.732C547.106 107.26 540.292 99.0933 540.292 82.76V24.8C540.292 8.83999 547.059 0.859993 560.592 0.859993H563.252C570.532 0.859993 575.712 2.91333 578.792 7.02C581.966 11.1267 583.552 17.0067 583.552 24.66ZM567.452 83.88V23.96C567.452 18.64 565.632 15.98 561.992 15.98C558.259 15.98 556.392 18.64 556.392 23.96V83.88C556.392 89.2 558.306 91.86 562.132 91.86C565.679 91.86 567.452 89.2 567.452 83.88ZM627.63 120.7V106H600.19V120.7H585.77V90.18H589.27C591.044 86.54 592.35 82.1533 593.19 77.02C594.59 67.6867 595.29 42.6267 595.29 1.84H635.05V90.18H642.05V120.7H627.63ZM608.03 77.44C607.47 82.0133 606.444 86.26 604.95 90.18H619.23V16.96H610.13C610.13 47.3867 609.43 67.5467 608.03 77.44ZM672.446 106L670.346 86.4H658.726L656.766 106H642.626L655.366 1.84H674.126L687.706 106H672.446ZM664.466 32.36L660.406 70.86H668.666L664.466 32.36Z" fill="#1A1A1A"/>
<path d="M704.501 106V1.84H729.421C735.581 1.84 739.875 3.28666 742.301 6.17999C744.821 9.07333 746.081 13.2733 746.081 18.78V34.74C746.081 42.3933 743.468 47.2 738.241 49.16C744.308 51.4933 747.341 56.58 747.341 64.42V86.96C747.341 92.84 745.941 97.5067 743.141 100.96C740.435 104.32 736.235 106 730.541 106H704.501ZM725.081 58.54H720.321V91.3H725.081C727.508 91.3 729.141 90.74 729.981 89.62C730.821 88.5 731.241 86.7267 731.241 84.3V65.26C731.241 62.9267 730.821 61.2467 729.981 60.22C729.141 59.1 727.508 58.54 725.081 58.54ZM725.081 15.98H720.321V43H725.081C728.721 43 730.541 40.5733 730.541 35.72V22.56C730.541 20.2267 730.121 18.5467 729.281 17.52C728.535 16.4933 727.135 15.98 725.081 15.98ZM766.155 106V1.84H804.375V16.96H781.975V42.16H791.215C802.042 42.16 807.455 48.5533 807.455 61.34V87.8C807.455 94.0533 806.148 98.6733 803.535 101.66C800.922 104.553 796.815 106 791.215 106H766.155ZM781.975 90.88H786.035C788.182 90.88 789.628 90.2733 790.375 89.06C791.122 87.8467 791.495 86.0733 791.495 83.74V64.84C791.495 62.32 791.122 60.4533 790.375 59.24C789.722 57.9333 788.275 57.28 786.035 57.28H781.975V90.88ZM855.486 24.66V82.76C855.486 99.0933 848.766 107.26 835.326 107.26H832.666C819.039 107.26 812.226 99.0933 812.226 82.76V24.8C812.226 8.83999 818.992 0.859993 832.526 0.859993H835.186C842.466 0.859993 847.646 2.91333 850.726 7.02C853.899 11.1267 855.486 17.0067 855.486 24.66ZM839.386 83.88V23.96C839.386 18.64 837.566 15.98 833.926 15.98C830.192 15.98 828.326 18.64 828.326 23.96V83.88C828.326 89.2 830.239 91.86 834.066 91.86C837.612 91.86 839.386 89.2 839.386 83.88ZM889.468 106V16.96H880.228C880.228 54.2 879.761 78.42 878.828 89.62C878.454 95.22 877.008 99.3733 874.488 102.08C872.061 104.693 868.001 106 862.307 106H858.388V89.9H859.508C861.281 89.9 862.494 89.3867 863.148 88.36C863.801 87.3333 864.221 85.5133 864.408 82.9C865.061 76.6467 865.388 49.6267 865.388 1.84H905.288V106H889.468ZM954.333 24.66V82.76C954.333 99.0933 947.613 107.26 934.173 107.26H931.513C917.887 107.26 911.073 99.0933 911.073 82.76V24.8C911.073 8.83999 917.84 0.859993 931.373 0.859993H934.033C941.313 0.859993 946.493 2.91333 949.573 7.02C952.747 11.1267 954.333 17.0067 954.333 24.66ZM938.233 83.88V23.96C938.233 18.64 936.413 15.98 932.773 15.98C929.04 15.98 927.173 18.64 927.173 23.96V83.88C927.173 89.2 929.087 91.86 932.913 91.86C936.46 91.86 938.233 89.2 938.233 83.88ZM957.795 1.84H1000.08V16.96H986.775V106H971.095V16.96H957.795V1.84ZM1019.59 60.22V106H1003.77V1.84H1019.59V43.56H1030.37V1.84H1046.19V106H1030.37V60.22H1019.59ZM1095.15 24.66V82.76C1095.15 99.0933 1088.43 107.26 1074.99 107.26H1072.33C1058.71 107.26 1051.89 99.0933 1051.89 82.76V24.8C1051.89 8.83999 1058.66 0.859993 1072.19 0.859993H1074.85C1082.13 0.859993 1087.31 2.91333 1090.39 7.02C1093.57 11.1267 1095.15 17.0067 1095.15 24.66ZM1079.05 83.88V23.96C1079.05 18.64 1077.23 15.98 1073.59 15.98C1069.86 15.98 1067.99 18.64 1067.99 23.96V83.88C1067.99 89.2 1069.91 91.86 1073.73 91.86C1077.28 91.86 1079.05 89.2 1079.05 83.88ZM1100.58 106V1.84H1120.88L1128.44 56.86L1136.14 1.84H1155.04V106H1140.2V38.66L1130.68 106H1124.38L1114.72 38.66V106H1100.58Z" fill="#F7E3C6"/>
</svg>
