<svg width="274" height="140" viewBox="0 0 274 140" fill="none" xmlns="http://www.w3.org/2000/svg">
<mask id="path-1-outside-1_1960_5484" maskUnits="userSpaceOnUse" x="0" y="0" width="274" height="140" fill="black">
<rect fill="white" width="274" height="140"/>
<path d="M3 58.8374V1H25.8037V58.8374H17.0687V9.39575H11.735V58.8374H3Z"/>
<path d="M29.1983 1H49.0646V9.39575H37.9333V24.5547H46.6683V33.3392H37.9333V50.0529H49.5284V58.8374H29.1983V1Z"/>
<path d="M65.6063 34.8162H60.5045V58.8374H51.7695V1H65.6063C68.7499 1 71.0174 1.75147 72.4088 3.25441C73.8517 4.70553 74.5732 7.14133 74.5732 10.5618V24.2438C74.5732 31.2921 71.5842 34.8162 65.6063 34.8162ZM60.5045 8.85158V26.4982H62.7462C63.983 26.4982 64.7818 26.1613 65.1425 25.4876C65.5548 24.762 65.7609 23.6996 65.7609 22.3003V12.8162C65.7609 11.5206 65.5548 10.5359 65.1425 9.86218C64.7302 9.18845 63.9315 8.85158 62.7462 8.85158H60.5045Z"/>
<path d="M77.2093 58.8374V1H90.9688C94.37 1 96.7406 1.8033 98.0805 3.40989C99.4719 5.01648 100.168 7.34863 100.168 10.4063V19.2685C100.168 23.5182 98.7246 26.1872 95.8387 27.2756C99.1884 28.5712 100.863 31.3957 100.863 35.7491V48.265C100.863 51.53 100.09 54.1212 98.5443 56.0388C97.0498 57.9045 94.7308 58.8374 91.5872 58.8374H77.2093ZM88.5725 32.4841H85.9443V50.6748H88.5725C89.9124 50.6748 90.8142 50.3639 91.278 49.742C91.7418 49.1201 91.9737 48.1354 91.9737 46.7879V36.2155C91.9737 34.9199 91.7418 33.987 91.278 33.4169C90.8142 32.795 89.9124 32.4841 88.5725 32.4841ZM88.5725 8.85158H85.9443V23.8551H88.5725C90.5823 23.8551 91.5872 22.5076 91.5872 19.8127V12.5053C91.5872 11.2096 91.3553 10.2768 90.8915 9.7067C90.4792 9.13662 89.7062 8.85158 88.5725 8.85158Z"/>
<path d="M118.165 58.8374L117.005 47.954H110.589L109.507 58.8374H101.7L108.734 1H119.092L126.591 58.8374H118.165ZM113.759 17.947L111.517 39.325H116.078L113.759 17.947Z"/>
<path d="M142.528 34.583H141.523L135.107 58.8374H126.14L133.097 33.0282C129.902 31.9917 128.304 29.6596 128.304 26.0318V9.93992C128.304 6.72673 129.026 4.4464 130.469 3.09894C131.912 1.69965 134.128 1 137.117 1H151.263V58.8374H142.528V34.583ZM142.528 26.1872V8.85158H140.209C138.92 8.85158 138.07 9.13662 137.658 9.7067C137.246 10.2768 137.039 11.2356 137.039 12.583V22.0671C137.039 24.8139 138.096 26.1872 140.209 26.1872H142.528Z"/>
<path d="M14.7595 72.2227H23.4945V77.4312H23.7264C28.5191 77.4312 31.9718 78.5195 34.0847 80.6962C36.1976 82.821 37.254 86.2674 37.254 91.0354V110.625C37.254 115.342 36.1718 118.788 34.0074 120.965C31.8945 123.09 28.4417 124.152 23.6491 124.152H23.4945V131.615H14.7595V124.152H14.6049C9.81228 124.152 6.33375 123.064 4.16933 120.887C2.05645 118.71 1 115.264 1 110.548V91.0354C1 86.2156 2.05645 82.7433 4.16933 80.6184C6.28222 78.4936 9.73498 77.4312 14.5276 77.4312H14.7595V72.2227ZM14.7595 85.1273H14.5276C12.7239 85.1273 11.4871 85.6455 10.8172 86.682C10.1988 87.6667 9.88958 89.1438 9.88958 91.1131V108.915C9.88958 111.61 10.1988 113.554 10.8172 114.746C11.4356 115.886 12.6724 116.456 14.5276 116.456H14.7595V85.1273ZM23.4945 85.1273V116.456H23.8037C25.6589 116.456 26.87 115.886 27.4368 114.746C28.0553 113.554 28.3645 111.61 28.3645 108.915V91.1131C28.3645 89.1438 28.0295 87.6667 27.3595 86.682C26.7411 85.6455 25.5559 85.1273 23.8037 85.1273H23.4945Z"/>
<path d="M55.035 130.837V99.5089L48.7736 130.837H40.0387V73.0001H48.7736V104.329L55.035 73.0001H63.77V130.837H55.035Z"/>
<path d="M82.9122 130.837V81.3958H77.8103C77.8103 102.074 77.5527 115.523 77.0373 121.742C76.8312 124.852 76.0324 127.158 74.641 128.661C73.3011 130.112 71.0594 130.837 67.9158 130.837H65.7514V121.898H66.3698C67.349 121.898 68.0189 121.613 68.3796 121.042C68.7404 120.472 68.9723 119.462 69.0753 118.011C69.4361 114.538 69.6164 99.5348 69.6164 73.0001H91.6471V130.837H82.9122Z"/>
<path d="M103.654 95.3887H108.756C114.734 95.3887 117.723 98.9388 117.723 106.039V120.731C117.723 124.204 117.001 126.769 115.558 128.428C114.115 130.034 111.848 130.837 108.756 130.837H94.9191V73.0001H103.654V95.3887ZM103.654 122.442H105.896C107.081 122.442 107.88 122.105 108.292 121.431C108.704 120.757 108.911 119.773 108.911 118.477V107.982C108.911 106.583 108.704 105.547 108.292 104.873C107.931 104.147 107.133 103.784 105.896 103.784H103.654V122.442Z"/>
<path d="M119.431 73.0001H142.776V81.3958H135.433V130.837H126.775V81.3958H119.431V73.0001Z"/>
<path d="M158.809 106.816H153.707V130.837H144.972V73.0001H158.809C161.952 73.0001 164.22 73.7516 165.611 75.2545C167.054 76.7056 167.776 79.1414 167.776 82.5619V96.2439C167.776 103.292 164.787 106.816 158.809 106.816ZM153.707 80.8517V98.4983H155.949C157.185 98.4983 157.984 98.1614 158.345 97.4877C158.757 96.7621 158.963 95.6997 158.963 94.3004V84.8163C158.963 83.5207 158.757 82.536 158.345 81.8623C157.933 81.1885 157.134 80.8517 155.949 80.8517H153.707Z"/>
<path d="M185.022 130.837L183.862 119.954H177.446L176.364 130.837H168.556L175.591 73.0001H185.949L193.447 130.837H185.022ZM180.615 89.9471L178.374 111.325H182.934L180.615 89.9471Z"/>
<path d="M215.422 139L213.422 130.837H194.716V73.0001H203.451V122.053H208.784V73.0001H217.519V122.053H221.384L223.384 139H215.422Z"/>
<path d="M238.398 130.837V99.5089L232.136 130.837H223.401V73.0001H232.136V104.329L238.398 73.0001H247.133V130.837H238.398Z"/>
<path d="M264.265 106.583H263.26L256.844 130.837H247.877L254.834 105.028C251.639 103.992 250.042 101.66 250.042 98.0319V81.94C250.042 78.7268 250.763 76.4465 252.206 75.099C253.649 73.6997 255.865 73.0001 258.854 73.0001H273V130.837H264.265V106.583ZM264.265 98.1873V80.8517H261.946C260.658 80.8517 259.807 81.1367 259.395 81.7068C258.983 82.2769 258.777 83.2356 258.777 84.5831V94.0672C258.777 96.8139 259.833 98.1873 261.946 98.1873H264.265Z"/>
</mask>
<path d="M3 58.8374V1H25.8037V58.8374H17.0687V9.39575H11.735V58.8374H3Z" stroke="#DEBE98" stroke-width="2" mask="url(#path-1-outside-1_1960_5484)"/>
<path d="M29.1983 1H49.0646V9.39575H37.9333V24.5547H46.6683V33.3392H37.9333V50.0529H49.5284V58.8374H29.1983V1Z" stroke="#DEBE98" stroke-width="2" mask="url(#path-1-outside-1_1960_5484)"/>
<path d="M65.6063 34.8162H60.5045V58.8374H51.7695V1H65.6063C68.7499 1 71.0174 1.75147 72.4088 3.25441C73.8517 4.70553 74.5732 7.14133 74.5732 10.5618V24.2438C74.5732 31.2921 71.5842 34.8162 65.6063 34.8162ZM60.5045 8.85158V26.4982H62.7462C63.983 26.4982 64.7818 26.1613 65.1425 25.4876C65.5548 24.762 65.7609 23.6996 65.7609 22.3003V12.8162C65.7609 11.5206 65.5548 10.5359 65.1425 9.86218C64.7302 9.18845 63.9315 8.85158 62.7462 8.85158H60.5045Z" stroke="#DEBE98" stroke-width="2" mask="url(#path-1-outside-1_1960_5484)"/>
<path d="M77.2093 58.8374V1H90.9688C94.37 1 96.7406 1.8033 98.0805 3.40989C99.4719 5.01648 100.168 7.34863 100.168 10.4063V19.2685C100.168 23.5182 98.7246 26.1872 95.8387 27.2756C99.1884 28.5712 100.863 31.3957 100.863 35.7491V48.265C100.863 51.53 100.09 54.1212 98.5443 56.0388C97.0498 57.9045 94.7308 58.8374 91.5872 58.8374H77.2093ZM88.5725 32.4841H85.9443V50.6748H88.5725C89.9124 50.6748 90.8142 50.3639 91.278 49.742C91.7418 49.1201 91.9737 48.1354 91.9737 46.7879V36.2155C91.9737 34.9199 91.7418 33.987 91.278 33.4169C90.8142 32.795 89.9124 32.4841 88.5725 32.4841ZM88.5725 8.85158H85.9443V23.8551H88.5725C90.5823 23.8551 91.5872 22.5076 91.5872 19.8127V12.5053C91.5872 11.2096 91.3553 10.2768 90.8915 9.7067C90.4792 9.13662 89.7062 8.85158 88.5725 8.85158Z" stroke="#DEBE98" stroke-width="2" mask="url(#path-1-outside-1_1960_5484)"/>
<path d="M118.165 58.8374L117.005 47.954H110.589L109.507 58.8374H101.7L108.734 1H119.092L126.591 58.8374H118.165ZM113.759 17.947L111.517 39.325H116.078L113.759 17.947Z" stroke="#DEBE98" stroke-width="2" mask="url(#path-1-outside-1_1960_5484)"/>
<path d="M142.528 34.583H141.523L135.107 58.8374H126.14L133.097 33.0282C129.902 31.9917 128.304 29.6596 128.304 26.0318V9.93992C128.304 6.72673 129.026 4.4464 130.469 3.09894C131.912 1.69965 134.128 1 137.117 1H151.263V58.8374H142.528V34.583ZM142.528 26.1872V8.85158H140.209C138.92 8.85158 138.07 9.13662 137.658 9.7067C137.246 10.2768 137.039 11.2356 137.039 12.583V22.0671C137.039 24.8139 138.096 26.1872 140.209 26.1872H142.528Z" stroke="#DEBE98" stroke-width="2" mask="url(#path-1-outside-1_1960_5484)"/>
<path d="M14.7595 72.2227H23.4945V77.4312H23.7264C28.5191 77.4312 31.9718 78.5195 34.0847 80.6962C36.1976 82.821 37.254 86.2674 37.254 91.0354V110.625C37.254 115.342 36.1718 118.788 34.0074 120.965C31.8945 123.09 28.4417 124.152 23.6491 124.152H23.4945V131.615H14.7595V124.152H14.6049C9.81228 124.152 6.33375 123.064 4.16933 120.887C2.05645 118.71 1 115.264 1 110.548V91.0354C1 86.2156 2.05645 82.7433 4.16933 80.6184C6.28222 78.4936 9.73498 77.4312 14.5276 77.4312H14.7595V72.2227ZM14.7595 85.1273H14.5276C12.7239 85.1273 11.4871 85.6455 10.8172 86.682C10.1988 87.6667 9.88958 89.1438 9.88958 91.1131V108.915C9.88958 111.61 10.1988 113.554 10.8172 114.746C11.4356 115.886 12.6724 116.456 14.5276 116.456H14.7595V85.1273ZM23.4945 85.1273V116.456H23.8037C25.6589 116.456 26.87 115.886 27.4368 114.746C28.0553 113.554 28.3645 111.61 28.3645 108.915V91.1131C28.3645 89.1438 28.0295 87.6667 27.3595 86.682C26.7411 85.6455 25.5559 85.1273 23.8037 85.1273H23.4945Z" stroke="#DEBE98" stroke-width="2" mask="url(#path-1-outside-1_1960_5484)"/>
<path d="M55.035 130.837V99.5089L48.7736 130.837H40.0387V73.0001H48.7736V104.329L55.035 73.0001H63.77V130.837H55.035Z" stroke="#DEBE98" stroke-width="2" mask="url(#path-1-outside-1_1960_5484)"/>
<path d="M82.9122 130.837V81.3958H77.8103C77.8103 102.074 77.5527 115.523 77.0373 121.742C76.8312 124.852 76.0324 127.158 74.641 128.661C73.3011 130.112 71.0594 130.837 67.9158 130.837H65.7514V121.898H66.3698C67.349 121.898 68.0189 121.613 68.3796 121.042C68.7404 120.472 68.9723 119.462 69.0753 118.011C69.4361 114.538 69.6164 99.5348 69.6164 73.0001H91.6471V130.837H82.9122Z" stroke="#DEBE98" stroke-width="2" mask="url(#path-1-outside-1_1960_5484)"/>
<path d="M103.654 95.3887H108.756C114.734 95.3887 117.723 98.9388 117.723 106.039V120.731C117.723 124.204 117.001 126.769 115.558 128.428C114.115 130.034 111.848 130.837 108.756 130.837H94.9191V73.0001H103.654V95.3887ZM103.654 122.442H105.896C107.081 122.442 107.88 122.105 108.292 121.431C108.704 120.757 108.911 119.773 108.911 118.477V107.982C108.911 106.583 108.704 105.547 108.292 104.873C107.931 104.147 107.133 103.784 105.896 103.784H103.654V122.442Z" stroke="#DEBE98" stroke-width="2" mask="url(#path-1-outside-1_1960_5484)"/>
<path d="M119.431 73.0001H142.776V81.3958H135.433V130.837H126.775V81.3958H119.431V73.0001Z" stroke="#DEBE98" stroke-width="2" mask="url(#path-1-outside-1_1960_5484)"/>
<path d="M158.809 106.816H153.707V130.837H144.972V73.0001H158.809C161.952 73.0001 164.22 73.7516 165.611 75.2545C167.054 76.7056 167.776 79.1414 167.776 82.5619V96.2439C167.776 103.292 164.787 106.816 158.809 106.816ZM153.707 80.8517V98.4983H155.949C157.185 98.4983 157.984 98.1614 158.345 97.4877C158.757 96.7621 158.963 95.6997 158.963 94.3004V84.8163C158.963 83.5207 158.757 82.536 158.345 81.8623C157.933 81.1885 157.134 80.8517 155.949 80.8517H153.707Z" stroke="#DEBE98" stroke-width="2" mask="url(#path-1-outside-1_1960_5484)"/>
<path d="M185.022 130.837L183.862 119.954H177.446L176.364 130.837H168.556L175.591 73.0001H185.949L193.447 130.837H185.022ZM180.615 89.9471L178.374 111.325H182.934L180.615 89.9471Z" stroke="#DEBE98" stroke-width="2" mask="url(#path-1-outside-1_1960_5484)"/>
<path d="M215.422 139L213.422 130.837H194.716V73.0001H203.451V122.053H208.784V73.0001H217.519V122.053H221.384L223.384 139H215.422Z" stroke="#DEBE98" stroke-width="2" mask="url(#path-1-outside-1_1960_5484)"/>
<path d="M238.398 130.837V99.5089L232.136 130.837H223.401V73.0001H232.136V104.329L238.398 73.0001H247.133V130.837H238.398Z" stroke="#DEBE98" stroke-width="2" mask="url(#path-1-outside-1_1960_5484)"/>
<path d="M264.265 106.583H263.26L256.844 130.837H247.877L254.834 105.028C251.639 103.992 250.042 101.66 250.042 98.0319V81.94C250.042 78.7268 250.763 76.4465 252.206 75.099C253.649 73.6997 255.865 73.0001 258.854 73.0001H273V130.837H264.265V106.583ZM264.265 98.1873V80.8517H261.946C260.658 80.8517 259.807 81.1367 259.395 81.7068C258.983 82.2769 258.777 83.2356 258.777 84.5831V94.0672C258.777 96.8139 259.833 98.1873 261.946 98.1873H264.265Z" stroke="#DEBE98" stroke-width="2" mask="url(#path-1-outside-1_1960_5484)"/>
</svg>
