<svg width="253" height="106" viewBox="0 0 253 106" fill="none" xmlns="http://www.w3.org/2000/svg">
<path d="M0.38 45V0.359999H9.08L12.32 23.94L15.62 0.359999H23.72V45H17.36V16.14L13.28 45H10.58L6.44 16.14V45H0.38ZM32.8798 17.64H36.8398C41.4798 17.64 43.7998 20.38 43.7998 25.86V37.2C43.7998 39.88 43.2398 41.86 42.1198 43.14C40.9998 44.38 39.2398 45 36.8398 45H26.0998V0.359999H32.8798V17.64ZM32.8798 38.52H34.6198C35.5398 38.52 36.1598 38.26 36.4798 37.74C36.7998 37.22 36.9598 36.46 36.9598 35.46V27.36C36.9598 26.28 36.7998 25.48 36.4798 24.96C36.1998 24.4 35.5798 24.12 34.6198 24.12H32.8798V38.52ZM52.4998 0.359999V45H45.7198V0.359999H52.4998ZM61.1417 45V0.359999H71.8217C74.4617 0.359999 76.3017 0.979998 77.3417 2.22C78.4217 3.46 78.9617 5.26 78.9617 7.62V14.46C78.9617 17.74 77.8417 19.8 75.6017 20.64C78.2017 21.64 79.5017 23.82 79.5017 27.18V36.84C79.5017 39.36 78.9017 41.36 77.7017 42.84C76.5417 44.28 74.7417 45 72.3017 45H61.1417ZM69.9617 24.66H67.9217V38.7H69.9617C71.0017 38.7 71.7017 38.46 72.0617 37.98C72.4217 37.5 72.6017 36.74 72.6017 35.7V27.54C72.6017 26.54 72.4217 25.82 72.0617 25.38C71.7017 24.9 71.0017 24.66 69.9617 24.66ZM69.9617 6.42H67.9217V18H69.9617C71.5217 18 72.3017 16.96 72.3017 14.88V9.24C72.3017 8.24 72.1217 7.52 71.7617 7.08C71.4417 6.64 70.8417 6.42 69.9617 6.42ZM92.9309 45L92.0309 36.6H87.0509L86.2109 45H80.1509L85.6109 0.359999H93.6509L99.4709 45H92.9309ZM89.5109 13.44L87.7709 29.94H91.3109L89.5109 13.44ZM111.315 26.46H107.355V45H100.575V0.359999H111.315C113.755 0.359999 115.515 0.939999 116.595 2.1C117.715 3.22 118.275 5.1 118.275 7.74V18.3C118.275 23.74 115.955 26.46 111.315 26.46ZM107.355 6.42V20.04H109.095C110.055 20.04 110.675 19.78 110.955 19.26C111.275 18.7 111.435 17.88 111.435 16.8V9.48C111.435 8.48 111.275 7.72 110.955 7.2C110.635 6.68 110.015 6.42 109.095 6.42H107.355ZM131.841 45V20.82L126.981 45H120.201V0.359999H126.981V24.54L131.841 0.359999H138.621V45H131.841ZM141.239 45V0.359999H149.939L153.179 23.94L156.479 0.359999H164.579V45H158.219V16.14L154.139 45H151.439L147.299 16.14V45H141.239Z" fill="#F7E3C6"/>
<path d="M7.04 85.38V105H0.26V60.36H7.04V78.24H11.66V60.36H18.44V105H11.66V85.38H7.04ZM21.0636 60.36H36.4836V66.84H27.8436V78.54H34.6236V85.32H27.8436V98.22H36.8436V105H21.0636V60.36ZM43.8369 60.36H61.9569V66.84H56.2569V105H49.5369V66.84H43.8369V60.36ZM82.0213 70.14V95.04C82.0213 102.04 79.1413 105.54 73.3813 105.54H72.2413C66.4013 105.54 63.4813 102.04 63.4813 95.04V70.2C63.4813 63.36 66.3813 59.94 72.1813 59.94H73.3213C76.4413 59.94 78.6613 60.82 79.9813 62.58C81.3413 64.34 82.0213 66.86 82.0213 70.14ZM75.1213 95.52V69.84C75.1213 67.56 74.3413 66.42 72.7813 66.42C71.1813 66.42 70.3813 67.56 70.3813 69.84V95.52C70.3813 97.8 71.2013 98.94 72.8413 98.94C74.3613 98.94 75.1213 97.8 75.1213 95.52ZM96.5848 105V66.84H92.6248C92.6248 82.8 92.4248 93.18 92.0248 97.98C91.8648 100.38 91.2448 102.16 90.1648 103.32C89.1248 104.44 87.3848 105 84.9448 105H83.2648V98.1H83.7448C84.5048 98.1 85.0248 97.88 85.3048 97.44C85.5848 97 85.7648 96.22 85.8448 95.1C86.1248 92.42 86.2648 80.84 86.2648 60.36H103.365V105H96.5848ZM112.685 77.64H116.645C121.285 77.64 123.605 80.38 123.605 85.86V97.2C123.605 99.88 123.045 101.86 121.925 103.14C120.805 104.38 119.045 105 116.645 105H105.905V60.36H112.685V77.64ZM112.685 98.52H114.425C115.345 98.52 115.965 98.26 116.285 97.74C116.605 97.22 116.765 96.46 116.765 95.46V87.36C116.765 86.28 116.605 85.48 116.285 84.96C116.005 84.4 115.385 84.12 114.425 84.12H112.685V98.52ZM138.071 105L132.431 85.62V105H125.651V60.36H132.431V78.24L137.771 60.36H144.371L138.071 81.12L145.031 105H138.071ZM164.404 70.14V95.04C164.404 102.04 161.524 105.54 155.764 105.54H154.624C148.784 105.54 145.864 102.04 145.864 95.04V70.2C145.864 63.36 148.764 59.94 154.564 59.94H155.704C158.824 59.94 161.044 60.82 162.364 62.58C163.724 64.34 164.404 66.86 164.404 70.14ZM157.504 95.52V69.84C157.504 67.56 156.724 66.42 155.164 66.42C153.564 66.42 152.764 67.56 152.764 69.84V95.52C152.764 97.8 153.584 98.94 155.224 98.94C156.744 98.94 157.504 97.8 157.504 95.52ZM172.701 105V60.36H190.401V105H183.621V66.84H179.481V105H172.701ZM204.556 105V80.82L199.696 105H192.916V60.36H199.696V84.54L204.556 60.36H211.336V105H204.556ZM213.954 105V60.36H224.634C227.274 60.36 229.114 60.98 230.154 62.22C231.234 63.46 231.774 65.26 231.774 67.62V74.46C231.774 77.74 230.654 79.8 228.414 80.64C231.014 81.64 232.314 83.82 232.314 87.18V96.84C232.314 99.36 231.714 101.36 230.514 102.84C229.354 104.28 227.554 105 225.114 105H213.954ZM222.774 84.66H220.734V98.7H222.774C223.814 98.7 224.514 98.46 224.874 97.98C225.234 97.5 225.414 96.74 225.414 95.7V87.54C225.414 86.54 225.234 85.82 224.874 85.38C224.514 84.9 223.814 84.66 222.774 84.66ZM222.774 66.42H220.734V78H222.774C224.334 78 225.114 76.96 225.114 74.88V69.24C225.114 68.24 224.934 67.52 224.574 67.08C224.254 66.64 223.654 66.42 222.774 66.42ZM252.763 70.14V95.04C252.763 102.04 249.883 105.54 244.123 105.54H242.983C237.143 105.54 234.223 102.04 234.223 95.04V70.2C234.223 63.36 237.123 59.94 242.923 59.94H244.063C247.183 59.94 249.403 60.82 250.723 62.58C252.083 64.34 252.763 66.86 252.763 70.14ZM245.863 95.52V69.84C245.863 67.56 245.083 66.42 243.523 66.42C241.923 66.42 241.123 67.56 241.123 69.84V95.52C241.123 97.8 241.943 98.94 243.583 98.94C245.103 98.94 245.863 97.8 245.863 95.52Z" fill="#FFB406"/>
</svg>
