<svg width="1135" height="123" viewBox="0 0 1135 123" fill="none" xmlns="http://www.w3.org/2000/svg">
<path d="M0.68 121V1.96H23.88L32.52 64.84L41.32 1.96H62.92V121H45.96V44.04L35.08 121H27.88L16.84 44.04V121H0.68ZM87.3463 48.04H97.9063C110.28 48.04 116.466 55.3467 116.466 69.96V100.2C116.466 107.347 114.973 112.627 111.986 116.04C109 119.347 104.306 121 97.9063 121H69.2663V1.96H87.3463V48.04ZM87.3463 103.72H91.9863C94.4396 103.72 96.0929 103.027 96.9463 101.64C97.7996 100.253 98.2263 98.2267 98.2263 95.56V73.96C98.2263 71.08 97.7996 68.9467 96.9463 67.56C96.1996 66.0667 94.5463 65.32 91.9863 65.32H87.3463V103.72ZM139.666 1.96V121H121.586V1.96H139.666ZM162.711 121V1.96H191.191C198.231 1.96 203.138 3.61333 205.911 6.91999C208.791 10.2267 210.231 15.0267 210.231 21.32V39.56C210.231 48.3067 207.245 53.8 201.271 56.04C208.205 58.7067 211.671 64.52 211.671 73.48V99.24C211.671 105.96 210.071 111.293 206.871 115.24C203.778 119.08 198.978 121 192.471 121H162.711ZM186.231 66.76H180.791V104.2H186.231C189.005 104.2 190.871 103.56 191.831 102.28C192.791 101 193.271 98.9733 193.271 96.2V74.44C193.271 71.7733 192.791 69.8533 191.831 68.68C190.871 67.4 189.005 66.76 186.231 66.76ZM186.231 18.12H180.791V49H186.231C190.391 49 192.471 46.2267 192.471 40.68V25.64C192.471 22.9733 191.991 21.0533 191.031 19.88C190.178 18.7067 188.578 18.12 186.231 18.12ZM247.483 121L245.083 98.6H231.803L229.563 121H213.402L227.963 1.96H249.403L264.923 121H247.483ZM238.363 36.84L233.723 80.84H243.163L238.363 36.84ZM296.508 71.56H285.948V121H267.868V1.96H296.508C303.014 1.96 307.708 3.50666 310.588 6.59999C313.574 9.58666 315.068 14.6 315.068 21.64V49.8C315.068 64.3067 308.881 71.56 296.508 71.56ZM285.948 18.12V54.44H290.588C293.148 54.44 294.801 53.7467 295.548 52.36C296.401 50.8667 296.828 48.68 296.828 45.8V26.28C296.828 23.6133 296.401 21.5867 295.548 20.2C294.694 18.8133 293.041 18.12 290.588 18.12H285.948ZM351.244 121V56.52L338.284 121H320.204V1.96H338.284V66.44L351.244 1.96H369.324V121H351.244ZM376.305 121V1.96H399.505L408.145 64.84L416.945 1.96H438.545V121H421.585V44.04L410.705 121H403.505L392.465 44.04V121H376.305Z" fill="#F7E3C6"/>
<path d="M479.221 68.68V121H461.141V1.96H479.221V49.64H491.541V1.96H509.621V121H491.541V68.68H479.221ZM516.618 1.96H557.738V19.24H534.698V50.44H552.778V68.52H534.698V102.92H558.698V121H516.618V1.96ZM577.346 1.96H625.666V19.24H610.466V121H592.546V19.24H577.346V1.96ZM679.171 28.04V94.44C679.171 113.107 671.491 122.44 656.131 122.44H653.091C637.518 122.44 629.731 113.107 629.731 94.44V28.2C629.731 9.95999 637.465 0.839993 652.931 0.839993H655.971C664.291 0.839993 670.211 3.18666 673.731 7.88C677.358 12.5733 679.171 19.2933 679.171 28.04ZM660.771 95.72V27.24C660.771 21.16 658.691 18.12 654.531 18.12C650.265 18.12 648.131 21.16 648.131 27.24V95.72C648.131 101.8 650.318 104.84 654.691 104.84C658.745 104.84 660.771 101.8 660.771 95.72ZM718.008 121V19.24H707.448C707.448 61.8 706.914 89.48 705.848 102.28C705.421 108.68 703.768 113.427 700.888 116.52C698.114 119.507 693.474 121 686.967 121H682.488V102.6H683.768C685.794 102.6 687.181 102.013 687.928 100.84C688.674 99.6667 689.154 97.5867 689.368 94.6C690.114 87.4533 690.488 56.5733 690.488 1.96H736.088V121H718.008ZM760.94 48.04H771.5C783.873 48.04 790.06 55.3467 790.06 69.96V100.2C790.06 107.347 788.567 112.627 785.58 116.04C782.593 119.347 777.9 121 771.5 121H742.86V1.96H760.94V48.04ZM760.94 103.72H765.58C768.033 103.72 769.687 103.027 770.54 101.64C771.393 100.253 771.82 98.2267 771.82 95.56V73.96C771.82 71.08 771.393 68.9467 770.54 67.56C769.793 66.0667 768.14 65.32 765.58 65.32H760.94V103.72ZM828.636 121L813.596 69.32V121H795.516V1.96H813.596V49.64L827.836 1.96H845.436L828.636 57.32L847.196 121H828.636ZM898.859 28.04V94.44C898.859 113.107 891.179 122.44 875.819 122.44H872.779C857.205 122.44 849.419 113.107 849.419 94.44V28.2C849.419 9.95999 857.152 0.839993 872.619 0.839993H875.659C883.979 0.839993 889.899 3.18666 893.419 7.88C897.045 12.5733 898.859 19.2933 898.859 28.04ZM880.459 95.72V27.24C880.459 21.16 878.379 18.12 874.219 18.12C869.952 18.12 867.819 21.16 867.819 27.24V95.72C867.819 101.8 870.005 104.84 874.379 104.84C878.432 104.84 880.459 101.8 880.459 95.72ZM920.985 121V1.96H968.185V121H950.105V19.24H939.065V121H920.985ZM1005.93 121V56.52L992.971 121H974.891V1.96H992.971V66.44L1005.93 1.96H1024.01V121H1005.93ZM1030.99 121V1.96H1059.47C1066.51 1.96 1071.42 3.61333 1074.19 6.91999C1077.07 10.2267 1078.51 15.0267 1078.51 21.32V39.56C1078.51 48.3067 1075.53 53.8 1069.55 56.04C1076.49 58.7067 1079.95 64.52 1079.95 73.48V99.24C1079.95 105.96 1078.35 111.293 1075.15 115.24C1072.06 119.08 1067.26 121 1060.75 121H1030.99ZM1054.51 66.76H1049.07V104.2H1054.51C1057.29 104.2 1059.15 103.56 1060.11 102.28C1061.07 101 1061.55 98.9733 1061.55 96.2V74.44C1061.55 71.7733 1061.07 69.8533 1060.11 68.68C1059.15 67.4 1057.29 66.76 1054.51 66.76ZM1054.51 18.12H1049.07V49H1054.51C1058.67 49 1060.75 46.2267 1060.75 40.68V25.64C1060.75 22.9733 1060.27 21.0533 1059.31 19.88C1058.46 18.7067 1056.86 18.12 1054.51 18.12ZM1134.48 28.04V94.44C1134.48 113.107 1126.8 122.44 1111.44 122.44H1108.4C1092.83 122.44 1085.04 113.107 1085.04 94.44V28.2C1085.04 9.95999 1092.78 0.839993 1108.24 0.839993H1111.28C1119.6 0.839993 1125.52 3.18666 1129.04 7.88C1132.67 12.5733 1134.48 19.2933 1134.48 28.04ZM1116.08 95.72V27.24C1116.08 21.16 1114 18.12 1109.84 18.12C1105.58 18.12 1103.44 21.16 1103.44 27.24V95.72C1103.44 101.8 1105.63 104.84 1110 104.84C1114.06 104.84 1116.08 101.8 1116.08 95.72Z" fill="#FFA800"/>
</svg>
