<svg width="39" height="28" viewBox="0 0 39 28" fill="none" xmlns="http://www.w3.org/2000/svg">
<path d="M20.085 7.34518V7.3228C20.0725 6.99949 19.9788 6.68463 19.8127 6.40701C19.6465 6.12939 19.4134 5.89794 19.1345 5.73394L19.0167 1.20068H17.2413L17.1234 5.73394C16.8469 5.89591 16.6153 6.12439 16.4494 6.39856C16.2837 6.67289 16.189 6.98415 16.1742 7.30418C16.1727 7.31075 16.1727 7.31748 16.1742 7.32406V16.1497H20.0877V7.44846C20.0877 7.43266 20.0877 7.41545 20.0877 7.39823C20.0877 7.38102 20.0864 7.36114 20.085 7.34518Z" fill="white"/>
<path d="M15.1132 3.03309L15.1013 2.38428H13.38C13.38 2.49163 13.3628 3.03309 13.3628 3.03309H15.1132Z" fill="white"/>
<path d="M16.1966 9.72994V9.70741C16.184 9.38426 16.0904 9.06923 15.9242 8.79162C15.7582 8.514 15.5248 8.28271 15.246 8.11871L15.1281 3.58545H13.3527L13.2388 8.12137C12.9623 8.28318 12.7304 8.5115 12.5646 8.78583C12.3987 9.06 12.3042 9.37142 12.2895 9.6916C12.2883 9.69818 12.2883 9.70491 12.2895 9.71148V16.1525H16.2032V9.83198C16.2032 9.81602 16.2032 9.7988 16.2032 9.78159C16.2032 9.76437 16.1979 9.74591 16.1966 9.72994Z" fill="white"/>
<path d="M23.9895 9.72994V9.70741C23.9773 9.3841 23.8839 9.06892 23.7177 8.79131C23.5517 8.51354 23.3182 8.28224 23.0389 8.11871L22.9224 3.58545H21.1456L21.0278 8.11871C20.7514 8.28067 20.52 8.50931 20.3546 8.78349C20.189 9.05766 20.0945 9.36892 20.0799 9.68894C20.0785 9.69552 20.0785 9.70225 20.0799 9.70882V16.15H23.9895V9.83198C23.9895 9.81602 23.9895 9.7988 23.9895 9.78159C23.9895 9.76438 23.9908 9.74591 23.9895 9.72994Z" fill="white"/>
<path d="M12.3346 11.5742L9.65088 10.2583V16.1526H12.3346V11.5742Z" fill="#DEBE98"/>
<path d="M9.76302 11.5742L7.07935 10.2583V16.1526H9.76302V11.5742Z" fill="#DEBE98"/>
<path d="M23.9288 11.5492L26.6907 10.2583L30.7102 13.923V16.1526H23.7886L23.9288 11.5492Z" fill="#DEBE98"/>
<path d="M19.0031 0.648815L18.99 0H17.2687C17.2687 0.107197 17.2529 0.648815 17.2529 0.648815H19.0031Z" fill="white"/>
<path d="M22.9034 3.03309L22.8915 2.38428H21.1823C21.1823 2.49163 21.165 3.03309 21.165 3.03309H22.9034Z" fill="white"/>
<path d="M26.6746 10.6582V15.8217H30.4227V14.0741L26.6746 10.6582Z" fill="#262626"/>
<path d="M29.1399 15.3486H27.8596V14.0325C27.8596 13.863 27.9271 13.7003 28.0469 13.5804C28.1668 13.4604 28.3296 13.3931 28.4992 13.3931C28.6688 13.3931 28.8316 13.4604 28.9518 13.5802C29.072 13.7001 29.1396 13.8629 29.1399 14.0325V15.3486Z" fill="#DEBE98"/>
<path d="M8.42188 11.3027V15.8214H9.38712V11.7767L8.42188 11.3027Z" fill="#262626"/>
<path d="M11.1533 11.3345V15.8214H12.0563V11.7767L11.1533 11.3345Z" fill="#262626"/>
<path d="M15.8722 9.98409C15.8722 9.96828 15.8722 9.95106 15.8722 9.9351V9.91272C15.86 9.58941 15.7667 9.27455 15.6008 8.99678C15.4349 8.71916 15.2018 8.48771 14.9229 8.32386L14.805 3.87793H14.3589V9.06C14.5362 9.34153 14.6359 9.665 14.6475 9.99739V10.0212C14.6475 10.0371 14.6475 10.0543 14.6475 10.0702C14.6475 10.0861 14.6475 10.1046 14.6475 10.1191V15.8189H15.8722V10.0345C15.8722 10.0185 15.8722 10.0013 15.8722 9.98409Z" fill="#262626"/>
<path d="M19.7503 7.56514C19.7503 7.54934 19.7503 7.53212 19.7503 7.51616V7.49378C19.7376 7.17047 19.644 6.85561 19.4778 6.57799C19.3118 6.30037 19.0785 6.06892 18.7996 5.90492L18.6818 1.45898H18.2356V6.70725C18.3874 6.97344 18.4732 7.27219 18.4858 7.57844V7.60223C18.4858 7.61819 18.4858 7.634 18.4858 7.65121C18.4858 7.66842 18.4858 7.68564 18.4858 7.70019V15.8188H19.7489V7.61021C19.7503 7.59957 19.7503 7.5811 19.7503 7.56514Z" fill="#262626"/>
<path d="M23.6502 9.98409C23.6502 9.96828 23.6502 9.95106 23.6502 9.9351V9.91272C23.638 9.58925 23.5446 9.27424 23.3784 8.99647C23.2122 8.71885 22.9787 8.4874 22.6995 8.32386L22.5831 3.87793H22.1355V9.06C22.3117 9.342 22.4112 9.66516 22.4241 9.99739V10.0212C22.4241 10.0371 22.4241 10.0543 22.4241 10.0702C22.4241 10.0861 22.4241 10.1046 22.4241 10.1191V15.8189H23.6502V10.0345C23.6502 10.0185 23.6502 10.0013 23.6502 9.98409Z" fill="#262626"/>
<path d="M0 21.4457V27.7554L0.100155 27.8556H0.841301L0.941456 27.7554V22.4873L1.24192 22.1868H3.6857L3.98616 22.4873V27.7554L4.08632 27.8556H4.82746L4.92762 27.7554V21.4457L4.82746 21.3455H0.100155L0 21.4457ZM6.72915 21.4457V27.7554L6.8293 27.8556H7.57045L7.67061 27.7554V26.0528L7.97107 25.7523H8.92254C10.4048 25.7523 11.4264 24.891 11.4264 23.5489C11.4264 22.1969 10.4649 21.3455 9.03271 21.3455H6.8293L6.72915 21.4457ZM7.67061 22.4773L7.97107 22.1768H8.97262C9.97417 22.1768 10.485 22.6275 10.485 23.5489C10.485 24.4403 9.9341 24.9211 8.91253 24.9211H7.97107L7.67061 24.6206V22.4773ZM12.8323 21.4457V27.7554L12.9325 27.8556H13.6837L13.7638 27.8055L16.3478 23.8093L16.8986 23.9796V27.7554L16.9988 27.8556H17.7299L17.8301 27.7554V21.4457L17.7299 21.3455H17.0288L16.9487 21.3956L14.3146 25.512L13.7638 25.3417V21.4457L13.6636 21.3455H12.9325L12.8323 21.4457ZM19.63 21.4457V27.7554L19.7302 27.8556H20.4313L20.5314 27.7554V23.8795L21.0923 23.7292L22.2841 25.8525L22.3743 25.9026H22.7148L22.8049 25.8525L24.0368 23.7092L24.5977 23.8594V27.7554L24.6979 27.8556H25.409L25.5091 27.7554V21.4457L25.409 21.3455H24.5176L24.4274 21.3956L22.835 24.22H22.3142L20.7317 21.3956L20.6416 21.3455H19.7302L19.63 21.4457ZM26.9773 21.4857L29.2308 26.1329V26.4134L29.1807 26.5436C29.0405 26.9041 28.7901 27.1145 28.4496 27.1145C28.2693 27.1145 28.089 27.0844 27.9388 27.0243L27.8086 27.0844L27.6083 27.7354L27.6684 27.8656C27.9088 27.9457 28.1591 27.9858 28.4897 27.9858C29.1707 27.9858 29.7015 27.5952 30.0721 26.7238L32.3156 21.4857L32.2254 21.3455H31.3841L31.284 21.4056L30.032 24.6506H29.4812L28.059 21.4056L27.9588 21.3455H27.0675L26.9773 21.4857ZM38.2069 22.1067L38.1968 21.9665C37.6159 21.4557 36.9449 21.2153 36.1236 21.2153C34.3008 21.2153 33.0789 22.7177 33.0789 24.6006C33.0789 26.6137 34.2407 27.9858 36.0235 27.9858C36.9549 27.9858 37.7061 27.6953 38.327 27.0944L38.3371 26.9542L37.8864 26.4434L37.7461 26.4334C37.2554 26.9041 36.6945 27.1445 36.0736 27.1445C34.7916 27.1445 34.0204 26.0628 34.0204 24.6006C34.0204 23.0782 34.8417 22.0566 36.0635 22.0566C36.6545 22.0566 37.1552 22.267 37.5959 22.6576L37.7361 22.6475L38.2069 22.1067Z" fill="white"/>
</svg>
